<mxfile host="Electron" modified="2023-11-08T15:21:53.766Z" agent="Mozilla/5.0 (Macintosh; Intel Mac OS X 10_15_7) AppleWebKit/537.36 (KHTML, like Gecko) draw.io/22.0.2 Chrome/114.0.5735.289 Electron/25.8.4 Safari/537.36" etag="YmZhlvQQBliM4DqzNp8b" version="22.0.2" type="device">
  <diagram name="Pagina-1" id="SYuKjCVkOtpSHUJ9JC8h">
    <mxGraphModel dx="1964" dy="1809" grid="1" gridSize="10" guides="1" tooltips="1" connect="1" arrows="1" fold="1" page="1" pageScale="1" pageWidth="827" pageHeight="1169" math="0" shadow="0">
      <root>
        <mxCell id="0" />
        <mxCell id="1" parent="0" />
        <mxCell id="IkQXpn9ixrnxDfD2KMmo-63" value="" style="rounded=0;whiteSpace=wrap;html=1;fillColor=#d5e8d4;strokeColor=none;strokeWidth=1;labelBackgroundColor=none;" parent="1" vertex="1">
          <mxGeometry x="20" y="-100" width="1040" height="400" as="geometry" />
        </mxCell>
        <mxCell id="IG1KmGdoP6GWx7z7iu9f-26" value="" style="rounded=0;whiteSpace=wrap;html=1;fillColor=#dae8fc;strokeColor=none;fontFamily=Tahoma;fontSize=10;dashed=1;strokeWidth=2;labelBackgroundColor=none;" vertex="1" parent="1">
          <mxGeometry x="80" y="40" width="140" height="120" as="geometry" />
        </mxCell>
        <mxCell id="IG1KmGdoP6GWx7z7iu9f-14" value="" style="rounded=0;whiteSpace=wrap;html=1;fillColor=#dae8fc;strokeColor=none;fontFamily=Tahoma;fontSize=10;dashed=1;strokeWidth=2;labelBackgroundColor=none;" vertex="1" parent="1">
          <mxGeometry x="80" y="180" width="140" height="100" as="geometry" />
        </mxCell>
        <mxCell id="IG1KmGdoP6GWx7z7iu9f-12" value="" style="rounded=0;whiteSpace=wrap;html=1;fillColor=#dae8fc;strokeColor=none;fontFamily=Tahoma;fontSize=10;dashed=1;strokeWidth=2;labelBackgroundColor=none;" vertex="1" parent="1">
          <mxGeometry x="80" y="-80" width="140" height="100" as="geometry" />
        </mxCell>
        <mxCell id="IkQXpn9ixrnxDfD2KMmo-17" value="" style="rounded=0;whiteSpace=wrap;html=1;fillColor=#dae8fc;strokeColor=none;fontFamily=Tahoma;fontSize=10;dashed=1;strokeWidth=1;labelBackgroundColor=#dae8fc;" parent="1" vertex="1">
          <mxGeometry x="280" y="-30" width="720" height="260" as="geometry" />
        </mxCell>
        <mxCell id="IkQXpn9ixrnxDfD2KMmo-16" value="" style="rounded=0;whiteSpace=wrap;html=1;fillColor=#e1d5e7;strokeColor=none;dashed=1;fontFamily=Tahoma;fontSize=10;strokeWidth=2;labelBackgroundColor=none;" parent="1" vertex="1">
          <mxGeometry x="340" y="-10" width="600" height="120" as="geometry" />
        </mxCell>
        <mxCell id="IkQXpn9ixrnxDfD2KMmo-2" value="mil-x-intern" style="shape=image;verticalLabelPosition=middle;labelBackgroundColor=none;verticalAlign=middle;aspect=fixed;imageAspect=0;image=data:image/svg+xml,PHN2ZyB4bWxucz0iaHR0cDovL3d3dy53My5vcmcvMjAwMC9zdmciIHZpZXdCb3g9IjAgMCAxOCAxOCIgaGVpZ2h0PSIxOCIgd2lkdGg9IjE4IiBpZD0iYTE2MDZhNTItZmIxNC00NjM3LTg3ZGUtNGQ1MjRiYmExODI5Ij48ZGVmcz48bGluZWFyR3JhZGllbnQgZ3JhZGllbnRVbml0cz0idXNlclNwYWNlT25Vc2UiIGdyYWRpZW50VHJhbnNmb3JtPSJ0cmFuc2xhdGUoMi4wMyAtMC40KSByb3RhdGUoLTAuMDgpIiB5Mj0iMTAuMjMiIHgyPSIxMS41MiIgeTE9IjguNTkiIHgxPSI5Ljg4IiBpZD0iZjAyMGZiN2UtMjI0My00NTAxLTgxNTMtNWQ2OWJkM2MzNGY3Ij48c3RvcCBzdG9wLWNvbG9yPSIjODZkNjMzIiBvZmZzZXQ9IjAiLz48c3RvcCBzdG9wLWNvbG9yPSIjNWU5NjI0IiBvZmZzZXQ9IjEiLz48L2xpbmVhckdyYWRpZW50PjxsaW5lYXJHcmFkaWVudCBncmFkaWVudFVuaXRzPSJ1c2VyU3BhY2VPblVzZSIgeTI9IjEwLjIzIiB4Mj0iNy44MSIgeTE9IjguNTkiIHgxPSI2LjE4IiBpZD0iYjNjMmJjOTQtOGM3Yy00OGEyLTk3MTktNmVlODk5YTQzYTk3Ij48c3RvcCBzdG9wLWNvbG9yPSIjODZkNjMzIiBvZmZzZXQ9IjAiLz48c3RvcCBzdG9wLWNvbG9yPSIjNWU5NjI0IiBvZmZzZXQ9IjEiLz48L2xpbmVhckdyYWRpZW50PjxsaW5lYXJHcmFkaWVudCBncmFkaWVudFVuaXRzPSJ1c2VyU3BhY2VPblVzZSIgeTI9IjEwLjIzIiB4Mj0iNC4xMSIgeTE9IjguNTkiIHgxPSIyLjQ4IiBpZD0iZTkwMGMzNWQtMDk1OC00ZDRmLWIyOGYtMzAyZWVhYWY1MmY1Ij48c3RvcCBzdG9wLWNvbG9yPSIjODZkNjMzIiBvZmZzZXQ9IjAiLz48c3RvcCBzdG9wLWNvbG9yPSIjNWU5NjI0IiBvZmZzZXQ9IjEiLz48L2xpbmVhckdyYWRpZW50PjwvZGVmcz48dGl0bGU+SWNvbi1uZXR3b3JraW5nLTYxPC90aXRsZT48Y2lyY2xlIGZpbGw9InVybCgjZjAyMGZiN2UtMjI0My00NTAxLTgxNTMtNWQ2OWJkM2MzNGY3KSIgcj0iMS4xNiIgY3k9IjguOTkiIGN4PSIxMi43NCIvPjxjaXJjbGUgZmlsbD0idXJsKCNiM2MyYmM5NC04YzdjLTQ4YTItOTcxOS02ZWU4OTlhNDNhOTcpIiByPSIxLjE2IiBjeT0iOSIgY3g9IjkuMDQiLz48Y2lyY2xlIGZpbGw9InVybCgjZTkwMGMzNWQtMDk1OC00ZDRmLWIyOGYtMzAyZWVhYWY1MmY1KSIgcj0iMS4xNiIgY3k9IjkiIGN4PSI1LjM0Ii8+PHBhdGggZmlsbD0iIzUwZTZmZiIgdHJhbnNmb3JtPSJ0cmFuc2xhdGUoMTMuMTggMTYuOTMpIHJvdGF0ZSgxMzQuOTIpIiBkPSJNMi42MSw3LjI4aC45NGEuMy4zLDAsMCwxLC4zLjN2Ni45NGEuNi42LDAsMCwxLS42LjZIMi4zMWEwLDAsMCwwLDEsMCwwVjcuNThhLjMuMywwLDAsMSwuMy0uM1oiLz48cGF0aCBmaWxsPSIjMTQ5MGRmIiB0cmFuc2Zvcm09InRyYW5zbGF0ZSg1LjY2IC0wLjE2KSByb3RhdGUoNDQuOTIpIiBkPSJNMi41NiwyLjkxSDMuNWEuMy4zLDAsMCwxLC4zLjN2Ny40M2EwLDAsMCwwLDEsMCwwSDIuODZhLjYuNiwwLDAsMS0uNi0uNlYzLjIxYS4zLjMsMCwwLDEsLjMtLjNaIi8+PHBhdGggZmlsbD0iIzUwZTZmZiIgdHJhbnNmb3JtPSJ0cmFuc2xhdGUoMTIuMzIgLTcuMjgpIHJvdGF0ZSg0NS4wOCkiIGQ9Ik0xNC4xNSw3LjI4aC45NGEuNi42LDAsMCwxLC42LjZ2Ni45NGEuMy4zLDAsMCwxLS4zLjNoLS45NGEuMy4zLDAsMCwxLS4zLS4zVjcuMjhhMCwwLDAsMCwxLDAsMFoiLz48cGF0aCBmaWxsPSIjMTQ5MGRmIiB0cmFuc2Zvcm09InRyYW5zbGF0ZSgzMC4zNiAwLjk5KSByb3RhdGUoMTM1LjA4KSIgZD0iTTE0LjgxLDIuOTFoLjk0YTAsMCwwLDAsMSwwLDB2Ny40M2EuMy4zLDAsMCwxLS4zLjNIMTQuNWEuMy4zLDAsMCwxLS4zLS4zVjMuNTFhLjYuNiwwLDAsMSwuNi0uNloiLz48L3N2Zz4=;fontFamily=Tahoma;fontSize=10;imageBackground=none;labelPosition=right;align=left;" parent="1" vertex="1">
          <mxGeometry x="20" y="280" width="20" height="20" as="geometry" />
        </mxCell>
        <mxCell id="IkQXpn9ixrnxDfD2KMmo-5" value="mil-x-app-snet" style="shape=image;verticalLabelPosition=middle;labelBackgroundColor=none;verticalAlign=middle;aspect=fixed;imageAspect=0;image=data:image/svg+xml,PHN2ZyB4bWxucz0iaHR0cDovL3d3dy53My5vcmcvMjAwMC9zdmciIHZpZXdCb3g9IjAgMCAxOCAxOCIgaGVpZ2h0PSIxOCIgd2lkdGg9IjE4Ij48ZGVmcz48bGluZWFyR3JhZGllbnQgZ3JhZGllbnRVbml0cz0idXNlclNwYWNlT25Vc2UiIHkyPSI3LjY5NSIgeDI9IjkuMDMzIiB5MT0iMTAuMzA1IiB4MT0iOS4wMzMiIGlkPSJiY2ViNjBkZC04YjhjLTQwOTgtOTRmOC1hZWI0ZGIyZWRhZWYiPjxzdG9wIHN0b3AtY29sb3I9IiM1ZTk2MjQiIG9mZnNldD0iMCIvPjxzdG9wIHN0b3AtY29sb3I9IiM2ZmIwMmEiIG9mZnNldD0iMC4yNDEiLz48c3RvcCBzdG9wLWNvbG9yPSIjN2NjNTJmIiBvZmZzZXQ9IjAuNTAxIi8+PHN0b3Agc3RvcC1jb2xvcj0iIzgzZDIzMiIgb2Zmc2V0PSIwLjc1NiIvPjxzdG9wIHN0b3AtY29sb3I9IiM4NmQ2MzMiIG9mZnNldD0iMSIvPjwvbGluZWFyR3JhZGllbnQ+PC9kZWZzPjxnIGlkPSJhYzc1YzIxZS0yYTkzLTQ2NGYtODA0OC1mMTUxOGRhYjhiNzUiPjxnPjxwYXRoIGZpbGw9InVybCgjYmNlYjYwZGQtOGI4Yy00MDk4LTk0ZjgtYWViNGRiMmVkYWVmKSIgZD0iTTkuMDMxLDcuN0ExLjMwNSwxLjMwNSwwLDEsMCwxMC4zMzgsOSwxLjMwNSwxLjMwNSwwLDAsMCw5LjAzMSw3LjdaIi8+PGc+PHBhdGggZmlsbD0iIzUwZTZmZiIgdHJhbnNmb3JtPSJ0cmFuc2xhdGUoMTMuNjUzIDE2LjQ4NSkgcm90YXRlKDEzNC45MTkpIiBkPSJNMi45NjEsNy4zNzRoLjg4OGEuMjg0LjI4NCwwLDAsMSwuMjg0LjI4NHY2LjU1MWEuNTY4LjU2OCwwLDAsMS0uNTY4LjU2OEgyLjY3N2EwLDAsMCwwLDEsMCwwVjcuNjU5QS4yODQuMjg0LDAsMCwxLDIuOTYxLDcuMzc0WiIvPjxwYXRoIGZpbGw9IiMxNDkwZGYiIHRyYW5zZm9ybT0idHJhbnNsYXRlKDUuODQ3IC0wLjM1OCkgcm90YXRlKDQ0LjkxOSkiIGQ9Ik0yLjkxMywzLjI0NEgzLjhhLjI4NC4yODQsMCwwLDEsLjI4NC4yODR2Ny4wMTVhMCwwLDAsMCwxLDAsMEgzLjJhLjU2OC41NjgsMCwwLDEtLjU2OC0uNTY4VjMuNTI4YS4yODQuMjg0LDAsMCwxLC4yODQtLjI4NFoiLz48cGF0aCBmaWxsPSIjNTBlNmZmIiB0cmFuc2Zvcm09InRyYW5zbGF0ZSgxMi4xMzIgLTcuMDc5KSByb3RhdGUoNDUuMDgxKSIgZD0iTTEzLjg2Nyw3LjM3NGguODg4YS41NjguNTY4LDAsMCwxLC41NjguNTY4djYuNTUxYS4yODQuMjg0LDAsMCwxLS4yODQuMjg0aC0uODg4YS4yODQuMjg0LDAsMCwxLS4yODQtLjI4NFY3LjM3NGEwLDAsMCwwLDEsMCwwWiIvPjxwYXRoIGZpbGw9IiMxNDkwZGYiIHRyYW5zZm9ybT0idHJhbnNsYXRlKDI5Ljg3OSAxLjQzNSkgcm90YXRlKDEzNS4wODEpIiBkPSJNMTQuNDgzLDMuMjQ0aC44ODhhMCwwLDAsMCwxLDAsMHY3LjAxNWEuMjg0LjI4NCwwLDAsMS0uMjg0LjI4NEgxNC4yYS4yODQuMjg0LDAsMCwxLS4yODQtLjI4NFYzLjgxMmEuNTY4LjU2OCwwLDAsMSwuNTY4LS41NjhaIi8+PC9nPjwvZz48L2c+PC9zdmc+;fontFamily=Tahoma;fontSize=10;imageBackground=none;labelPosition=right;align=left;" parent="1" vertex="1">
          <mxGeometry x="280" y="210" width="20" height="20" as="geometry" />
        </mxCell>
        <mxCell id="IkQXpn9ixrnxDfD2KMmo-6" value="GatewaySubnet" style="shape=image;verticalLabelPosition=middle;labelBackgroundColor=none;verticalAlign=middle;aspect=fixed;imageAspect=0;image=data:image/svg+xml,PHN2ZyB4bWxucz0iaHR0cDovL3d3dy53My5vcmcvMjAwMC9zdmciIHZpZXdCb3g9IjAgMCAxOCAxOCIgaGVpZ2h0PSIxOCIgd2lkdGg9IjE4Ij48ZGVmcz48bGluZWFyR3JhZGllbnQgZ3JhZGllbnRVbml0cz0idXNlclNwYWNlT25Vc2UiIHkyPSI3LjY5NSIgeDI9IjkuMDMzIiB5MT0iMTAuMzA1IiB4MT0iOS4wMzMiIGlkPSJiY2ViNjBkZC04YjhjLTQwOTgtOTRmOC1hZWI0ZGIyZWRhZWYiPjxzdG9wIHN0b3AtY29sb3I9IiM1ZTk2MjQiIG9mZnNldD0iMCIvPjxzdG9wIHN0b3AtY29sb3I9IiM2ZmIwMmEiIG9mZnNldD0iMC4yNDEiLz48c3RvcCBzdG9wLWNvbG9yPSIjN2NjNTJmIiBvZmZzZXQ9IjAuNTAxIi8+PHN0b3Agc3RvcC1jb2xvcj0iIzgzZDIzMiIgb2Zmc2V0PSIwLjc1NiIvPjxzdG9wIHN0b3AtY29sb3I9IiM4NmQ2MzMiIG9mZnNldD0iMSIvPjwvbGluZWFyR3JhZGllbnQ+PC9kZWZzPjxnIGlkPSJhYzc1YzIxZS0yYTkzLTQ2NGYtODA0OC1mMTUxOGRhYjhiNzUiPjxnPjxwYXRoIGZpbGw9InVybCgjYmNlYjYwZGQtOGI4Yy00MDk4LTk0ZjgtYWViNGRiMmVkYWVmKSIgZD0iTTkuMDMxLDcuN0ExLjMwNSwxLjMwNSwwLDEsMCwxMC4zMzgsOSwxLjMwNSwxLjMwNSwwLDAsMCw5LjAzMSw3LjdaIi8+PGc+PHBhdGggZmlsbD0iIzUwZTZmZiIgdHJhbnNmb3JtPSJ0cmFuc2xhdGUoMTMuNjUzIDE2LjQ4NSkgcm90YXRlKDEzNC45MTkpIiBkPSJNMi45NjEsNy4zNzRoLjg4OGEuMjg0LjI4NCwwLDAsMSwuMjg0LjI4NHY2LjU1MWEuNTY4LjU2OCwwLDAsMS0uNTY4LjU2OEgyLjY3N2EwLDAsMCwwLDEsMCwwVjcuNjU5QS4yODQuMjg0LDAsMCwxLDIuOTYxLDcuMzc0WiIvPjxwYXRoIGZpbGw9IiMxNDkwZGYiIHRyYW5zZm9ybT0idHJhbnNsYXRlKDUuODQ3IC0wLjM1OCkgcm90YXRlKDQ0LjkxOSkiIGQ9Ik0yLjkxMywzLjI0NEgzLjhhLjI4NC4yODQsMCwwLDEsLjI4NC4yODR2Ny4wMTVhMCwwLDAsMCwxLDAsMEgzLjJhLjU2OC41NjgsMCwwLDEtLjU2OC0uNTY4VjMuNTI4YS4yODQuMjg0LDAsMCwxLC4yODQtLjI4NFoiLz48cGF0aCBmaWxsPSIjNTBlNmZmIiB0cmFuc2Zvcm09InRyYW5zbGF0ZSgxMi4xMzIgLTcuMDc5KSByb3RhdGUoNDUuMDgxKSIgZD0iTTEzLjg2Nyw3LjM3NGguODg4YS41NjguNTY4LDAsMCwxLC41NjguNTY4djYuNTUxYS4yODQuMjg0LDAsMCwxLS4yODQuMjg0aC0uODg4YS4yODQuMjg0LDAsMCwxLS4yODQtLjI4NFY3LjM3NGEwLDAsMCwwLDEsMCwwWiIvPjxwYXRoIGZpbGw9IiMxNDkwZGYiIHRyYW5zZm9ybT0idHJhbnNsYXRlKDI5Ljg3OSAxLjQzNSkgcm90YXRlKDEzNS4wODEpIiBkPSJNMTQuNDgzLDMuMjQ0aC44ODhhMCwwLDAsMCwxLDAsMHY3LjAxNWEuMjg0LjI4NCwwLDAsMS0uMjg0LjI4NEgxNC4yYS4yODQuMjg0LDAsMCwxLS4yODQtLjI4NFYzLjgxMmEuNTY4LjU2OCwwLDAsMSwuNTY4LS41NjhaIi8+PC9nPjwvZz48L2c+PC9zdmc+;fontFamily=Tahoma;fontSize=10;labelPosition=right;align=left;" parent="1" vertex="1">
          <mxGeometry x="80" width="20" height="20" as="geometry" />
        </mxCell>
        <mxCell id="IkQXpn9ixrnxDfD2KMmo-10" value="mil-x-cae" style="shape=image;verticalLabelPosition=middle;labelBackgroundColor=none;verticalAlign=middle;aspect=fixed;imageAspect=0;image=data:image/svg+xml,PHN2ZyB4bWxucz0iaHR0cDovL3d3dy53My5vcmcvMjAwMC9zdmciIHZpZXdCb3g9IjAgMCAxOCAxOCIgaGVpZ2h0PSIxOCIgd2lkdGg9IjE4Ij48ZGVmcz48bGluZWFyR3JhZGllbnQgZ3JhZGllbnRVbml0cz0idXNlclNwYWNlT25Vc2UiIHkyPSIxMy4wOTkiIHgyPSIxMS43MjkiIHkxPSI0Ljg4IiB4MT0iMTEuNzI5IiBpZD0iYTNhNDQwOTMtYjE1Ny00MjZlLWE4ZmUtY2VjOWY5YzIzOTc4Ij48c3RvcCBzdG9wLWNvbG9yPSIjNzczYWRjIiBvZmZzZXQ9IjAuMDAxIi8+PHN0b3Agc3RvcC1jb2xvcj0iIzY2MzViYiIgb2Zmc2V0PSIwLjUyOCIvPjxzdG9wIHN0b3AtY29sb3I9IiM1NTJmOTkiIG9mZnNldD0iMSIvPjwvbGluZWFyR3JhZGllbnQ+PGxpbmVhckdyYWRpZW50IGdyYWRpZW50VW5pdHM9InVzZXJTcGFjZU9uVXNlIiB5Mj0iNC4xOTgiIHgyPSI2LjM1IiB5MT0iMTMuOTE0IiB4MT0iNi4zNSIgaWQ9ImFkODM4ODU5LTAzZjQtNDcyZi04MWJjLWViYzkyMWQ3MTMzNSI+PHN0b3Agc3RvcC1jb2xvcj0iIzc3M2FkYyIgb2Zmc2V0PSIwLjAwMSIvPjxzdG9wIHN0b3AtY29sb3I9IiM3OTNkZGQiIG9mZnNldD0iMC4zMDciLz48c3RvcCBzdG9wLWNvbG9yPSIjODA0NmUxIiBvZmZzZXQ9IjAuNTMyIi8+PHN0b3Agc3RvcC1jb2xvcj0iIzhjNTZlNyIgb2Zmc2V0PSIwLjczMSIvPjxzdG9wIHN0b3AtY29sb3I9IiM5YzZkZWYiIG9mZnNldD0iMC45MTUiLz48c3RvcCBzdG9wLWNvbG9yPSIjYTY3YWY0IiBvZmZzZXQ9IjEiLz48L2xpbmVhckdyYWRpZW50PjwvZGVmcz48ZyBpZD0iYWU4MjQ3MGQtN2E2Yy00ZGZlLTg1MzMtNTlkOGZmOTQ4NjI5Ij48Zz48cGF0aCBmaWxsPSIjOTQ5NDk0IiBkPSJNOC42MTcsOC42NDRILjYzOVYxLjc4NEExLjE2LDEuMTYsMCwwLDEsMS43ODguNjI0SDguNjE3Wk0xLjYzLDcuNjUzaDZWMS41OTRIMS43ODhhLjE1OC4xNTgsMCwwLDAtLjE1OC4xNThoMFoiLz48cGF0aCBmaWxsPSIjOTQ5NDk0IiBkPSJNMTcuNSw4LjY0NEg5LjUyM1YuNjI0aDYuODI4QTEuMTYsMS4xNiwwLDAsMSwxNy41LDEuNzg0Wm0tNi45ODctLjk5MWg2VjEuNzg0YS4xNTcuMTU3LDAsMCwwLS4xMjMtLjE4Ny4yLjIsMCwwLDAtLjAzNSwwSDEwLjUxM1oiLz48cGF0aCBmaWxsPSIjOTQ5NDk0IiBkPSJNOC42MTcsMTcuNDg1SDEuNzg4QTEuMTQ5LDEuMTQ5LDAsMCwxLC42MzksMTYuMzQ3VjkuNDc2SDguNjE3Wk0xLjYzLDEwLjQ2N3Y1Ljg4YS4xNTguMTU4LDAsMCwwLC4xNTguMTU4SDcuNjI2VjEwLjQ2N1oiLz48cGF0aCBmaWxsPSIjOTQ5NDk0IiBkPSJNMTYuMzUxLDE3LjQ4NUg5LjUyM1Y5LjQ3NkgxNy41djYuODcxQTEuMTQ5LDEuMTQ5LDAsMCwxLDE2LjM1MSwxNy40ODVabS01LjgzOC0uOTkxaDUuODM4YS4xNTcuMTU3LDAsMCwwLC4xNTgtLjE1OFYxMC40NjdoLTZaIi8+PHBhdGggZmlsbD0idXJsKCNhM2E0NDA5My1iMTU3LTQyNmUtYThmZS1jZWM5ZjljMjM5NzgpIiBkPSJNMTQuNiw2LjI5NGEuMjk0LjI5NCwwLDAsMC0uMi0uMjc4TDkuMDQ0LDQuMjA1QS4xMjguMTI4LDAsMCwwLDksNC4ySDlhLjEzMi4xMzIsMCwwLDAtLjEzMy4xMzN2OS40NDVBLjEzMy4xMzMsMCwwLDAsOSwxMy45MTFIOWEuMTM4LjEzOCwwLDAsMCwuMDQ5LS4wMWw1LjM2NS0yLjE0NWEuMjkyLjI5MiwwLDAsMCwuMTg0LS4yNzJaIi8+PHBhdGggZmlsbD0idXJsKCNhZDgzODg1OS0wM2Y0LTQ3MmYtODFiYy1lYmM5MjFkNzEzMzUpIiBkPSJNOC45NjYsNC4ybC01LjI5My45NjZhLjE2MS4xNjEsMCwwLDAtLjEzLjE1OFYxMi42M2EuMTYuMTYsMCwwLDAsLjEyNi4xNTdMOC45NjIsMTMuOTFhLjE2MS4xNjEsMCwwLDAsLjE5MS0uMTIxLjIyLjIyLDAsMCwwLDAtLjAzNlY0LjM1OEEuMTYuMTYsMCwwLDAsOSw0LjIuMTYzLjE2MywwLDAsMCw4Ljk2Niw0LjJaIi8+PHBhdGggb3BhY2l0eT0iMC41IiBmaWxsPSIjYjc5NmY5IiBkPSJNNi41Miw1LjY1NnY2LjhsMS44NDIuM1Y1LjMzNVptLTIuMjYyLjM2N3Y1Ljk1NWwxLjYuMzI2VjUuNzU0WiIvPjwvZz48L2c+PC9zdmc+;fontFamily=Tahoma;fontSize=10;imageBackground=none;labelPosition=right;align=left;" parent="1" vertex="1">
          <mxGeometry x="340" y="90" width="20" height="20" as="geometry" />
        </mxCell>
        <mxCell id="IkQXpn9ixrnxDfD2KMmo-11" value="mil-x-auth-ca" style="shape=image;verticalLabelPosition=bottom;labelBackgroundColor=none;verticalAlign=top;aspect=fixed;imageAspect=0;image=data:image/svg+xml,PHN2ZyB4bWxucz0iaHR0cDovL3d3dy53My5vcmcvMjAwMC9zdmciIHZpZXdCb3g9IjAgMCAxOCAxOCIgaGVpZ2h0PSIxOCIgd2lkdGg9IjE4Ij48ZGVmcz48bGluZWFyR3JhZGllbnQgZ3JhZGllbnRVbml0cz0idXNlclNwYWNlT25Vc2UiIHkyPSI4LjcwMyIgeDI9IjE0LjY4MyIgeTE9IjguNzAzIiB4MT0iOC43OTgiIGlkPSJiMjdmMWFkMC03ZDExLTQyNDctOWRhMy05MWJjZTYyMTFmMzIiPjxzdG9wIHN0b3AtY29sb3I9IiM3NzNhZGMiIG9mZnNldD0iMC4wMDEiLz48c3RvcCBzdG9wLWNvbG9yPSIjNTUyZjk5IiBvZmZzZXQ9IjEiLz48L2xpbmVhckdyYWRpZW50PjxsaW5lYXJHcmFkaWVudCBncmFkaWVudFVuaXRzPSJ1c2VyU3BhY2VPblVzZSIgeTI9IjEzLjc4IiB4Mj0iNS43NjQiIHkxPSIzLjc3NyIgeDE9IjUuNzY0IiBpZD0iYjJmOTIxMTItNGNhOS00YjE3LWEwMTktYzlmMjZjMWE0YThmIj48c3RvcCBzdG9wLWNvbG9yPSIjYTY3YWY0IiBvZmZzZXQ9IjAiLz48c3RvcCBzdG9wLWNvbG9yPSIjNzczYWRjIiBvZmZzZXQ9IjAuOTk5Ii8+PC9saW5lYXJHcmFkaWVudD48L2RlZnM+PGcgaWQ9ImI4YTA0ODZhLTU1MDEtNGQ5Mi1iNTQwLWE3NjZjNGIzYjU0OCI+PGc+PGc+PGc+PHBhdGggZmlsbD0iIzMyYmVkZCIgZD0iTTE2LjkzMiwxMS41NzhhOC40NDgsOC40NDgsMCwwLDEtNy45NSw1LjU5LDguMTUsOC4xNSwwLDAsMS0yLjMzLS4zMywyLjEzMywyLjEzMywwLDAsMCwuMTgtLjgzYy4wMSwwLC4wMy4wMS4wNC4wMWE3LjQyMiw3LjQyMiwwLDAsMCwyLjExLjMsNy42NDYsNy42NDYsMCwwLDAsNi44NS00LjI4bC4wMS0uMDFaIi8+PHBhdGggZmlsbD0iIzMyYmVkZCIgZD0iTTMuNTgyLDE0LjA2OGEyLjAyNSwyLjAyNSwwLDAsMC0uNjQuNTYsOC42LDguNiwwLDAsMS0xLjY3LTIuNDRsMS4wNC4yM3YuMjZhLjYuNiwwLDAsMCwuNDcuNTlsLjE0LjAzYTYuMTM2LDYuMTM2LDAsMCwwLC42Mi43M1oiLz48cGF0aCBmaWxsPSIjMzJiZWRkIiBkPSJNMTIuMzUyLjk1OGEyLjI4LDIuMjgsMCwwLDAtLjI3LjgxYy0uMDItLjAxLS4wNS0uMDItLjA3LS4wM2E3LjQ3OSw3LjQ3OSwwLDAsMC0zLjAzLS42Myw3LjY0Myw3LjY0MywwLDAsMC01LjksMi44bC0uMjkuMDZhLjYuNiwwLDAsMC0uNDguNTh2LjQ2bC0xLjAyLjE5QTguNDU0LDguNDU0LDAsMCwxLDguOTgyLjI2OCw4LjYsOC42LDAsMCwxLDEyLjM1Mi45NThaIi8+PHBhdGggZmlsbD0iIzMyYmVkZCIgZD0iTTE2Ljg3Miw1LjdsLTEuMDktLjM4YTYuNiw2LjYsMCwwLDAtLjcyLTEuMTZjLS4wMi0uMDMtLjA0LS4wNS0uMDUtLjA3YTIuMDgzLDIuMDgzLDAsMCwwLC43Mi0uNDVBNy44MSw3LjgxLDAsMCwxLDE2Ljg3Miw1LjdaIi8+PHBhdGggZmlsbD0iI2ZmZiIgZD0iTTEwLjA3MiwxMS45MDhsMi41NC41Nkw4LjY3MiwxNC4xYy0uMDIsMC0uMDMuMDEtLjA1LjAxYS4xNTQuMTU0LDAsMCwxLS4xNS0uMTVWMy40NDhhLjE1NC4xNTQsMCwwLDEsLjE1LS4xNS4wOS4wOSwwLDAsMSwuMDUuMDFsNC40NiwxLjU2LTMuMDUuNTdhLjU2NS41NjUsMCwwLDAtLjQ0LjU0djUuNEEuNTM3LjUzNywwLDAsMCwxMC4wNzIsMTEuOTA4WiIvPjxnPjxnIGlkPSJlOTE4ZjI4Ni01MDMyLTQ5NDItYWQyOS1lYTE3ZTZmMWNjOTAiPjxwYXRoIGZpbGw9IiNhNjdhZjQiIGQ9Ik0xLjEsNS42NjhsMS4yMS0uMjN2Ni41NWwtMS4yMy0uMjctLjk5LS4yMmEuMTExLjExMSwwLDAsMS0uMDktLjEydi01LjRhLjEyLjEyLDAsMCwxLC4wOS0uMTJaIi8+PC9nPjxnPjxnIGlkPSJhNDdhOTlkZC00ZDQ3LTRjNzAtOGM0Mi1jNWFjMjc0Y2U0OTYiPjxnPjxwYXRoIGZpbGw9InVybCgjYjI3ZjFhZDAtN2QxMS00MjQ3LTlkYTMtOTFiY2U2MjExZjMyKSIgZD0iTTEwLjA3MiwxMS45MDhsMi41NC41Nkw4LjY3MiwxNC4xYy0uMDIsMC0uMDMuMDEtLjA1LjAxYS4xNTQuMTU0LDAsMCwxLS4xNS0uMTVWMy40NDhhLjE1NC4xNTQsMCwwLDEsLjE1LS4xNS4wOS4wOSwwLDAsMSwuMDUuMDFsNC40NiwxLjU2LTMuMDUuNTdhLjU2NS41NjUsMCwwLDAtLjQ0LjU0djUuNEEuNTM3LjUzNywwLDAsMCwxMC4wNzIsMTEuOTA4WiIvPjxwYXRoIGZpbGw9InVybCgjYjJmOTIxMTItNGNhOS00YjE3LWEwMTktYzlmMjZjMWE0YThmKSIgZD0iTTguNTg2LDMuMywyLjg3OCw0LjM3OGEuMTc3LjE3NywwLDAsMC0uMTQuMTc1VjEyLjY4YS4xNzcuMTc3LDAsMCwwLC4xMzcuMTc0TDguNTgxLDE0LjFhLjE3Ni4xNzYsMCwwLDAsLjIxLS4xNzRWMy40NzhBLjE3NS4xNzUsMCwwLDAsOC42MTksMy4zWiIvPjwvZz48L2c+PHBvbHlnb24gb3BhY2l0eT0iMC41IiBmaWxsPSIjYjc5NmY5IiBwb2ludHM9IjUuOTQ4IDQuOTIxIDUuOTQ4IDEyLjQ4MyA3LjkzNCAxMi44MTQgNy45MzQgNC41NjQgNS45NDggNC45MjEiLz48cG9seWdvbiBvcGFjaXR5PSIwLjUiIGZpbGw9IiNiNzk2ZjkiIHBvaW50cz0iMy41MDkgNS4zMjkgMy41MDkgMTEuOTU0IDUuMjM4IDEyLjMxNyA1LjIzOCA1LjAzMSAzLjUwOSA1LjMyOSIvPjwvZz48L2c+PC9nPjxwYXRoIGZpbGw9IiMzMmJlZGQiIGQ9Ik0xNiwyLjA0OGExLjc1NSwxLjc1NSwwLDEsMS0xLjc2LTEuNzZBMS43NTYsMS43NTYsMCwwLDEsMTYsMi4wNDhaIi8+PGNpcmNsZSBmaWxsPSIjMzJiZWRkIiByPSIxLjc1OSIgY3k9IjE1Ljk3MyIgY3g9IjQuNjUiLz48L2c+PHBhdGggZmlsbD0iIzc3M2FkYyIgZD0iTTE4LDYuNjg5djMuODQ0YS4yMjIuMjIyLDAsMCwxLS4xMzMuMmwtLjc2Ni4zMTYtMy4wNywxLjI2OC0uMDExLDBhLjEyNi4xMjYsMCwwLDEtLjAzOCwwLC4xLjEsMCwwLDEtLjEtLjFWNS4yMzRhLjEuMSwwLDAsMSwuMDU0LS4wODhsMCwwLC4wMTksMGEuMDMxLjAzMSwwLDAsMSwuMDE5LDAsLjA1NS4wNTUsMCwwLDEsLjAzNC4wMDhsLjAxMSwwLC4wMTIsMEwxNy4wNSw2LjJsLjguMjgyQS4yMTMuMjEzLDAsMCwxLDE4LDYuNjg5WiIvPjxwYXRoIGZpbGw9IiNhNjdhZjQiIGQ9Ik0xMy45NTksNS4xNGwtMy44LjcxNWEuMTE4LjExOCwwLDAsMC0uMDkzLjExN3Y1LjQwOWEuMTE4LjExOCwwLDAsMCwuMDkxLjExNmwzLjguODMxYS4xMTUuMTE1LDAsMCwwLC4xMzctLjA5LjEwOS4xMDksMCwwLDAsMC0uMDI2VjUuMjU2YS4xMTcuMTE3LDAsMCwwLS4xMTUtLjExOEEuMDgyLjA4MiwwLDAsMCwxMy45NTksNS4xNFoiLz48L2c+PC9nPjwvc3ZnPg==;fontFamily=Tahoma;fontSize=10;" parent="1" vertex="1">
          <mxGeometry x="380" y="30" width="40" height="40" as="geometry" />
        </mxCell>
        <mxCell id="IkQXpn9ixrnxDfD2KMmo-12" value="mil-x-payment-notice-ca" style="shape=image;verticalLabelPosition=bottom;labelBackgroundColor=none;verticalAlign=top;aspect=fixed;imageAspect=0;image=data:image/svg+xml,PHN2ZyB4bWxucz0iaHR0cDovL3d3dy53My5vcmcvMjAwMC9zdmciIHZpZXdCb3g9IjAgMCAxOCAxOCIgaGVpZ2h0PSIxOCIgd2lkdGg9IjE4Ij48ZGVmcz48bGluZWFyR3JhZGllbnQgZ3JhZGllbnRVbml0cz0idXNlclNwYWNlT25Vc2UiIHkyPSI4LjcwMyIgeDI9IjE0LjY4MyIgeTE9IjguNzAzIiB4MT0iOC43OTgiIGlkPSJiMjdmMWFkMC03ZDExLTQyNDctOWRhMy05MWJjZTYyMTFmMzIiPjxzdG9wIHN0b3AtY29sb3I9IiM3NzNhZGMiIG9mZnNldD0iMC4wMDEiLz48c3RvcCBzdG9wLWNvbG9yPSIjNTUyZjk5IiBvZmZzZXQ9IjEiLz48L2xpbmVhckdyYWRpZW50PjxsaW5lYXJHcmFkaWVudCBncmFkaWVudFVuaXRzPSJ1c2VyU3BhY2VPblVzZSIgeTI9IjEzLjc4IiB4Mj0iNS43NjQiIHkxPSIzLjc3NyIgeDE9IjUuNzY0IiBpZD0iYjJmOTIxMTItNGNhOS00YjE3LWEwMTktYzlmMjZjMWE0YThmIj48c3RvcCBzdG9wLWNvbG9yPSIjYTY3YWY0IiBvZmZzZXQ9IjAiLz48c3RvcCBzdG9wLWNvbG9yPSIjNzczYWRjIiBvZmZzZXQ9IjAuOTk5Ii8+PC9saW5lYXJHcmFkaWVudD48L2RlZnM+PGcgaWQ9ImI4YTA0ODZhLTU1MDEtNGQ5Mi1iNTQwLWE3NjZjNGIzYjU0OCI+PGc+PGc+PGc+PHBhdGggZmlsbD0iIzMyYmVkZCIgZD0iTTE2LjkzMiwxMS41NzhhOC40NDgsOC40NDgsMCwwLDEtNy45NSw1LjU5LDguMTUsOC4xNSwwLDAsMS0yLjMzLS4zMywyLjEzMywyLjEzMywwLDAsMCwuMTgtLjgzYy4wMSwwLC4wMy4wMS4wNC4wMWE3LjQyMiw3LjQyMiwwLDAsMCwyLjExLjMsNy42NDYsNy42NDYsMCwwLDAsNi44NS00LjI4bC4wMS0uMDFaIi8+PHBhdGggZmlsbD0iIzMyYmVkZCIgZD0iTTMuNTgyLDE0LjA2OGEyLjAyNSwyLjAyNSwwLDAsMC0uNjQuNTYsOC42LDguNiwwLDAsMS0xLjY3LTIuNDRsMS4wNC4yM3YuMjZhLjYuNiwwLDAsMCwuNDcuNTlsLjE0LjAzYTYuMTM2LDYuMTM2LDAsMCwwLC42Mi43M1oiLz48cGF0aCBmaWxsPSIjMzJiZWRkIiBkPSJNMTIuMzUyLjk1OGEyLjI4LDIuMjgsMCwwLDAtLjI3LjgxYy0uMDItLjAxLS4wNS0uMDItLjA3LS4wM2E3LjQ3OSw3LjQ3OSwwLDAsMC0zLjAzLS42Myw3LjY0Myw3LjY0MywwLDAsMC01LjksMi44bC0uMjkuMDZhLjYuNiwwLDAsMC0uNDguNTh2LjQ2bC0xLjAyLjE5QTguNDU0LDguNDU0LDAsMCwxLDguOTgyLjI2OCw4LjYsOC42LDAsMCwxLDEyLjM1Mi45NThaIi8+PHBhdGggZmlsbD0iIzMyYmVkZCIgZD0iTTE2Ljg3Miw1LjdsLTEuMDktLjM4YTYuNiw2LjYsMCwwLDAtLjcyLTEuMTZjLS4wMi0uMDMtLjA0LS4wNS0uMDUtLjA3YTIuMDgzLDIuMDgzLDAsMCwwLC43Mi0uNDVBNy44MSw3LjgxLDAsMCwxLDE2Ljg3Miw1LjdaIi8+PHBhdGggZmlsbD0iI2ZmZiIgZD0iTTEwLjA3MiwxMS45MDhsMi41NC41Nkw4LjY3MiwxNC4xYy0uMDIsMC0uMDMuMDEtLjA1LjAxYS4xNTQuMTU0LDAsMCwxLS4xNS0uMTVWMy40NDhhLjE1NC4xNTQsMCwwLDEsLjE1LS4xNS4wOS4wOSwwLDAsMSwuMDUuMDFsNC40NiwxLjU2LTMuMDUuNTdhLjU2NS41NjUsMCwwLDAtLjQ0LjU0djUuNEEuNTM3LjUzNywwLDAsMCwxMC4wNzIsMTEuOTA4WiIvPjxnPjxnIGlkPSJlOTE4ZjI4Ni01MDMyLTQ5NDItYWQyOS1lYTE3ZTZmMWNjOTAiPjxwYXRoIGZpbGw9IiNhNjdhZjQiIGQ9Ik0xLjEsNS42NjhsMS4yMS0uMjN2Ni41NWwtMS4yMy0uMjctLjk5LS4yMmEuMTExLjExMSwwLDAsMS0uMDktLjEydi01LjRhLjEyLjEyLDAsMCwxLC4wOS0uMTJaIi8+PC9nPjxnPjxnIGlkPSJhNDdhOTlkZC00ZDQ3LTRjNzAtOGM0Mi1jNWFjMjc0Y2U0OTYiPjxnPjxwYXRoIGZpbGw9InVybCgjYjI3ZjFhZDAtN2QxMS00MjQ3LTlkYTMtOTFiY2U2MjExZjMyKSIgZD0iTTEwLjA3MiwxMS45MDhsMi41NC41Nkw4LjY3MiwxNC4xYy0uMDIsMC0uMDMuMDEtLjA1LjAxYS4xNTQuMTU0LDAsMCwxLS4xNS0uMTVWMy40NDhhLjE1NC4xNTQsMCwwLDEsLjE1LS4xNS4wOS4wOSwwLDAsMSwuMDUuMDFsNC40NiwxLjU2LTMuMDUuNTdhLjU2NS41NjUsMCwwLDAtLjQ0LjU0djUuNEEuNTM3LjUzNywwLDAsMCwxMC4wNzIsMTEuOTA4WiIvPjxwYXRoIGZpbGw9InVybCgjYjJmOTIxMTItNGNhOS00YjE3LWEwMTktYzlmMjZjMWE0YThmKSIgZD0iTTguNTg2LDMuMywyLjg3OCw0LjM3OGEuMTc3LjE3NywwLDAsMC0uMTQuMTc1VjEyLjY4YS4xNzcuMTc3LDAsMCwwLC4xMzcuMTc0TDguNTgxLDE0LjFhLjE3Ni4xNzYsMCwwLDAsLjIxLS4xNzRWMy40NzhBLjE3NS4xNzUsMCwwLDAsOC42MTksMy4zWiIvPjwvZz48L2c+PHBvbHlnb24gb3BhY2l0eT0iMC41IiBmaWxsPSIjYjc5NmY5IiBwb2ludHM9IjUuOTQ4IDQuOTIxIDUuOTQ4IDEyLjQ4MyA3LjkzNCAxMi44MTQgNy45MzQgNC41NjQgNS45NDggNC45MjEiLz48cG9seWdvbiBvcGFjaXR5PSIwLjUiIGZpbGw9IiNiNzk2ZjkiIHBvaW50cz0iMy41MDkgNS4zMjkgMy41MDkgMTEuOTU0IDUuMjM4IDEyLjMxNyA1LjIzOCA1LjAzMSAzLjUwOSA1LjMyOSIvPjwvZz48L2c+PC9nPjxwYXRoIGZpbGw9IiMzMmJlZGQiIGQ9Ik0xNiwyLjA0OGExLjc1NSwxLjc1NSwwLDEsMS0xLjc2LTEuNzZBMS43NTYsMS43NTYsMCwwLDEsMTYsMi4wNDhaIi8+PGNpcmNsZSBmaWxsPSIjMzJiZWRkIiByPSIxLjc1OSIgY3k9IjE1Ljk3MyIgY3g9IjQuNjUiLz48L2c+PHBhdGggZmlsbD0iIzc3M2FkYyIgZD0iTTE4LDYuNjg5djMuODQ0YS4yMjIuMjIyLDAsMCwxLS4xMzMuMmwtLjc2Ni4zMTYtMy4wNywxLjI2OC0uMDExLDBhLjEyNi4xMjYsMCwwLDEtLjAzOCwwLC4xLjEsMCwwLDEtLjEtLjFWNS4yMzRhLjEuMSwwLDAsMSwuMDU0LS4wODhsMCwwLC4wMTksMGEuMDMxLjAzMSwwLDAsMSwuMDE5LDAsLjA1NS4wNTUsMCwwLDEsLjAzNC4wMDhsLjAxMSwwLC4wMTIsMEwxNy4wNSw2LjJsLjguMjgyQS4yMTMuMjEzLDAsMCwxLDE4LDYuNjg5WiIvPjxwYXRoIGZpbGw9IiNhNjdhZjQiIGQ9Ik0xMy45NTksNS4xNGwtMy44LjcxNWEuMTE4LjExOCwwLDAsMC0uMDkzLjExN3Y1LjQwOWEuMTE4LjExOCwwLDAsMCwuMDkxLjExNmwzLjguODMxYS4xMTUuMTE1LDAsMCwwLC4xMzctLjA5LjEwOS4xMDksMCwwLDAsMC0uMDI2VjUuMjU2YS4xMTcuMTE3LDAsMCwwLS4xMTUtLjExOEEuMDgyLjA4MiwwLDAsMCwxMy45NTksNS4xNFoiLz48L2c+PC9nPjwvc3ZnPg==;fontFamily=Tahoma;fontSize=10;" parent="1" vertex="1">
          <mxGeometry x="500" y="30" width="40" height="40" as="geometry" />
        </mxCell>
        <mxCell id="IkQXpn9ixrnxDfD2KMmo-13" value="mil-x-fee-calculator-ca" style="shape=image;verticalLabelPosition=bottom;labelBackgroundColor=none;verticalAlign=top;aspect=fixed;imageAspect=0;image=data:image/svg+xml,PHN2ZyB4bWxucz0iaHR0cDovL3d3dy53My5vcmcvMjAwMC9zdmciIHZpZXdCb3g9IjAgMCAxOCAxOCIgaGVpZ2h0PSIxOCIgd2lkdGg9IjE4Ij48ZGVmcz48bGluZWFyR3JhZGllbnQgZ3JhZGllbnRVbml0cz0idXNlclNwYWNlT25Vc2UiIHkyPSI4LjcwMyIgeDI9IjE0LjY4MyIgeTE9IjguNzAzIiB4MT0iOC43OTgiIGlkPSJiMjdmMWFkMC03ZDExLTQyNDctOWRhMy05MWJjZTYyMTFmMzIiPjxzdG9wIHN0b3AtY29sb3I9IiM3NzNhZGMiIG9mZnNldD0iMC4wMDEiLz48c3RvcCBzdG9wLWNvbG9yPSIjNTUyZjk5IiBvZmZzZXQ9IjEiLz48L2xpbmVhckdyYWRpZW50PjxsaW5lYXJHcmFkaWVudCBncmFkaWVudFVuaXRzPSJ1c2VyU3BhY2VPblVzZSIgeTI9IjEzLjc4IiB4Mj0iNS43NjQiIHkxPSIzLjc3NyIgeDE9IjUuNzY0IiBpZD0iYjJmOTIxMTItNGNhOS00YjE3LWEwMTktYzlmMjZjMWE0YThmIj48c3RvcCBzdG9wLWNvbG9yPSIjYTY3YWY0IiBvZmZzZXQ9IjAiLz48c3RvcCBzdG9wLWNvbG9yPSIjNzczYWRjIiBvZmZzZXQ9IjAuOTk5Ii8+PC9saW5lYXJHcmFkaWVudD48L2RlZnM+PGcgaWQ9ImI4YTA0ODZhLTU1MDEtNGQ5Mi1iNTQwLWE3NjZjNGIzYjU0OCI+PGc+PGc+PGc+PHBhdGggZmlsbD0iIzMyYmVkZCIgZD0iTTE2LjkzMiwxMS41NzhhOC40NDgsOC40NDgsMCwwLDEtNy45NSw1LjU5LDguMTUsOC4xNSwwLDAsMS0yLjMzLS4zMywyLjEzMywyLjEzMywwLDAsMCwuMTgtLjgzYy4wMSwwLC4wMy4wMS4wNC4wMWE3LjQyMiw3LjQyMiwwLDAsMCwyLjExLjMsNy42NDYsNy42NDYsMCwwLDAsNi44NS00LjI4bC4wMS0uMDFaIi8+PHBhdGggZmlsbD0iIzMyYmVkZCIgZD0iTTMuNTgyLDE0LjA2OGEyLjAyNSwyLjAyNSwwLDAsMC0uNjQuNTYsOC42LDguNiwwLDAsMS0xLjY3LTIuNDRsMS4wNC4yM3YuMjZhLjYuNiwwLDAsMCwuNDcuNTlsLjE0LjAzYTYuMTM2LDYuMTM2LDAsMCwwLC42Mi43M1oiLz48cGF0aCBmaWxsPSIjMzJiZWRkIiBkPSJNMTIuMzUyLjk1OGEyLjI4LDIuMjgsMCwwLDAtLjI3LjgxYy0uMDItLjAxLS4wNS0uMDItLjA3LS4wM2E3LjQ3OSw3LjQ3OSwwLDAsMC0zLjAzLS42Myw3LjY0Myw3LjY0MywwLDAsMC01LjksMi44bC0uMjkuMDZhLjYuNiwwLDAsMC0uNDguNTh2LjQ2bC0xLjAyLjE5QTguNDU0LDguNDU0LDAsMCwxLDguOTgyLjI2OCw4LjYsOC42LDAsMCwxLDEyLjM1Mi45NThaIi8+PHBhdGggZmlsbD0iIzMyYmVkZCIgZD0iTTE2Ljg3Miw1LjdsLTEuMDktLjM4YTYuNiw2LjYsMCwwLDAtLjcyLTEuMTZjLS4wMi0uMDMtLjA0LS4wNS0uMDUtLjA3YTIuMDgzLDIuMDgzLDAsMCwwLC43Mi0uNDVBNy44MSw3LjgxLDAsMCwxLDE2Ljg3Miw1LjdaIi8+PHBhdGggZmlsbD0iI2ZmZiIgZD0iTTEwLjA3MiwxMS45MDhsMi41NC41Nkw4LjY3MiwxNC4xYy0uMDIsMC0uMDMuMDEtLjA1LjAxYS4xNTQuMTU0LDAsMCwxLS4xNS0uMTVWMy40NDhhLjE1NC4xNTQsMCwwLDEsLjE1LS4xNS4wOS4wOSwwLDAsMSwuMDUuMDFsNC40NiwxLjU2LTMuMDUuNTdhLjU2NS41NjUsMCwwLDAtLjQ0LjU0djUuNEEuNTM3LjUzNywwLDAsMCwxMC4wNzIsMTEuOTA4WiIvPjxnPjxnIGlkPSJlOTE4ZjI4Ni01MDMyLTQ5NDItYWQyOS1lYTE3ZTZmMWNjOTAiPjxwYXRoIGZpbGw9IiNhNjdhZjQiIGQ9Ik0xLjEsNS42NjhsMS4yMS0uMjN2Ni41NWwtMS4yMy0uMjctLjk5LS4yMmEuMTExLjExMSwwLDAsMS0uMDktLjEydi01LjRhLjEyLjEyLDAsMCwxLC4wOS0uMTJaIi8+PC9nPjxnPjxnIGlkPSJhNDdhOTlkZC00ZDQ3LTRjNzAtOGM0Mi1jNWFjMjc0Y2U0OTYiPjxnPjxwYXRoIGZpbGw9InVybCgjYjI3ZjFhZDAtN2QxMS00MjQ3LTlkYTMtOTFiY2U2MjExZjMyKSIgZD0iTTEwLjA3MiwxMS45MDhsMi41NC41Nkw4LjY3MiwxNC4xYy0uMDIsMC0uMDMuMDEtLjA1LjAxYS4xNTQuMTU0LDAsMCwxLS4xNS0uMTVWMy40NDhhLjE1NC4xNTQsMCwwLDEsLjE1LS4xNS4wOS4wOSwwLDAsMSwuMDUuMDFsNC40NiwxLjU2LTMuMDUuNTdhLjU2NS41NjUsMCwwLDAtLjQ0LjU0djUuNEEuNTM3LjUzNywwLDAsMCwxMC4wNzIsMTEuOTA4WiIvPjxwYXRoIGZpbGw9InVybCgjYjJmOTIxMTItNGNhOS00YjE3LWEwMTktYzlmMjZjMWE0YThmKSIgZD0iTTguNTg2LDMuMywyLjg3OCw0LjM3OGEuMTc3LjE3NywwLDAsMC0uMTQuMTc1VjEyLjY4YS4xNzcuMTc3LDAsMCwwLC4xMzcuMTc0TDguNTgxLDE0LjFhLjE3Ni4xNzYsMCwwLDAsLjIxLS4xNzRWMy40NzhBLjE3NS4xNzUsMCwwLDAsOC42MTksMy4zWiIvPjwvZz48L2c+PHBvbHlnb24gb3BhY2l0eT0iMC41IiBmaWxsPSIjYjc5NmY5IiBwb2ludHM9IjUuOTQ4IDQuOTIxIDUuOTQ4IDEyLjQ4MyA3LjkzNCAxMi44MTQgNy45MzQgNC41NjQgNS45NDggNC45MjEiLz48cG9seWdvbiBvcGFjaXR5PSIwLjUiIGZpbGw9IiNiNzk2ZjkiIHBvaW50cz0iMy41MDkgNS4zMjkgMy41MDkgMTEuOTU0IDUuMjM4IDEyLjMxNyA1LjIzOCA1LjAzMSAzLjUwOSA1LjMyOSIvPjwvZz48L2c+PC9nPjxwYXRoIGZpbGw9IiMzMmJlZGQiIGQ9Ik0xNiwyLjA0OGExLjc1NSwxLjc1NSwwLDEsMS0xLjc2LTEuNzZBMS43NTYsMS43NTYsMCwwLDEsMTYsMi4wNDhaIi8+PGNpcmNsZSBmaWxsPSIjMzJiZWRkIiByPSIxLjc1OSIgY3k9IjE1Ljk3MyIgY3g9IjQuNjUiLz48L2c+PHBhdGggZmlsbD0iIzc3M2FkYyIgZD0iTTE4LDYuNjg5djMuODQ0YS4yMjIuMjIyLDAsMCwxLS4xMzMuMmwtLjc2Ni4zMTYtMy4wNywxLjI2OC0uMDExLDBhLjEyNi4xMjYsMCwwLDEtLjAzOCwwLC4xLjEsMCwwLDEtLjEtLjFWNS4yMzRhLjEuMSwwLDAsMSwuMDU0LS4wODhsMCwwLC4wMTksMGEuMDMxLjAzMSwwLDAsMSwuMDE5LDAsLjA1NS4wNTUsMCwwLDEsLjAzNC4wMDhsLjAxMSwwLC4wMTIsMEwxNy4wNSw2LjJsLjguMjgyQS4yMTMuMjEzLDAsMCwxLDE4LDYuNjg5WiIvPjxwYXRoIGZpbGw9IiNhNjdhZjQiIGQ9Ik0xMy45NTksNS4xNGwtMy44LjcxNWEuMTE4LjExOCwwLDAsMC0uMDkzLjExN3Y1LjQwOWEuMTE4LjExOCwwLDAsMCwuMDkxLjExNmwzLjguODMxYS4xMTUuMTE1LDAsMCwwLC4xMzctLjA5LjEwOS4xMDksMCwwLDAsMC0uMDI2VjUuMjU2YS4xMTcuMTE3LDAsMCwwLS4xMTUtLjExOEEuMDgyLjA4MiwwLDAsMCwxMy45NTksNS4xNFoiLz48L2c+PC9nPjwvc3ZnPg==;fontFamily=Tahoma;fontSize=10;" parent="1" vertex="1">
          <mxGeometry x="740" y="30" width="40" height="40" as="geometry" />
        </mxCell>
        <mxCell id="IkQXpn9ixrnxDfD2KMmo-14" value="mil-x-preset-ca" style="shape=image;verticalLabelPosition=bottom;labelBackgroundColor=none;verticalAlign=top;aspect=fixed;imageAspect=0;image=data:image/svg+xml,PHN2ZyB4bWxucz0iaHR0cDovL3d3dy53My5vcmcvMjAwMC9zdmciIHZpZXdCb3g9IjAgMCAxOCAxOCIgaGVpZ2h0PSIxOCIgd2lkdGg9IjE4Ij48ZGVmcz48bGluZWFyR3JhZGllbnQgZ3JhZGllbnRVbml0cz0idXNlclNwYWNlT25Vc2UiIHkyPSI4LjcwMyIgeDI9IjE0LjY4MyIgeTE9IjguNzAzIiB4MT0iOC43OTgiIGlkPSJiMjdmMWFkMC03ZDExLTQyNDctOWRhMy05MWJjZTYyMTFmMzIiPjxzdG9wIHN0b3AtY29sb3I9IiM3NzNhZGMiIG9mZnNldD0iMC4wMDEiLz48c3RvcCBzdG9wLWNvbG9yPSIjNTUyZjk5IiBvZmZzZXQ9IjEiLz48L2xpbmVhckdyYWRpZW50PjxsaW5lYXJHcmFkaWVudCBncmFkaWVudFVuaXRzPSJ1c2VyU3BhY2VPblVzZSIgeTI9IjEzLjc4IiB4Mj0iNS43NjQiIHkxPSIzLjc3NyIgeDE9IjUuNzY0IiBpZD0iYjJmOTIxMTItNGNhOS00YjE3LWEwMTktYzlmMjZjMWE0YThmIj48c3RvcCBzdG9wLWNvbG9yPSIjYTY3YWY0IiBvZmZzZXQ9IjAiLz48c3RvcCBzdG9wLWNvbG9yPSIjNzczYWRjIiBvZmZzZXQ9IjAuOTk5Ii8+PC9saW5lYXJHcmFkaWVudD48L2RlZnM+PGcgaWQ9ImI4YTA0ODZhLTU1MDEtNGQ5Mi1iNTQwLWE3NjZjNGIzYjU0OCI+PGc+PGc+PGc+PHBhdGggZmlsbD0iIzMyYmVkZCIgZD0iTTE2LjkzMiwxMS41NzhhOC40NDgsOC40NDgsMCwwLDEtNy45NSw1LjU5LDguMTUsOC4xNSwwLDAsMS0yLjMzLS4zMywyLjEzMywyLjEzMywwLDAsMCwuMTgtLjgzYy4wMSwwLC4wMy4wMS4wNC4wMWE3LjQyMiw3LjQyMiwwLDAsMCwyLjExLjMsNy42NDYsNy42NDYsMCwwLDAsNi44NS00LjI4bC4wMS0uMDFaIi8+PHBhdGggZmlsbD0iIzMyYmVkZCIgZD0iTTMuNTgyLDE0LjA2OGEyLjAyNSwyLjAyNSwwLDAsMC0uNjQuNTYsOC42LDguNiwwLDAsMS0xLjY3LTIuNDRsMS4wNC4yM3YuMjZhLjYuNiwwLDAsMCwuNDcuNTlsLjE0LjAzYTYuMTM2LDYuMTM2LDAsMCwwLC42Mi43M1oiLz48cGF0aCBmaWxsPSIjMzJiZWRkIiBkPSJNMTIuMzUyLjk1OGEyLjI4LDIuMjgsMCwwLDAtLjI3LjgxYy0uMDItLjAxLS4wNS0uMDItLjA3LS4wM2E3LjQ3OSw3LjQ3OSwwLDAsMC0zLjAzLS42Myw3LjY0Myw3LjY0MywwLDAsMC01LjksMi44bC0uMjkuMDZhLjYuNiwwLDAsMC0uNDguNTh2LjQ2bC0xLjAyLjE5QTguNDU0LDguNDU0LDAsMCwxLDguOTgyLjI2OCw4LjYsOC42LDAsMCwxLDEyLjM1Mi45NThaIi8+PHBhdGggZmlsbD0iIzMyYmVkZCIgZD0iTTE2Ljg3Miw1LjdsLTEuMDktLjM4YTYuNiw2LjYsMCwwLDAtLjcyLTEuMTZjLS4wMi0uMDMtLjA0LS4wNS0uMDUtLjA3YTIuMDgzLDIuMDgzLDAsMCwwLC43Mi0uNDVBNy44MSw3LjgxLDAsMCwxLDE2Ljg3Miw1LjdaIi8+PHBhdGggZmlsbD0iI2ZmZiIgZD0iTTEwLjA3MiwxMS45MDhsMi41NC41Nkw4LjY3MiwxNC4xYy0uMDIsMC0uMDMuMDEtLjA1LjAxYS4xNTQuMTU0LDAsMCwxLS4xNS0uMTVWMy40NDhhLjE1NC4xNTQsMCwwLDEsLjE1LS4xNS4wOS4wOSwwLDAsMSwuMDUuMDFsNC40NiwxLjU2LTMuMDUuNTdhLjU2NS41NjUsMCwwLDAtLjQ0LjU0djUuNEEuNTM3LjUzNywwLDAsMCwxMC4wNzIsMTEuOTA4WiIvPjxnPjxnIGlkPSJlOTE4ZjI4Ni01MDMyLTQ5NDItYWQyOS1lYTE3ZTZmMWNjOTAiPjxwYXRoIGZpbGw9IiNhNjdhZjQiIGQ9Ik0xLjEsNS42NjhsMS4yMS0uMjN2Ni41NWwtMS4yMy0uMjctLjk5LS4yMmEuMTExLjExMSwwLDAsMS0uMDktLjEydi01LjRhLjEyLjEyLDAsMCwxLC4wOS0uMTJaIi8+PC9nPjxnPjxnIGlkPSJhNDdhOTlkZC00ZDQ3LTRjNzAtOGM0Mi1jNWFjMjc0Y2U0OTYiPjxnPjxwYXRoIGZpbGw9InVybCgjYjI3ZjFhZDAtN2QxMS00MjQ3LTlkYTMtOTFiY2U2MjExZjMyKSIgZD0iTTEwLjA3MiwxMS45MDhsMi41NC41Nkw4LjY3MiwxNC4xYy0uMDIsMC0uMDMuMDEtLjA1LjAxYS4xNTQuMTU0LDAsMCwxLS4xNS0uMTVWMy40NDhhLjE1NC4xNTQsMCwwLDEsLjE1LS4xNS4wOS4wOSwwLDAsMSwuMDUuMDFsNC40NiwxLjU2LTMuMDUuNTdhLjU2NS41NjUsMCwwLDAtLjQ0LjU0djUuNEEuNTM3LjUzNywwLDAsMCwxMC4wNzIsMTEuOTA4WiIvPjxwYXRoIGZpbGw9InVybCgjYjJmOTIxMTItNGNhOS00YjE3LWEwMTktYzlmMjZjMWE0YThmKSIgZD0iTTguNTg2LDMuMywyLjg3OCw0LjM3OGEuMTc3LjE3NywwLDAsMC0uMTQuMTc1VjEyLjY4YS4xNzcuMTc3LDAsMCwwLC4xMzcuMTc0TDguNTgxLDE0LjFhLjE3Ni4xNzYsMCwwLDAsLjIxLS4xNzRWMy40NzhBLjE3NS4xNzUsMCwwLDAsOC42MTksMy4zWiIvPjwvZz48L2c+PHBvbHlnb24gb3BhY2l0eT0iMC41IiBmaWxsPSIjYjc5NmY5IiBwb2ludHM9IjUuOTQ4IDQuOTIxIDUuOTQ4IDEyLjQ4MyA3LjkzNCAxMi44MTQgNy45MzQgNC41NjQgNS45NDggNC45MjEiLz48cG9seWdvbiBvcGFjaXR5PSIwLjUiIGZpbGw9IiNiNzk2ZjkiIHBvaW50cz0iMy41MDkgNS4zMjkgMy41MDkgMTEuOTU0IDUuMjM4IDEyLjMxNyA1LjIzOCA1LjAzMSAzLjUwOSA1LjMyOSIvPjwvZz48L2c+PC9nPjxwYXRoIGZpbGw9IiMzMmJlZGQiIGQ9Ik0xNiwyLjA0OGExLjc1NSwxLjc1NSwwLDEsMS0xLjc2LTEuNzZBMS43NTYsMS43NTYsMCwwLDEsMTYsMi4wNDhaIi8+PGNpcmNsZSBmaWxsPSIjMzJiZWRkIiByPSIxLjc1OSIgY3k9IjE1Ljk3MyIgY3g9IjQuNjUiLz48L2c+PHBhdGggZmlsbD0iIzc3M2FkYyIgZD0iTTE4LDYuNjg5djMuODQ0YS4yMjIuMjIyLDAsMCwxLS4xMzMuMmwtLjc2Ni4zMTYtMy4wNywxLjI2OC0uMDExLDBhLjEyNi4xMjYsMCwwLDEtLjAzOCwwLC4xLjEsMCwwLDEtLjEtLjFWNS4yMzRhLjEuMSwwLDAsMSwuMDU0LS4wODhsMCwwLC4wMTksMGEuMDMxLjAzMSwwLDAsMSwuMDE5LDAsLjA1NS4wNTUsMCwwLDEsLjAzNC4wMDhsLjAxMSwwLC4wMTIsMEwxNy4wNSw2LjJsLjguMjgyQS4yMTMuMjEzLDAsMCwxLDE4LDYuNjg5WiIvPjxwYXRoIGZpbGw9IiNhNjdhZjQiIGQ9Ik0xMy45NTksNS4xNGwtMy44LjcxNWEuMTE4LjExOCwwLDAsMC0uMDkzLjExN3Y1LjQwOWEuMTE4LjExOCwwLDAsMCwuMDkxLjExNmwzLjguODMxYS4xMTUuMTE1LDAsMCwwLC4xMzctLjA5LjEwOS4xMDksMCwwLDAsMC0uMDI2VjUuMjU2YS4xMTcuMTE3LDAsMCwwLS4xMTUtLjExOEEuMDgyLjA4MiwwLDAsMCwxMy45NTksNS4xNFoiLz48L2c+PC9nPjwvc3ZnPg==;fontFamily=Tahoma;fontSize=10;" parent="1" vertex="1">
          <mxGeometry x="860" y="30" width="40" height="40" as="geometry" />
        </mxCell>
        <mxCell id="IkQXpn9ixrnxDfD2KMmo-15" value="mil-x-idpay-ca" style="shape=image;verticalLabelPosition=bottom;labelBackgroundColor=none;verticalAlign=top;aspect=fixed;imageAspect=0;image=data:image/svg+xml,PHN2ZyB4bWxucz0iaHR0cDovL3d3dy53My5vcmcvMjAwMC9zdmciIHZpZXdCb3g9IjAgMCAxOCAxOCIgaGVpZ2h0PSIxOCIgd2lkdGg9IjE4Ij48ZGVmcz48bGluZWFyR3JhZGllbnQgZ3JhZGllbnRVbml0cz0idXNlclNwYWNlT25Vc2UiIHkyPSI4LjcwMyIgeDI9IjE0LjY4MyIgeTE9IjguNzAzIiB4MT0iOC43OTgiIGlkPSJiMjdmMWFkMC03ZDExLTQyNDctOWRhMy05MWJjZTYyMTFmMzIiPjxzdG9wIHN0b3AtY29sb3I9IiM3NzNhZGMiIG9mZnNldD0iMC4wMDEiLz48c3RvcCBzdG9wLWNvbG9yPSIjNTUyZjk5IiBvZmZzZXQ9IjEiLz48L2xpbmVhckdyYWRpZW50PjxsaW5lYXJHcmFkaWVudCBncmFkaWVudFVuaXRzPSJ1c2VyU3BhY2VPblVzZSIgeTI9IjEzLjc4IiB4Mj0iNS43NjQiIHkxPSIzLjc3NyIgeDE9IjUuNzY0IiBpZD0iYjJmOTIxMTItNGNhOS00YjE3LWEwMTktYzlmMjZjMWE0YThmIj48c3RvcCBzdG9wLWNvbG9yPSIjYTY3YWY0IiBvZmZzZXQ9IjAiLz48c3RvcCBzdG9wLWNvbG9yPSIjNzczYWRjIiBvZmZzZXQ9IjAuOTk5Ii8+PC9saW5lYXJHcmFkaWVudD48L2RlZnM+PGcgaWQ9ImI4YTA0ODZhLTU1MDEtNGQ5Mi1iNTQwLWE3NjZjNGIzYjU0OCI+PGc+PGc+PGc+PHBhdGggZmlsbD0iIzMyYmVkZCIgZD0iTTE2LjkzMiwxMS41NzhhOC40NDgsOC40NDgsMCwwLDEtNy45NSw1LjU5LDguMTUsOC4xNSwwLDAsMS0yLjMzLS4zMywyLjEzMywyLjEzMywwLDAsMCwuMTgtLjgzYy4wMSwwLC4wMy4wMS4wNC4wMWE3LjQyMiw3LjQyMiwwLDAsMCwyLjExLjMsNy42NDYsNy42NDYsMCwwLDAsNi44NS00LjI4bC4wMS0uMDFaIi8+PHBhdGggZmlsbD0iIzMyYmVkZCIgZD0iTTMuNTgyLDE0LjA2OGEyLjAyNSwyLjAyNSwwLDAsMC0uNjQuNTYsOC42LDguNiwwLDAsMS0xLjY3LTIuNDRsMS4wNC4yM3YuMjZhLjYuNiwwLDAsMCwuNDcuNTlsLjE0LjAzYTYuMTM2LDYuMTM2LDAsMCwwLC42Mi43M1oiLz48cGF0aCBmaWxsPSIjMzJiZWRkIiBkPSJNMTIuMzUyLjk1OGEyLjI4LDIuMjgsMCwwLDAtLjI3LjgxYy0uMDItLjAxLS4wNS0uMDItLjA3LS4wM2E3LjQ3OSw3LjQ3OSwwLDAsMC0zLjAzLS42Myw3LjY0Myw3LjY0MywwLDAsMC01LjksMi44bC0uMjkuMDZhLjYuNiwwLDAsMC0uNDguNTh2LjQ2bC0xLjAyLjE5QTguNDU0LDguNDU0LDAsMCwxLDguOTgyLjI2OCw4LjYsOC42LDAsMCwxLDEyLjM1Mi45NThaIi8+PHBhdGggZmlsbD0iIzMyYmVkZCIgZD0iTTE2Ljg3Miw1LjdsLTEuMDktLjM4YTYuNiw2LjYsMCwwLDAtLjcyLTEuMTZjLS4wMi0uMDMtLjA0LS4wNS0uMDUtLjA3YTIuMDgzLDIuMDgzLDAsMCwwLC43Mi0uNDVBNy44MSw3LjgxLDAsMCwxLDE2Ljg3Miw1LjdaIi8+PHBhdGggZmlsbD0iI2ZmZiIgZD0iTTEwLjA3MiwxMS45MDhsMi41NC41Nkw4LjY3MiwxNC4xYy0uMDIsMC0uMDMuMDEtLjA1LjAxYS4xNTQuMTU0LDAsMCwxLS4xNS0uMTVWMy40NDhhLjE1NC4xNTQsMCwwLDEsLjE1LS4xNS4wOS4wOSwwLDAsMSwuMDUuMDFsNC40NiwxLjU2LTMuMDUuNTdhLjU2NS41NjUsMCwwLDAtLjQ0LjU0djUuNEEuNTM3LjUzNywwLDAsMCwxMC4wNzIsMTEuOTA4WiIvPjxnPjxnIGlkPSJlOTE4ZjI4Ni01MDMyLTQ5NDItYWQyOS1lYTE3ZTZmMWNjOTAiPjxwYXRoIGZpbGw9IiNhNjdhZjQiIGQ9Ik0xLjEsNS42NjhsMS4yMS0uMjN2Ni41NWwtMS4yMy0uMjctLjk5LS4yMmEuMTExLjExMSwwLDAsMS0uMDktLjEydi01LjRhLjEyLjEyLDAsMCwxLC4wOS0uMTJaIi8+PC9nPjxnPjxnIGlkPSJhNDdhOTlkZC00ZDQ3LTRjNzAtOGM0Mi1jNWFjMjc0Y2U0OTYiPjxnPjxwYXRoIGZpbGw9InVybCgjYjI3ZjFhZDAtN2QxMS00MjQ3LTlkYTMtOTFiY2U2MjExZjMyKSIgZD0iTTEwLjA3MiwxMS45MDhsMi41NC41Nkw4LjY3MiwxNC4xYy0uMDIsMC0uMDMuMDEtLjA1LjAxYS4xNTQuMTU0LDAsMCwxLS4xNS0uMTVWMy40NDhhLjE1NC4xNTQsMCwwLDEsLjE1LS4xNS4wOS4wOSwwLDAsMSwuMDUuMDFsNC40NiwxLjU2LTMuMDUuNTdhLjU2NS41NjUsMCwwLDAtLjQ0LjU0djUuNEEuNTM3LjUzNywwLDAsMCwxMC4wNzIsMTEuOTA4WiIvPjxwYXRoIGZpbGw9InVybCgjYjJmOTIxMTItNGNhOS00YjE3LWEwMTktYzlmMjZjMWE0YThmKSIgZD0iTTguNTg2LDMuMywyLjg3OCw0LjM3OGEuMTc3LjE3NywwLDAsMC0uMTQuMTc1VjEyLjY4YS4xNzcuMTc3LDAsMCwwLC4xMzcuMTc0TDguNTgxLDE0LjFhLjE3Ni4xNzYsMCwwLDAsLjIxLS4xNzRWMy40NzhBLjE3NS4xNzUsMCwwLDAsOC42MTksMy4zWiIvPjwvZz48L2c+PHBvbHlnb24gb3BhY2l0eT0iMC41IiBmaWxsPSIjYjc5NmY5IiBwb2ludHM9IjUuOTQ4IDQuOTIxIDUuOTQ4IDEyLjQ4MyA3LjkzNCAxMi44MTQgNy45MzQgNC41NjQgNS45NDggNC45MjEiLz48cG9seWdvbiBvcGFjaXR5PSIwLjUiIGZpbGw9IiNiNzk2ZjkiIHBvaW50cz0iMy41MDkgNS4zMjkgMy41MDkgMTEuOTU0IDUuMjM4IDEyLjMxNyA1LjIzOCA1LjAzMSAzLjUwOSA1LjMyOSIvPjwvZz48L2c+PC9nPjxwYXRoIGZpbGw9IiMzMmJlZGQiIGQ9Ik0xNiwyLjA0OGExLjc1NSwxLjc1NSwwLDEsMS0xLjc2LTEuNzZBMS43NTYsMS43NTYsMCwwLDEsMTYsMi4wNDhaIi8+PGNpcmNsZSBmaWxsPSIjMzJiZWRkIiByPSIxLjc1OSIgY3k9IjE1Ljk3MyIgY3g9IjQuNjUiLz48L2c+PHBhdGggZmlsbD0iIzc3M2FkYyIgZD0iTTE4LDYuNjg5djMuODQ0YS4yMjIuMjIyLDAsMCwxLS4xMzMuMmwtLjc2Ni4zMTYtMy4wNywxLjI2OC0uMDExLDBhLjEyNi4xMjYsMCwwLDEtLjAzOCwwLC4xLjEsMCwwLDEtLjEtLjFWNS4yMzRhLjEuMSwwLDAsMSwuMDU0LS4wODhsMCwwLC4wMTksMGEuMDMxLjAzMSwwLDAsMSwuMDE5LDAsLjA1NS4wNTUsMCwwLDEsLjAzNC4wMDhsLjAxMSwwLC4wMTIsMEwxNy4wNSw2LjJsLjguMjgyQS4yMTMuMjEzLDAsMCwxLDE4LDYuNjg5WiIvPjxwYXRoIGZpbGw9IiNhNjdhZjQiIGQ9Ik0xMy45NTksNS4xNGwtMy44LjcxNWEuMTE4LjExOCwwLDAsMC0uMDkzLjExN3Y1LjQwOWEuMTE4LjExOCwwLDAsMCwuMDkxLjExNmwzLjguODMxYS4xMTUuMTE1LDAsMCwwLC4xMzctLjA5LjEwOS4xMDksMCwwLDAsMC0uMDI2VjUuMjU2YS4xMTcuMTE3LDAsMCwwLS4xMTUtLjExOEEuMDgyLjA4MiwwLDAsMCwxMy45NTksNS4xNFoiLz48L2c+PC9nPjwvc3ZnPg==;fontFamily=Tahoma;fontSize=10;" parent="1" vertex="1">
          <mxGeometry x="620" y="30" width="40" height="40" as="geometry" />
        </mxCell>
        <mxCell id="IkQXpn9ixrnxDfD2KMmo-18" value="" style="shape=image;verticalLabelPosition=bottom;labelBackgroundColor=none;verticalAlign=top;aspect=fixed;imageAspect=0;image=data:image/svg+xml,PHN2ZyB4bWxucz0iaHR0cDovL3d3dy53My5vcmcvMjAwMC9zdmciIHZpZXdCb3g9IjAgMCAxOCAxOCIgaGVpZ2h0PSIxOCIgd2lkdGg9IjE4IiBpZD0iZjgwN2NkZGUtMThmMi00NTc0LWJhMTQtZjBiMWVlZjk0YTRhIj48ZGVmcz48bGluZWFyR3JhZGllbnQgZ3JhZGllbnRVbml0cz0idXNlclNwYWNlT25Vc2UiIHkyPSI0LjM4IiB4Mj0iOC42MyIgeTE9IjEzLjAxIiB4MT0iMTMuMTgiIGlkPSJiYjY3YjE1NC1hZjhmLTRhNTMtYTljZS1hYTA0NmI5Mzk4ZTkiPjxzdG9wIHN0b3AtY29sb3I9IiMxOTg4ZDkiIG9mZnNldD0iMCIvPjxzdG9wIHN0b3AtY29sb3I9IiM1NGFlZjAiIG9mZnNldD0iMC45Ii8+PC9saW5lYXJHcmFkaWVudD48bGluZWFyR3JhZGllbnQgZ3JhZGllbnRVbml0cz0idXNlclNwYWNlT25Vc2UiIHkyPSIxNS45MyIgeDI9IjE0LjM3IiB5MT0iMTAuNSIgeDE9IjExLjIyIiBpZD0iYTQ3ZDcxMzgtMDg0YS00NzFkLThkNjMtNzQ0ZTc1YjllOGEzIj48c3RvcCBzdG9wLWNvbG9yPSIjNTRhZWYwIiBvZmZzZXQ9IjAuMSIvPjxzdG9wIHN0b3AtY29sb3I9IiM0ZmFiZWUiIG9mZnNldD0iMC4yOSIvPjxzdG9wIHN0b3AtY29sb3I9IiM0MWEyZTkiIG9mZnNldD0iMC41MSIvPjxzdG9wIHN0b3AtY29sb3I9IiMyYTkzZTAiIG9mZnNldD0iMC43NCIvPjxzdG9wIHN0b3AtY29sb3I9IiMxOTg4ZDkiIG9mZnNldD0iMC44OCIvPjwvbGluZWFyR3JhZGllbnQ+PC9kZWZzPjx0aXRsZT5JY29uLWlkZW50aXR5LTIyNzwvdGl0bGU+PGc+PHBvbHlnb24gZmlsbD0iIzUwZTZmZiIgcG9pbnRzPSIxLjE1IDEwLjIyIDguOTMgMTUuMjcgMTYuODUgMTAuMjEgMTcuODUgMTEuMzYgOC45MyAxNy4xMSAwLjE1IDExLjM3IDEuMTUgMTAuMjIiLz48cG9seWdvbiBmaWxsPSIjZmZmIiBwb2ludHM9IjEuNzMgOS41OCA4LjkzIDEgMTYuMjggOS41OSA4LjkzIDE0LjIzIDEuNzMgOS41OCIvPjxwb2x5Z29uIGZpbGw9IiM1MGU2ZmYiIHBvaW50cz0iOC45MyAxIDguOTMgMTQuMjMgMS43MyA5LjU4IDguOTMgMSIvPjxwb2x5Z29uIGZpbGw9InVybCgjYmI2N2IxNTQtYWY4Zi00YTUzLWE5Y2UtYWEwNDZiOTM5OGU5KSIgcG9pbnRzPSI4LjkzIDEgOC45MyAxNC4yMyAxNi4yOCA5LjU5IDguOTMgMSIvPjxwb2x5Z29uIGZpbGw9IiM1M2IxZTAiIHBvaW50cz0iOC45MyA3LjgzIDE2LjI4IDkuNTkgOC45MyAxNC4yMyA4LjkzIDcuODMiLz48cG9seWdvbiBmaWxsPSIjOWNlYmZmIiBwb2ludHM9IjguOTMgMTQuMjMgMS43MyA5LjU4IDguOTMgNy44MyA4LjkzIDE0LjIzIi8+PHBvbHlnb24gZmlsbD0idXJsKCNhNDdkNzEzOC0wODRhLTQ3MWQtOGQ2My03NDRlNzViOWU4YTMpIiBwb2ludHM9IjguOTMgMTcuMTEgMTcuODUgMTEuMzYgMTYuODUgMTAuMjEgOC45MyAxNS4yNyA4LjkzIDE3LjExIi8+PGc+PHBhdGggZmlsbD0iI2ZmY2EwMCIgZD0iTTE2LjMyLDExLjg4YTEuMTYsMS4xNiwwLDAsMCwwLTEuNjVoMGwtMi0yYTEuMTYsMS4xNiwwLDAsMC0xLjY0LDBoMGwtMiwyYTEuMTgsMS4xOCwwLDAsMCwwLDEuNjVsMS42NywxLjY3YS4zMi4zMiwwLDAsMSwuMDkuMjN2My4xYS4zNi4zNiwwLDAsMCwuMTIuMjhsLjc2Ljc2YS4yNS4yNSwwLDAsMCwuMzcsMGwuNzMtLjczaDBsLjQ0LS40NGEuMTUuMTUsMCwwLDAsMC0uMjFsLS4zMS0uMzFhLjE2LjE2LDAsMCwxLDAtLjI0bC4zMS0uMzFhLjE2LjE2LDAsMCwwLDAtLjIybC0uMzEtLjMxYS4xNS4xNSwwLDAsMSwwLS4yM2wuMzEtLjMyYS4xNS4xNSwwLDAsMCwwLS4yMWwtLjQ0LS40NHYtLjE2Wk0xMy41LDguNzFhLjY2LjY2LDAsMSwxLS42Ni42Ni42Ni42NiwwLDAsMSwuNjYtLjY2WiIgaWQ9ImUxODlhNjFmLTYzMWEtNDEyMi1iYjJiLTA3OWU4NjAwNGQ5NiIvPjxwYXRoIG9wYWNpdHk9IjAuNzUiIGZpbGw9IiNmZjkzMDAiIGQ9Ik0xMywxN2gwYS4xNC4xNCwwLDAsMCwuMjQtLjExVjE0LjMzYS4xNi4xNiwwLDAsMC0uMDYtLjEzaDBhLjE0LjE0LDAsMCwwLS4yMi4xM3YyLjUxQS4xNS4xNSwwLDAsMCwxMywxN1oiIGlkPSJmYjcwMzNlZS00NjUwLTQ4ODYtODBjNy1lZGRmNjI1NjBmODUiLz48cmVjdCBvcGFjaXR5PSIwLjc1IiBmaWxsPSIjZmY5MzAwIiByeD0iMC4xOCIgaGVpZ2h0PSIwLjM5IiB3aWR0aD0iMy4yOSIgeT0iMTAuOSIgeD0iMTEuOSIgaWQ9ImIxNjZiOGMyLWI5ZWUtNGMzZC1iZjdhLTc3YmQ1Y2UwNTcwYiIvPjxyZWN0IG9wYWNpdHk9IjAuNzUiIGZpbGw9IiNmZjkzMDAiIHJ4PSIwLjE4IiBoZWlnaHQ9IjAuMzkiIHdpZHRoPSIzLjI5IiB5PSIxMS41MyIgeD0iMTEuOSIgaWQ9ImJhZjQzN2ZlLTM0ODMtNGEyNS05NGJhLTFlODRhNjRjZDJlYiIvPjwvZz48L2c+PC9zdmc+;fontFamily=Tahoma;fontSize=10;" parent="1" vertex="1">
          <mxGeometry x="420" y="10" width="20" height="20" as="geometry" />
        </mxCell>
        <mxCell id="IkQXpn9ixrnxDfD2KMmo-19" value="" style="shape=image;verticalLabelPosition=bottom;labelBackgroundColor=none;verticalAlign=top;aspect=fixed;imageAspect=0;image=data:image/svg+xml,PHN2ZyB4bWxucz0iaHR0cDovL3d3dy53My5vcmcvMjAwMC9zdmciIHZpZXdCb3g9IjAgMCAxOCAxOCIgaGVpZ2h0PSIxOCIgd2lkdGg9IjE4IiBpZD0iZjgwN2NkZGUtMThmMi00NTc0LWJhMTQtZjBiMWVlZjk0YTRhIj48ZGVmcz48bGluZWFyR3JhZGllbnQgZ3JhZGllbnRVbml0cz0idXNlclNwYWNlT25Vc2UiIHkyPSI0LjM4IiB4Mj0iOC42MyIgeTE9IjEzLjAxIiB4MT0iMTMuMTgiIGlkPSJiYjY3YjE1NC1hZjhmLTRhNTMtYTljZS1hYTA0NmI5Mzk4ZTkiPjxzdG9wIHN0b3AtY29sb3I9IiMxOTg4ZDkiIG9mZnNldD0iMCIvPjxzdG9wIHN0b3AtY29sb3I9IiM1NGFlZjAiIG9mZnNldD0iMC45Ii8+PC9saW5lYXJHcmFkaWVudD48bGluZWFyR3JhZGllbnQgZ3JhZGllbnRVbml0cz0idXNlclNwYWNlT25Vc2UiIHkyPSIxNS45MyIgeDI9IjE0LjM3IiB5MT0iMTAuNSIgeDE9IjExLjIyIiBpZD0iYTQ3ZDcxMzgtMDg0YS00NzFkLThkNjMtNzQ0ZTc1YjllOGEzIj48c3RvcCBzdG9wLWNvbG9yPSIjNTRhZWYwIiBvZmZzZXQ9IjAuMSIvPjxzdG9wIHN0b3AtY29sb3I9IiM0ZmFiZWUiIG9mZnNldD0iMC4yOSIvPjxzdG9wIHN0b3AtY29sb3I9IiM0MWEyZTkiIG9mZnNldD0iMC41MSIvPjxzdG9wIHN0b3AtY29sb3I9IiMyYTkzZTAiIG9mZnNldD0iMC43NCIvPjxzdG9wIHN0b3AtY29sb3I9IiMxOTg4ZDkiIG9mZnNldD0iMC44OCIvPjwvbGluZWFyR3JhZGllbnQ+PC9kZWZzPjx0aXRsZT5JY29uLWlkZW50aXR5LTIyNzwvdGl0bGU+PGc+PHBvbHlnb24gZmlsbD0iIzUwZTZmZiIgcG9pbnRzPSIxLjE1IDEwLjIyIDguOTMgMTUuMjcgMTYuODUgMTAuMjEgMTcuODUgMTEuMzYgOC45MyAxNy4xMSAwLjE1IDExLjM3IDEuMTUgMTAuMjIiLz48cG9seWdvbiBmaWxsPSIjZmZmIiBwb2ludHM9IjEuNzMgOS41OCA4LjkzIDEgMTYuMjggOS41OSA4LjkzIDE0LjIzIDEuNzMgOS41OCIvPjxwb2x5Z29uIGZpbGw9IiM1MGU2ZmYiIHBvaW50cz0iOC45MyAxIDguOTMgMTQuMjMgMS43MyA5LjU4IDguOTMgMSIvPjxwb2x5Z29uIGZpbGw9InVybCgjYmI2N2IxNTQtYWY4Zi00YTUzLWE5Y2UtYWEwNDZiOTM5OGU5KSIgcG9pbnRzPSI4LjkzIDEgOC45MyAxNC4yMyAxNi4yOCA5LjU5IDguOTMgMSIvPjxwb2x5Z29uIGZpbGw9IiM1M2IxZTAiIHBvaW50cz0iOC45MyA3LjgzIDE2LjI4IDkuNTkgOC45MyAxNC4yMyA4LjkzIDcuODMiLz48cG9seWdvbiBmaWxsPSIjOWNlYmZmIiBwb2ludHM9IjguOTMgMTQuMjMgMS43MyA5LjU4IDguOTMgNy44MyA4LjkzIDE0LjIzIi8+PHBvbHlnb24gZmlsbD0idXJsKCNhNDdkNzEzOC0wODRhLTQ3MWQtOGQ2My03NDRlNzViOWU4YTMpIiBwb2ludHM9IjguOTMgMTcuMTEgMTcuODUgMTEuMzYgMTYuODUgMTAuMjEgOC45MyAxNS4yNyA4LjkzIDE3LjExIi8+PGc+PHBhdGggZmlsbD0iI2ZmY2EwMCIgZD0iTTE2LjMyLDExLjg4YTEuMTYsMS4xNiwwLDAsMCwwLTEuNjVoMGwtMi0yYTEuMTYsMS4xNiwwLDAsMC0xLjY0LDBoMGwtMiwyYTEuMTgsMS4xOCwwLDAsMCwwLDEuNjVsMS42NywxLjY3YS4zMi4zMiwwLDAsMSwuMDkuMjN2My4xYS4zNi4zNiwwLDAsMCwuMTIuMjhsLjc2Ljc2YS4yNS4yNSwwLDAsMCwuMzcsMGwuNzMtLjczaDBsLjQ0LS40NGEuMTUuMTUsMCwwLDAsMC0uMjFsLS4zMS0uMzFhLjE2LjE2LDAsMCwxLDAtLjI0bC4zMS0uMzFhLjE2LjE2LDAsMCwwLDAtLjIybC0uMzEtLjMxYS4xNS4xNSwwLDAsMSwwLS4yM2wuMzEtLjMyYS4xNS4xNSwwLDAsMCwwLS4yMWwtLjQ0LS40NHYtLjE2Wk0xMy41LDguNzFhLjY2LjY2LDAsMSwxLS42Ni42Ni42Ni42NiwwLDAsMSwuNjYtLjY2WiIgaWQ9ImUxODlhNjFmLTYzMWEtNDEyMi1iYjJiLTA3OWU4NjAwNGQ5NiIvPjxwYXRoIG9wYWNpdHk9IjAuNzUiIGZpbGw9IiNmZjkzMDAiIGQ9Ik0xMywxN2gwYS4xNC4xNCwwLDAsMCwuMjQtLjExVjE0LjMzYS4xNi4xNiwwLDAsMC0uMDYtLjEzaDBhLjE0LjE0LDAsMCwwLS4yMi4xM3YyLjUxQS4xNS4xNSwwLDAsMCwxMywxN1oiIGlkPSJmYjcwMzNlZS00NjUwLTQ4ODYtODBjNy1lZGRmNjI1NjBmODUiLz48cmVjdCBvcGFjaXR5PSIwLjc1IiBmaWxsPSIjZmY5MzAwIiByeD0iMC4xOCIgaGVpZ2h0PSIwLjM5IiB3aWR0aD0iMy4yOSIgeT0iMTAuOSIgeD0iMTEuOSIgaWQ9ImIxNjZiOGMyLWI5ZWUtNGMzZC1iZjdhLTc3YmQ1Y2UwNTcwYiIvPjxyZWN0IG9wYWNpdHk9IjAuNzUiIGZpbGw9IiNmZjkzMDAiIHJ4PSIwLjE4IiBoZWlnaHQ9IjAuMzkiIHdpZHRoPSIzLjI5IiB5PSIxMS41MyIgeD0iMTEuOSIgaWQ9ImJhZjQzN2ZlLTM0ODMtNGEyNS05NGJhLTFlODRhNjRjZDJlYiIvPjwvZz48L2c+PC9zdmc+;fontFamily=Tahoma;fontSize=10;" parent="1" vertex="1">
          <mxGeometry x="540" y="10" width="20" height="20" as="geometry" />
        </mxCell>
        <mxCell id="IkQXpn9ixrnxDfD2KMmo-20" value="" style="shape=image;verticalLabelPosition=bottom;labelBackgroundColor=none;verticalAlign=top;aspect=fixed;imageAspect=0;image=data:image/svg+xml,PHN2ZyB4bWxucz0iaHR0cDovL3d3dy53My5vcmcvMjAwMC9zdmciIHZpZXdCb3g9IjAgMCAxOCAxOCIgaGVpZ2h0PSIxOCIgd2lkdGg9IjE4IiBpZD0iZjgwN2NkZGUtMThmMi00NTc0LWJhMTQtZjBiMWVlZjk0YTRhIj48ZGVmcz48bGluZWFyR3JhZGllbnQgZ3JhZGllbnRVbml0cz0idXNlclNwYWNlT25Vc2UiIHkyPSI0LjM4IiB4Mj0iOC42MyIgeTE9IjEzLjAxIiB4MT0iMTMuMTgiIGlkPSJiYjY3YjE1NC1hZjhmLTRhNTMtYTljZS1hYTA0NmI5Mzk4ZTkiPjxzdG9wIHN0b3AtY29sb3I9IiMxOTg4ZDkiIG9mZnNldD0iMCIvPjxzdG9wIHN0b3AtY29sb3I9IiM1NGFlZjAiIG9mZnNldD0iMC45Ii8+PC9saW5lYXJHcmFkaWVudD48bGluZWFyR3JhZGllbnQgZ3JhZGllbnRVbml0cz0idXNlclNwYWNlT25Vc2UiIHkyPSIxNS45MyIgeDI9IjE0LjM3IiB5MT0iMTAuNSIgeDE9IjExLjIyIiBpZD0iYTQ3ZDcxMzgtMDg0YS00NzFkLThkNjMtNzQ0ZTc1YjllOGEzIj48c3RvcCBzdG9wLWNvbG9yPSIjNTRhZWYwIiBvZmZzZXQ9IjAuMSIvPjxzdG9wIHN0b3AtY29sb3I9IiM0ZmFiZWUiIG9mZnNldD0iMC4yOSIvPjxzdG9wIHN0b3AtY29sb3I9IiM0MWEyZTkiIG9mZnNldD0iMC41MSIvPjxzdG9wIHN0b3AtY29sb3I9IiMyYTkzZTAiIG9mZnNldD0iMC43NCIvPjxzdG9wIHN0b3AtY29sb3I9IiMxOTg4ZDkiIG9mZnNldD0iMC44OCIvPjwvbGluZWFyR3JhZGllbnQ+PC9kZWZzPjx0aXRsZT5JY29uLWlkZW50aXR5LTIyNzwvdGl0bGU+PGc+PHBvbHlnb24gZmlsbD0iIzUwZTZmZiIgcG9pbnRzPSIxLjE1IDEwLjIyIDguOTMgMTUuMjcgMTYuODUgMTAuMjEgMTcuODUgMTEuMzYgOC45MyAxNy4xMSAwLjE1IDExLjM3IDEuMTUgMTAuMjIiLz48cG9seWdvbiBmaWxsPSIjZmZmIiBwb2ludHM9IjEuNzMgOS41OCA4LjkzIDEgMTYuMjggOS41OSA4LjkzIDE0LjIzIDEuNzMgOS41OCIvPjxwb2x5Z29uIGZpbGw9IiM1MGU2ZmYiIHBvaW50cz0iOC45MyAxIDguOTMgMTQuMjMgMS43MyA5LjU4IDguOTMgMSIvPjxwb2x5Z29uIGZpbGw9InVybCgjYmI2N2IxNTQtYWY4Zi00YTUzLWE5Y2UtYWEwNDZiOTM5OGU5KSIgcG9pbnRzPSI4LjkzIDEgOC45MyAxNC4yMyAxNi4yOCA5LjU5IDguOTMgMSIvPjxwb2x5Z29uIGZpbGw9IiM1M2IxZTAiIHBvaW50cz0iOC45MyA3LjgzIDE2LjI4IDkuNTkgOC45MyAxNC4yMyA4LjkzIDcuODMiLz48cG9seWdvbiBmaWxsPSIjOWNlYmZmIiBwb2ludHM9IjguOTMgMTQuMjMgMS43MyA5LjU4IDguOTMgNy44MyA4LjkzIDE0LjIzIi8+PHBvbHlnb24gZmlsbD0idXJsKCNhNDdkNzEzOC0wODRhLTQ3MWQtOGQ2My03NDRlNzViOWU4YTMpIiBwb2ludHM9IjguOTMgMTcuMTEgMTcuODUgMTEuMzYgMTYuODUgMTAuMjEgOC45MyAxNS4yNyA4LjkzIDE3LjExIi8+PGc+PHBhdGggZmlsbD0iI2ZmY2EwMCIgZD0iTTE2LjMyLDExLjg4YTEuMTYsMS4xNiwwLDAsMCwwLTEuNjVoMGwtMi0yYTEuMTYsMS4xNiwwLDAsMC0xLjY0LDBoMGwtMiwyYTEuMTgsMS4xOCwwLDAsMCwwLDEuNjVsMS42NywxLjY3YS4zMi4zMiwwLDAsMSwuMDkuMjN2My4xYS4zNi4zNiwwLDAsMCwuMTIuMjhsLjc2Ljc2YS4yNS4yNSwwLDAsMCwuMzcsMGwuNzMtLjczaDBsLjQ0LS40NGEuMTUuMTUsMCwwLDAsMC0uMjFsLS4zMS0uMzFhLjE2LjE2LDAsMCwxLDAtLjI0bC4zMS0uMzFhLjE2LjE2LDAsMCwwLDAtLjIybC0uMzEtLjMxYS4xNS4xNSwwLDAsMSwwLS4yM2wuMzEtLjMyYS4xNS4xNSwwLDAsMCwwLS4yMWwtLjQ0LS40NHYtLjE2Wk0xMy41LDguNzFhLjY2LjY2LDAsMSwxLS42Ni42Ni42Ni42NiwwLDAsMSwuNjYtLjY2WiIgaWQ9ImUxODlhNjFmLTYzMWEtNDEyMi1iYjJiLTA3OWU4NjAwNGQ5NiIvPjxwYXRoIG9wYWNpdHk9IjAuNzUiIGZpbGw9IiNmZjkzMDAiIGQ9Ik0xMywxN2gwYS4xNC4xNCwwLDAsMCwuMjQtLjExVjE0LjMzYS4xNi4xNiwwLDAsMC0uMDYtLjEzaDBhLjE0LjE0LDAsMCwwLS4yMi4xM3YyLjUxQS4xNS4xNSwwLDAsMCwxMywxN1oiIGlkPSJmYjcwMzNlZS00NjUwLTQ4ODYtODBjNy1lZGRmNjI1NjBmODUiLz48cmVjdCBvcGFjaXR5PSIwLjc1IiBmaWxsPSIjZmY5MzAwIiByeD0iMC4xOCIgaGVpZ2h0PSIwLjM5IiB3aWR0aD0iMy4yOSIgeT0iMTAuOSIgeD0iMTEuOSIgaWQ9ImIxNjZiOGMyLWI5ZWUtNGMzZC1iZjdhLTc3YmQ1Y2UwNTcwYiIvPjxyZWN0IG9wYWNpdHk9IjAuNzUiIGZpbGw9IiNmZjkzMDAiIHJ4PSIwLjE4IiBoZWlnaHQ9IjAuMzkiIHdpZHRoPSIzLjI5IiB5PSIxMS41MyIgeD0iMTEuOSIgaWQ9ImJhZjQzN2ZlLTM0ODMtNGEyNS05NGJhLTFlODRhNjRjZDJlYiIvPjwvZz48L2c+PC9zdmc+;fontFamily=Tahoma;fontSize=10;" parent="1" vertex="1">
          <mxGeometry x="780" y="10" width="20" height="20" as="geometry" />
        </mxCell>
        <mxCell id="IkQXpn9ixrnxDfD2KMmo-21" value="" style="shape=image;verticalLabelPosition=bottom;labelBackgroundColor=none;verticalAlign=top;aspect=fixed;imageAspect=0;image=data:image/svg+xml,PHN2ZyB4bWxucz0iaHR0cDovL3d3dy53My5vcmcvMjAwMC9zdmciIHZpZXdCb3g9IjAgMCAxOCAxOCIgaGVpZ2h0PSIxOCIgd2lkdGg9IjE4IiBpZD0iZjgwN2NkZGUtMThmMi00NTc0LWJhMTQtZjBiMWVlZjk0YTRhIj48ZGVmcz48bGluZWFyR3JhZGllbnQgZ3JhZGllbnRVbml0cz0idXNlclNwYWNlT25Vc2UiIHkyPSI0LjM4IiB4Mj0iOC42MyIgeTE9IjEzLjAxIiB4MT0iMTMuMTgiIGlkPSJiYjY3YjE1NC1hZjhmLTRhNTMtYTljZS1hYTA0NmI5Mzk4ZTkiPjxzdG9wIHN0b3AtY29sb3I9IiMxOTg4ZDkiIG9mZnNldD0iMCIvPjxzdG9wIHN0b3AtY29sb3I9IiM1NGFlZjAiIG9mZnNldD0iMC45Ii8+PC9saW5lYXJHcmFkaWVudD48bGluZWFyR3JhZGllbnQgZ3JhZGllbnRVbml0cz0idXNlclNwYWNlT25Vc2UiIHkyPSIxNS45MyIgeDI9IjE0LjM3IiB5MT0iMTAuNSIgeDE9IjExLjIyIiBpZD0iYTQ3ZDcxMzgtMDg0YS00NzFkLThkNjMtNzQ0ZTc1YjllOGEzIj48c3RvcCBzdG9wLWNvbG9yPSIjNTRhZWYwIiBvZmZzZXQ9IjAuMSIvPjxzdG9wIHN0b3AtY29sb3I9IiM0ZmFiZWUiIG9mZnNldD0iMC4yOSIvPjxzdG9wIHN0b3AtY29sb3I9IiM0MWEyZTkiIG9mZnNldD0iMC41MSIvPjxzdG9wIHN0b3AtY29sb3I9IiMyYTkzZTAiIG9mZnNldD0iMC43NCIvPjxzdG9wIHN0b3AtY29sb3I9IiMxOTg4ZDkiIG9mZnNldD0iMC44OCIvPjwvbGluZWFyR3JhZGllbnQ+PC9kZWZzPjx0aXRsZT5JY29uLWlkZW50aXR5LTIyNzwvdGl0bGU+PGc+PHBvbHlnb24gZmlsbD0iIzUwZTZmZiIgcG9pbnRzPSIxLjE1IDEwLjIyIDguOTMgMTUuMjcgMTYuODUgMTAuMjEgMTcuODUgMTEuMzYgOC45MyAxNy4xMSAwLjE1IDExLjM3IDEuMTUgMTAuMjIiLz48cG9seWdvbiBmaWxsPSIjZmZmIiBwb2ludHM9IjEuNzMgOS41OCA4LjkzIDEgMTYuMjggOS41OSA4LjkzIDE0LjIzIDEuNzMgOS41OCIvPjxwb2x5Z29uIGZpbGw9IiM1MGU2ZmYiIHBvaW50cz0iOC45MyAxIDguOTMgMTQuMjMgMS43MyA5LjU4IDguOTMgMSIvPjxwb2x5Z29uIGZpbGw9InVybCgjYmI2N2IxNTQtYWY4Zi00YTUzLWE5Y2UtYWEwNDZiOTM5OGU5KSIgcG9pbnRzPSI4LjkzIDEgOC45MyAxNC4yMyAxNi4yOCA5LjU5IDguOTMgMSIvPjxwb2x5Z29uIGZpbGw9IiM1M2IxZTAiIHBvaW50cz0iOC45MyA3LjgzIDE2LjI4IDkuNTkgOC45MyAxNC4yMyA4LjkzIDcuODMiLz48cG9seWdvbiBmaWxsPSIjOWNlYmZmIiBwb2ludHM9IjguOTMgMTQuMjMgMS43MyA5LjU4IDguOTMgNy44MyA4LjkzIDE0LjIzIi8+PHBvbHlnb24gZmlsbD0idXJsKCNhNDdkNzEzOC0wODRhLTQ3MWQtOGQ2My03NDRlNzViOWU4YTMpIiBwb2ludHM9IjguOTMgMTcuMTEgMTcuODUgMTEuMzYgMTYuODUgMTAuMjEgOC45MyAxNS4yNyA4LjkzIDE3LjExIi8+PGc+PHBhdGggZmlsbD0iI2ZmY2EwMCIgZD0iTTE2LjMyLDExLjg4YTEuMTYsMS4xNiwwLDAsMCwwLTEuNjVoMGwtMi0yYTEuMTYsMS4xNiwwLDAsMC0xLjY0LDBoMGwtMiwyYTEuMTgsMS4xOCwwLDAsMCwwLDEuNjVsMS42NywxLjY3YS4zMi4zMiwwLDAsMSwuMDkuMjN2My4xYS4zNi4zNiwwLDAsMCwuMTIuMjhsLjc2Ljc2YS4yNS4yNSwwLDAsMCwuMzcsMGwuNzMtLjczaDBsLjQ0LS40NGEuMTUuMTUsMCwwLDAsMC0uMjFsLS4zMS0uMzFhLjE2LjE2LDAsMCwxLDAtLjI0bC4zMS0uMzFhLjE2LjE2LDAsMCwwLDAtLjIybC0uMzEtLjMxYS4xNS4xNSwwLDAsMSwwLS4yM2wuMzEtLjMyYS4xNS4xNSwwLDAsMCwwLS4yMWwtLjQ0LS40NHYtLjE2Wk0xMy41LDguNzFhLjY2LjY2LDAsMSwxLS42Ni42Ni42Ni42NiwwLDAsMSwuNjYtLjY2WiIgaWQ9ImUxODlhNjFmLTYzMWEtNDEyMi1iYjJiLTA3OWU4NjAwNGQ5NiIvPjxwYXRoIG9wYWNpdHk9IjAuNzUiIGZpbGw9IiNmZjkzMDAiIGQ9Ik0xMywxN2gwYS4xNC4xNCwwLDAsMCwuMjQtLjExVjE0LjMzYS4xNi4xNiwwLDAsMC0uMDYtLjEzaDBhLjE0LjE0LDAsMCwwLS4yMi4xM3YyLjUxQS4xNS4xNSwwLDAsMCwxMywxN1oiIGlkPSJmYjcwMzNlZS00NjUwLTQ4ODYtODBjNy1lZGRmNjI1NjBmODUiLz48cmVjdCBvcGFjaXR5PSIwLjc1IiBmaWxsPSIjZmY5MzAwIiByeD0iMC4xOCIgaGVpZ2h0PSIwLjM5IiB3aWR0aD0iMy4yOSIgeT0iMTAuOSIgeD0iMTEuOSIgaWQ9ImIxNjZiOGMyLWI5ZWUtNGMzZC1iZjdhLTc3YmQ1Y2UwNTcwYiIvPjxyZWN0IG9wYWNpdHk9IjAuNzUiIGZpbGw9IiNmZjkzMDAiIHJ4PSIwLjE4IiBoZWlnaHQ9IjAuMzkiIHdpZHRoPSIzLjI5IiB5PSIxMS41MyIgeD0iMTEuOSIgaWQ9ImJhZjQzN2ZlLTM0ODMtNGEyNS05NGJhLTFlODRhNjRjZDJlYiIvPjwvZz48L2c+PC9zdmc+;fontFamily=Tahoma;fontSize=10;" parent="1" vertex="1">
          <mxGeometry x="900" y="10" width="20" height="20" as="geometry" />
        </mxCell>
        <mxCell id="IkQXpn9ixrnxDfD2KMmo-22" value="" style="shape=image;verticalLabelPosition=bottom;labelBackgroundColor=none;verticalAlign=top;aspect=fixed;imageAspect=0;image=data:image/svg+xml,PHN2ZyB4bWxucz0iaHR0cDovL3d3dy53My5vcmcvMjAwMC9zdmciIHZpZXdCb3g9IjAgMCAxOCAxOCIgaGVpZ2h0PSIxOCIgd2lkdGg9IjE4IiBpZD0iZjgwN2NkZGUtMThmMi00NTc0LWJhMTQtZjBiMWVlZjk0YTRhIj48ZGVmcz48bGluZWFyR3JhZGllbnQgZ3JhZGllbnRVbml0cz0idXNlclNwYWNlT25Vc2UiIHkyPSI0LjM4IiB4Mj0iOC42MyIgeTE9IjEzLjAxIiB4MT0iMTMuMTgiIGlkPSJiYjY3YjE1NC1hZjhmLTRhNTMtYTljZS1hYTA0NmI5Mzk4ZTkiPjxzdG9wIHN0b3AtY29sb3I9IiMxOTg4ZDkiIG9mZnNldD0iMCIvPjxzdG9wIHN0b3AtY29sb3I9IiM1NGFlZjAiIG9mZnNldD0iMC45Ii8+PC9saW5lYXJHcmFkaWVudD48bGluZWFyR3JhZGllbnQgZ3JhZGllbnRVbml0cz0idXNlclNwYWNlT25Vc2UiIHkyPSIxNS45MyIgeDI9IjE0LjM3IiB5MT0iMTAuNSIgeDE9IjExLjIyIiBpZD0iYTQ3ZDcxMzgtMDg0YS00NzFkLThkNjMtNzQ0ZTc1YjllOGEzIj48c3RvcCBzdG9wLWNvbG9yPSIjNTRhZWYwIiBvZmZzZXQ9IjAuMSIvPjxzdG9wIHN0b3AtY29sb3I9IiM0ZmFiZWUiIG9mZnNldD0iMC4yOSIvPjxzdG9wIHN0b3AtY29sb3I9IiM0MWEyZTkiIG9mZnNldD0iMC41MSIvPjxzdG9wIHN0b3AtY29sb3I9IiMyYTkzZTAiIG9mZnNldD0iMC43NCIvPjxzdG9wIHN0b3AtY29sb3I9IiMxOTg4ZDkiIG9mZnNldD0iMC44OCIvPjwvbGluZWFyR3JhZGllbnQ+PC9kZWZzPjx0aXRsZT5JY29uLWlkZW50aXR5LTIyNzwvdGl0bGU+PGc+PHBvbHlnb24gZmlsbD0iIzUwZTZmZiIgcG9pbnRzPSIxLjE1IDEwLjIyIDguOTMgMTUuMjcgMTYuODUgMTAuMjEgMTcuODUgMTEuMzYgOC45MyAxNy4xMSAwLjE1IDExLjM3IDEuMTUgMTAuMjIiLz48cG9seWdvbiBmaWxsPSIjZmZmIiBwb2ludHM9IjEuNzMgOS41OCA4LjkzIDEgMTYuMjggOS41OSA4LjkzIDE0LjIzIDEuNzMgOS41OCIvPjxwb2x5Z29uIGZpbGw9IiM1MGU2ZmYiIHBvaW50cz0iOC45MyAxIDguOTMgMTQuMjMgMS43MyA5LjU4IDguOTMgMSIvPjxwb2x5Z29uIGZpbGw9InVybCgjYmI2N2IxNTQtYWY4Zi00YTUzLWE5Y2UtYWEwNDZiOTM5OGU5KSIgcG9pbnRzPSI4LjkzIDEgOC45MyAxNC4yMyAxNi4yOCA5LjU5IDguOTMgMSIvPjxwb2x5Z29uIGZpbGw9IiM1M2IxZTAiIHBvaW50cz0iOC45MyA3LjgzIDE2LjI4IDkuNTkgOC45MyAxNC4yMyA4LjkzIDcuODMiLz48cG9seWdvbiBmaWxsPSIjOWNlYmZmIiBwb2ludHM9IjguOTMgMTQuMjMgMS43MyA5LjU4IDguOTMgNy44MyA4LjkzIDE0LjIzIi8+PHBvbHlnb24gZmlsbD0idXJsKCNhNDdkNzEzOC0wODRhLTQ3MWQtOGQ2My03NDRlNzViOWU4YTMpIiBwb2ludHM9IjguOTMgMTcuMTEgMTcuODUgMTEuMzYgMTYuODUgMTAuMjEgOC45MyAxNS4yNyA4LjkzIDE3LjExIi8+PGc+PHBhdGggZmlsbD0iI2ZmY2EwMCIgZD0iTTE2LjMyLDExLjg4YTEuMTYsMS4xNiwwLDAsMCwwLTEuNjVoMGwtMi0yYTEuMTYsMS4xNiwwLDAsMC0xLjY0LDBoMGwtMiwyYTEuMTgsMS4xOCwwLDAsMCwwLDEuNjVsMS42NywxLjY3YS4zMi4zMiwwLDAsMSwuMDkuMjN2My4xYS4zNi4zNiwwLDAsMCwuMTIuMjhsLjc2Ljc2YS4yNS4yNSwwLDAsMCwuMzcsMGwuNzMtLjczaDBsLjQ0LS40NGEuMTUuMTUsMCwwLDAsMC0uMjFsLS4zMS0uMzFhLjE2LjE2LDAsMCwxLDAtLjI0bC4zMS0uMzFhLjE2LjE2LDAsMCwwLDAtLjIybC0uMzEtLjMxYS4xNS4xNSwwLDAsMSwwLS4yM2wuMzEtLjMyYS4xNS4xNSwwLDAsMCwwLS4yMWwtLjQ0LS40NHYtLjE2Wk0xMy41LDguNzFhLjY2LjY2LDAsMSwxLS42Ni42Ni42Ni42NiwwLDAsMSwuNjYtLjY2WiIgaWQ9ImUxODlhNjFmLTYzMWEtNDEyMi1iYjJiLTA3OWU4NjAwNGQ5NiIvPjxwYXRoIG9wYWNpdHk9IjAuNzUiIGZpbGw9IiNmZjkzMDAiIGQ9Ik0xMywxN2gwYS4xNC4xNCwwLDAsMCwuMjQtLjExVjE0LjMzYS4xNi4xNiwwLDAsMC0uMDYtLjEzaDBhLjE0LjE0LDAsMCwwLS4yMi4xM3YyLjUxQS4xNS4xNSwwLDAsMCwxMywxN1oiIGlkPSJmYjcwMzNlZS00NjUwLTQ4ODYtODBjNy1lZGRmNjI1NjBmODUiLz48cmVjdCBvcGFjaXR5PSIwLjc1IiBmaWxsPSIjZmY5MzAwIiByeD0iMC4xOCIgaGVpZ2h0PSIwLjM5IiB3aWR0aD0iMy4yOSIgeT0iMTAuOSIgeD0iMTEuOSIgaWQ9ImIxNjZiOGMyLWI5ZWUtNGMzZC1iZjdhLTc3YmQ1Y2UwNTcwYiIvPjxyZWN0IG9wYWNpdHk9IjAuNzUiIGZpbGw9IiNmZjkzMDAiIHJ4PSIwLjE4IiBoZWlnaHQ9IjAuMzkiIHdpZHRoPSIzLjI5IiB5PSIxMS41MyIgeD0iMTEuOSIgaWQ9ImJhZjQzN2ZlLTM0ODMtNGEyNS05NGJhLTFlODRhNjRjZDJlYiIvPjwvZz48L2c+PC9zdmc+;fontFamily=Tahoma;fontSize=10;" parent="1" vertex="1">
          <mxGeometry x="660" y="10" width="20" height="20" as="geometry" />
        </mxCell>
        <mxCell id="IkQXpn9ixrnxDfD2KMmo-33" value="mil-x-cosmos" style="shape=image;verticalLabelPosition=bottom;labelBackgroundColor=none;verticalAlign=top;aspect=fixed;imageAspect=0;image=data:image/svg+xml,PHN2ZyB4bWxucz0iaHR0cDovL3d3dy53My5vcmcvMjAwMC9zdmciIHZpZXdCb3g9IjAgMCAxOCAxOCIgaGVpZ2h0PSIxOCIgd2lkdGg9IjE4IiBpZD0iYjA4OWNmY2EtMGRlMS00NTFjLWExY2EtNjY4MGVhNTBjYjRmIj48ZGVmcz48cmFkaWFsR3JhZGllbnQgZ3JhZGllbnRVbml0cz0idXNlclNwYWNlT25Vc2UiIGdyYWRpZW50VHJhbnNmb3JtPSJ0cmFuc2xhdGUoMTE3LjczOSAxOS42NDQpIHNjYWxlKDEuMDM2IDEuMDI3KSIgcj0iNS45NTQiIGN5PSItMTAuNDA5IiBjeD0iLTEwNS4wMDYiIGlkPSJiMjVkMDgzNi05NjRhLTRjODQtOGMyMC04NTVmNjZlODM0NWUiPjxzdG9wIHN0b3AtY29sb3I9IiM1ZWEwZWYiIG9mZnNldD0iMC4xODMiLz48c3RvcCBzdG9wLWNvbG9yPSIjMDA3OGQ0IiBvZmZzZXQ9IjEiLz48L3JhZGlhbEdyYWRpZW50PjxjbGlwUGF0aCBpZD0iYjM2YzdmNWQtMmVmMS00NzYwLThhMjUtZWViOTY2MWY0ZTQ3Ij48cGF0aCBmaWxsPSJub25lIiBkPSJNMTQuOTY5LDcuNTNBNi4xMzcsNi4xMzcsMCwxLDEsNy41NzQsMi45ODcsNi4xMzcsNi4xMzcsMCwwLDEsMTQuOTY5LDcuNTNaIi8+PC9jbGlwUGF0aD48L2RlZnM+PHRpdGxlPkljb24tZGF0YWJhc2VzLTEyMTwvdGl0bGU+PHBhdGggZmlsbD0iIzUwZTZmZiIgZD0iTTIuOTU0LDUuMjY2YS4xNzUuMTc1LDAsMCwxLS4xNzYtLjE3NmgwQTIuMDEyLDIuMDEyLDAsMCwwLC43NjksMy4wODFhLjE3Ni4xNzYsMCwwLDEtLjE3Ni0uMTc1aDBhLjE3Ni4xNzYsMCwwLDEsLjE3Ni0uMTc2QTIuMDEyLDIuMDEyLDAsMCwwLDIuNzc4LjcyLjE3NS4xNzUsMCwwLDEsMi45NTQuNTQ0aDBBLjE3NS4xNzUsMCwwLDEsMy4xMy43MmgwQTIuMDEyLDIuMDEyLDAsMCwwLDUuMTM5LDIuNzI5YS4xNzUuMTc1LDAsMCwxLC4xNzYuMTc2aDBhLjE3NS4xNzUsMCwwLDEtLjE3Ni4xNzZoMEEyLjAxMSwyLjAxMSwwLDAsMCwzLjEzLDUuMDkuMTc3LjE3NywwLDAsMSwyLjk1NCw1LjI2NloiLz48cGF0aCBmaWxsPSIjNTBlNmZmIiBkPSJNMTUuNjExLDE3LjQ1NmEuMTQxLjE0MSwwLDAsMS0uMTQxLS4xNDFoMGExLjYwOSwxLjYwOSwwLDAsMC0xLjYwNy0xLjYwNy4xNDEuMTQxLDAsMCwxLS4xNDEtLjE0aDBhLjE0MS4xNDEsMCwwLDEsLjE0MS0uMTQxaDBhMS42MDgsMS42MDgsMCwwLDAsMS42MDctMS42MDcuMTQxLjE0MSwwLDAsMSwuMTQxLS4xNDFoMGEuMTQxLjE0MSwwLDAsMSwuMTQxLjE0MWgwYTEuNjA4LDEuNjA4LDAsMCwwLDEuNjA3LDEuNjA3LjE0MS4xNDEsMCwxLDEsMCwuMjgyaDBhMS42MDksMS42MDksMCwwLDAtMS42MDcsMS42MDdBLjE0MS4xNDEsMCwwLDEsMTUuNjExLDE3LjQ1NloiLz48Zz48cGF0aCBmaWxsPSJ1cmwoI2IyNWQwODM2LTk2NGEtNGM4NC04YzIwLTg1NWY2NmU4MzQ1ZSkiIGQ9Ik0xNC45NjksNy41M0E2LjEzNyw2LjEzNywwLDEsMSw3LjU3NCwyLjk4Nyw2LjEzNyw2LjEzNywwLDAsMSwxNC45NjksNy41M1oiLz48ZyBjbGlwLXBhdGg9InVybCgjYjM2YzdmNWQtMmVmMS00NzYwLThhMjUtZWViOTY2MWY0ZTQ3KSI+PHBhdGggZmlsbD0iI2YyZjJmMiIgZD0iTTUuNzA5LDEzLjExNUExLjYzOCwxLjYzOCwwLDEsMCw1LjcxNCw5Ljg0LDEuMzA3LDEuMzA3LDAsMCwwLDUuNzIxLDkuNywxLjY1MSwxLjY1MSwwLDAsMCw0LjA2LDguMDY0SDIuODMyYTYuMjUxLDYuMjUxLDAsMCwwLDEuNTk1LDUuMDUxWiIvPjxwYXRoIGZpbGw9IiNmMmYyZjIiIGQ9Ik0xNS4wNDUsNy44MTVjMC0uMDE1LDAtLjAzLS4wMDctLjA0NGE1Ljk3OCw1Ljk3OCwwLDAsMC0xLjQwNi0yLjg4LDEuODI1LDEuODI1LDAsMCwwLS4yODktLjA5LDEuODA2LDEuODA2LDAsMCwwLTIuMywxLjY2MywyLDIsMCwwLDAtLjItLjAxMywxLjczNywxLjczNywwLDAsMC0uNTgxLDMuMzc0LDEuNDUxLDEuNDUxLDAsMCwwLC41NDEuMWgyLjAzQTEzLjQ1MywxMy40NTMsMCwwLDAsMTUuMDQ1LDcuODE1WiIvPjwvZz48L2c+PHBhdGggZmlsbD0iIzUwZTZmZiIgZD0iTTE3LjE5MSwzLjgzMmMtLjYyOS0xLjA0Ny0yLjEtMS40NTUtNC4xNTUtMS4xNDlhMTQuNjA2LDE0LjYwNiwwLDAsMC0yLjA4Mi40NTIsNi40NTYsNi40NTYsMCwwLDEsMS41MjguNzY3Yy4yNDEtLjA1My40ODMtLjExNi43MTUtLjE1MUE3LjQ5LDcuNDksMCwwLDEsMTQuMywzLjY2MmEyLjE4OCwyLjE4OCwwLDAsMSwxLjk1OS43MjVoMGMuMzgzLjYzOC4wNiwxLjcyOS0uODg2LDNhMTYuNzIzLDE2LjcyMywwLDAsMS00Ljc0OSw0LjA1MUExNi43NTgsMTYuNzU4LDAsMCwxLDQuOCwxMy43Yy0xLjU2NC4yMzQtMi42ODIsMC0zLjA2NS0uNjM2cy0uMDYtMS43My44ODYtMi45OTVjLjExNy0uMTU3LjE0Ni0uMjM0LjI3OS0uMzkyYTYuMjUyLDYuMjUyLDAsMCwxLC4wMjYtMS42M0ExMS41NTIsMTEuNTUyLDAsMCwwLDEuNzU2LDkuNDE5Qy41MTcsMTEuMDc2LjE4MSwxMi41NjYuODA5LDEzLjYxM2EzLjE2NSwzLjE2NSwwLDAsMCwyLjksMS4yNDksOC40MzQsOC40MzQsMCwwLDAsMS4yNTEtLjEsMTcuODU1LDE3Ljg1NSwwLDAsMCw2LjIxOS0yLjQsMTcuODA4LDE3LjgwOCwwLDAsMCw1LjA2MS00LjMzMkMxNy40ODMsNi4zNjksMTcuODE5LDQuODgsMTcuMTkxLDMuODMyWiIvPjwvc3ZnPg==;fontFamily=Tahoma;fontSize=10;" parent="1" vertex="1">
          <mxGeometry x="320" y="360" width="40" height="40" as="geometry" />
        </mxCell>
        <mxCell id="IkQXpn9ixrnxDfD2KMmo-34" value="mil-x-evhns" style="shape=image;verticalLabelPosition=bottom;labelBackgroundColor=none;verticalAlign=top;aspect=fixed;imageAspect=0;image=data:image/svg+xml,PHN2ZyB4bWxucz0iaHR0cDovL3d3dy53My5vcmcvMjAwMC9zdmciIHZpZXdCb3g9IjAgMCAxOCAxOCIgaGVpZ2h0PSIxOCIgd2lkdGg9IjE4Ij48dGl0bGU+SWNvbi1hbmFseXRpY3MtMTQ0PC90aXRsZT48Zz48ZyBpZD0iYTUzYTRkZTgtMzcxYy00OWRhLWE2NjItYzQ2MzEyOTlmYzAzIj48cGF0aCBmaWxsPSIjNzZiYzJkIiBkPSJNMTAuODMsOC40MmEuMjYuMjYsMCwwLDEtLjI0LjI3SDguNWEuMjYuMjYsMCwwLDEtLjI3LS4yNFY2Ljg5YS4yNi4yNiwwLDAsMSwuMjQtLjI3aDIuMDlhLjI2LjI2LDAsMCwxLC4yNy4yNFY4LjQyWiIvPjxwYXRoIGZpbGw9IiM3NmJjMmQiIGQ9Ik0xNC41NCwxMGEuMjYuMjYsMCwwLDEtLjI0LjI3SDEyLjIxYS4yNi4yNiwwLDAsMS0uMjctLjI0VjguNDhhLjI2LjI2LDAsMCwxLC4yNC0uMjdoMi4wOWEuMjYuMjYsMCwwLDEsLjI3LjI0VjEwWiIvPjxwYXRoIGZpbGw9IiM3NmJjMmQiIGQ9Ik0xMC44MywxMS42YS4yNi4yNiwwLDAsMS0uMjQuMjdIOC41YS4yNi4yNiwwLDAsMS0uMjctLjI0VjEwLjA3YS4yNi4yNiwwLDAsMSwuMjQtLjI3aDIuMDlhLjI2LjI2LDAsMCwxLC4yNy4yNFYxMS42WiIvPjxwYXRoIGZpbGw9IiM4NmQ2MzMiIGQ9Ik03LjEyLDYuODRhLjI1LjI1LDAsMCwxLS4yMy4yNkg0Ljc0YS4yNi4yNiwwLDAsMS0uMjctLjIzVjUuMjVBLjI2LjI2LDAsMCwxLDQuNzEsNUg2LjhjLjIyLDAsLjMyLjExLjMyLjI3WiIvPjxwYXRoIGZpbGw9IiM3NmJjMmQiIGQ9Ik03LjEyLDEwYS4yNS4yNSwwLDAsMS0uMjMuMjdINC43NEEuMjYuMjYsMCwwLDEsNC40NywxMFY4LjQyYS4yNi4yNiwwLDAsMSwuMjQtLjI2SDYuOGMuMjIsMCwuMzIuMTEuMzIuMjZaIi8+PHBhdGggZmlsbD0iIzc2YmMyZCIgZD0iTTcuMTIsMTMuMTlhLjI1LjI1LDAsMCwxLS4yMy4yN0g0Ljc0YS4yNi4yNiwwLDAsMS0uMjctLjI0VjExLjZhLjI1LjI1LDAsMCwxLC4yNC0uMjZINi44Yy4yMiwwLC4zMi4xLjMyLjI2WiIvPjxnPjxwYXRoIGZpbGw9IiM5OTkiIGQ9Ik0xLjA3LDEuNTFIMi4zNmEwLDAsMCwwLDEsMCwwdjMuNmEuMjkuMjksMCwwLDEtLjI5LjI5SC43OUEuMjkuMjksMCwwLDEsLjUsNS4xMXYtM0EuNTcuNTcsMCwwLDEsMS4wNywxLjUxWiIvPjxwYXRoIG9wYWNpdHk9IjAuNSIgZmlsbD0iIzk5OSIgZD0iTTEuMDcsMS41MUgyLjM2YTAsMCwwLDAsMSwwLDB2My42YS4yOS4yOSwwLDAsMS0uMjkuMjlILjc5QS4yOS4yOSwwLDAsMSwuNSw1LjExdi0zQS41Ny41NywwLDAsMSwxLjA3LDEuNTFaIi8+PC9nPjxnPjxwYXRoIGZpbGw9IiM5OTkiIGQ9Ik0xNS42NCwxLjUxaDEuMjlhLjU3LjU3LDAsMCwxLC41Ny41N3YzYS4yOS4yOSwwLDAsMS0uMjkuMjlIMTUuOTJhLjI5LjI5LDAsMCwxLS4yOS0uMjlWMS41MUEwLDAsMCwwLDEsMTUuNjQsMS41MVoiLz48cGF0aCBvcGFjaXR5PSIwLjUiIGZpbGw9IiM5OTkiIGQ9Ik0xNS42NCwxLjUxaDEuMjlhLjU3LjU3LDAsMCwxLC41Ny41N3YzYS4yOS4yOSwwLDAsMS0uMjkuMjlIMTUuOTJhLjI5LjI5LDAsMCwxLS4yOS0uMjlWMS41MUEwLDAsMCwwLDEsMTUuNjQsMS41MVoiLz48L2c+PHBhdGggZmlsbD0iIzk0OTQ5NCIgdHJhbnNmb3JtPSJ0cmFuc2xhdGUoMTEuNDIgLTYuNTgpIHJvdGF0ZSg5MCkiIGQ9Ik04LjY2LTYuMDhIOS45MWEwLDAsMCwwLDEsMCwwdjE3YTAsMCwwLDAsMSwwLDBIOC42NmEuNTcuNTcsMCwwLDEtLjU3LS41N1YtNS41MkEuNTcuNTcsMCwwLDEsOC42Ni02LjA4WiIvPjxnPjxwYXRoIGZpbGw9IiM5OTkiIGQ9Ik0uNzksMTIuNzZIMi4wOGEuMjkuMjksMCwwLDEsLjI5LjI5djMuNmEwLDAsMCwwLDEsMCwwSDEuMDdhLjU3LjU3LDAsMCwxLS41Ny0uNTdWMTNBLjI5LjI5LDAsMCwxLC43OSwxMi43NloiLz48cGF0aCBvcGFjaXR5PSIwLjUiIGZpbGw9IiM5OTkiIGQ9Ik0uNzksMTIuNzZIMi4wOGEuMjkuMjksMCwwLDEsLjI5LjI5djMuNmEwLDAsMCwwLDEsMCwwSDEuMDdhLjU3LjU3LDAsMCwxLS41Ny0uNTdWMTNBLjI5LjI5LDAsMCwxLC43OSwxMi43NloiLz48L2c+PGc+PHBhdGggZmlsbD0iIzk5OSIgZD0iTTE1LjkyLDEyLjc2aDEuMjlhLjI5LjI5LDAsMCwxLC4yOS4yOXYzYS41Ny41NywwLDAsMS0uNTcuNTdIMTUuNjRhMCwwLDAsMCwxLDAsMFYxM0EuMjkuMjksMCwwLDEsMTUuOTIsMTIuNzZaIi8+PHBhdGggb3BhY2l0eT0iMC41IiBmaWxsPSIjOTk5IiBkPSJNMTUuOTIsMTIuNzZoMS4yOWEuMjkuMjksMCwwLDEsLjI5LjI5djNhLjU3LjU3LDAsMCwxLS41Ny41N0gxNS42NGEwLDAsMCwwLDEsMCwwVjEzQS4yOS4yOSwwLDAsMSwxNS45MiwxMi43NloiLz48L2c+PHBhdGggZmlsbD0iIzk0OTQ5NCIgdHJhbnNmb3JtPSJ0cmFuc2xhdGUoLTYuNzQgMjQuNzQpIHJvdGF0ZSgtOTApIiBkPSJNOC42Niw3LjI0SDkuOTFhMCwwLDAsMCwxLDAsMHYxN2EwLDAsMCwwLDEsMCwwSDguNjZhLjU3LjU3LDAsMCwxLS41Ny0uNTdWNy44MUEuNTcuNTcsMCwwLDEsOC42Niw3LjI0WiIvPjwvZz48L2c+PC9zdmc+;fontFamily=Tahoma;fontSize=10;" parent="1" vertex="1">
          <mxGeometry x="520" y="360" width="40" height="40" as="geometry" />
        </mxCell>
        <mxCell id="IkQXpn9ixrnxDfD2KMmo-37" value="privatelink.blob.core.windows.net" style="shape=image;verticalLabelPosition=middle;labelBackgroundColor=none;verticalAlign=middle;aspect=fixed;imageAspect=0;image=data:image/svg+xml,PHN2ZyB4bWxucz0iaHR0cDovL3d3dy53My5vcmcvMjAwMC9zdmciIHZpZXdCb3g9IjAgMCAxOCAxOCIgaGVpZ2h0PSIxOCIgd2lkdGg9IjE4IiBpZD0iYTU0MmNmMzktMmJhNi00MjA2LTgyNzgtNmE0ZjFjMjQ1MmY1Ij48ZGVmcz48cmFkaWFsR3JhZGllbnQgZ3JhZGllbnRVbml0cz0idXNlclNwYWNlT25Vc2UiIGdyYWRpZW50VHJhbnNmb3JtPSJtYXRyaXgoMC41LCAwLCAwLCAtMC41LCAzNDE0LjkxLCAzMzc0LjA1KSIgcj0iMTciIGN5PSI2NzI5LjY5IiBjeD0iLTY4MTEuNCIgaWQ9ImU3NTc5ZjRkLTM2YTMtNDY5My1hNzI2LTdhNjA1MGFjNTY3MSI+PHN0b3Agc3RvcC1jb2xvcj0iIzVlYTBlZiIgb2Zmc2V0PSIwLjE4Ii8+PHN0b3Agc3RvcC1jb2xvcj0iIzAwNzhkNCIgb2Zmc2V0PSIxIi8+PC9yYWRpYWxHcmFkaWVudD48L2RlZnM+PHRpdGxlPkljb24tbmV0d29ya2luZy02NDwvdGl0bGU+PHBhdGggZmlsbD0idXJsKCNlNzU3OWY0ZC0zNmEzLTQ2OTMtYTcyNi03YTYwNTBhYzU2NzEpIiBkPSJNMTQuMjEsMTUuNzJBOC41LDguNSwwLDAsMSwzLjc5LDIuMjhsLjA5LS4wNmE4LjUsOC41LDAsMCwxLDEwLjMzLDEzLjUiIGlkPSJmNTdlMTA1ZC02ZDJkLTRhZDctYjhjMy1jMTA2ODRjOWY5YjgiLz48cGF0aCBmaWxsPSIjNWVhMGVmIiBkPSJNOSwxLjMxQTcuNjksNy42OSwwLDEsMCwxNi42OSw5LDcuNyw3LjcsMCwwLDAsOSwxLjMxWk0xNC4xNSwzLjlBNy4zNyw3LjM3LDAsMCwxLDEyLDQuNyw4LjgzLDguODMsMCwwLDAsMTAuNzUsMiw3LjIsNy4yLDAsMCwxLDE0LjE1LDMuOVpNOSwxLjc0YTYuNTksNi41OSwwLDAsMSwxLjA5LjA5aDBhNy40OCw3LjQ4LDAsMCwxLDEuNTMsMywxNS4xMiwxNS4xMiwwLDAsMS01LjQ1LDBBNy4zOCw3LjM4LDAsMCwxLDcuNjgsMS44OWwwLDBBNy4zNCw3LjM0LDAsMCwxLDksMS43NFpNNywyQTguNzIsOC43MiwwLDAsMCw1LjczLDQuNjhhNS41OCw1LjU4LDAsMCwxLTEuOS0uNzdBNy4zNSw3LjM1LDAsMCwxLDcsMlpNMy43MiwxNGE1LjI3LDUuMjcsMCwwLDEsMS43OC0uNzYsNy4wOCw3LjA4LDAsMCwwLDEuMzUsMi43MkE3LjI1LDcuMjUsMCwwLDEsMy43MiwxNFptNi40MSwyLjJBNy4wOCw3LjA4LDAsMCwxLDksMTYuMjZhNi44Myw2LjgzLDAsMCwxLTEuNDQtLjE1bDAsMGE2LDYsMCwwLDEtMS42Ny0zLDE0LjczLDE0LjczLDAsMCwxLDUuODgsMCw2LDYsMCwwLDEtMS42OSwzWm0uNzMtLjE2YTcuMTMsNy4xMywwLDAsMCwxLjM4LTIuOCw2LjY4LDYuNjgsMCwwLDEsMiwuODNBNy4xMyw3LjEzLDAsMCwxLDEwLjg2LDE2Wm0xLjQ4LTMuMjJjLjA4LS4zNi4xNS0uNzMuMi0xLjEybC0uNDYuMTFjLS4wNS4zMS0uMS42Mi0uMTcuOTFhMTUuMjMsMTUuMjMsMCwwLDAtNi4wOSwwYy0uMDctLjI3LS4xMi0uNTYtLjE3LS44NmEuMjguMjgsMCwwLDEsMC0uMDlsLS40Ni0uMTNhMi4zNiwyLjM2LDAsMCwwLDAsLjI4YzAsLjMyLjExLjYyLjE3LjkxYTUuOSw1LjksMCwwLDAtMiwuODUsNy4yNCw3LjI0LDAsMCwxLC4xMS05LjQsNi4yOSw2LjI5LDAsMCwwLDIuMDguODZjLS4wNy4yNC0uMTMuNS0uMTguNzZzMCwuMjUtLjA4LjM3bC40Ny0uMTEsMC0uMTdjLjA2LS4yNi4xMi0uNTEuMTktLjc1QTE0Ljg5LDE0Ljg5LDAsMCwwLDksNS40OGExNSwxNSwwLDAsMCwyLjc4LS4yNmMuMDcuMjcuMTQuNTYuMi44NWwuNDYuMTFxLS4xMS0uNTQtLjI0LTFhNy43Myw3LjczLDAsMCwwLDIuMy0uOTEsNy4yMiw3LjIyLDAsMCwxLC4wNiw5LjQ5QTcuMjgsNy4yOCwwLDAsMCwxMi4zNCwxMi43OVoiLz48cGF0aCBmaWxsPSIjZmZmIiBkPSJNMy42OSw3YTcuOTIsNy45MiwwLDAsMSwxLjE2LS4wOCwyLjQ0LDIuNDQsMCwwLDEsMS43MS41MkEyLDIsMCwwLDEsNy4xNSw4LjlhMi4yMSwyLjIxLDAsMCwxLS42MSwxLjY0LDIuNiwyLjYsMCwwLDEtMS44Ni42MSw5LjE3LDkuMTcsMCwwLDEtMS0uMDVabS41NSwzLjczYTQsNCwwLDAsMCwuNTUsMEExLjYyLDEuNjIsMCwwLDAsNi41OCw4LjkyLDEuNSwxLjUsMCwwLDAsNC44Nyw3LjNhMy4xNywzLjE3LDAsMCwwLS42MywwWiIvPjxwYXRoIGZpbGw9IiNmZmYiIGQ9Ik03Ljg2LDExLjExVjYuOWguNTlMOS44LDlhMTIuMTgsMTIuMTgsMCwwLDEsLjc2LDEuMzdoMGMtLjA1LS41Ni0uMDYtMS4wNy0uMDYtMS43M1Y2LjlIMTF2NC4yMWgtLjU1TDkuMTMsOWMtLjI5LS40Ny0uNTctMS0uNzktMS40aDBjMCwuNTMsMCwxLDAsMS43NHYxLjhaIi8+PHBhdGggZmlsbD0iI2ZmZiIgZD0iTTExLjg5LDEwLjQ1YTIsMiwwLDAsMCwxLC4yN2MuNTYsMCwuODgtLjI5Ljg4LS43MnMtLjIyLS42Mi0uNzktLjgzLTEuMTItLjYtMS4xMi0xLjJhMS4yMiwxLjIyLDAsMCwxLDEuMzctMS4xNCwyLDIsMCwwLDEsLjkzLjJMMTQsNy40OGExLjYzLDEuNjMsMCwwLDAtLjgtLjJjLS41OCwwLS44LjM0LS44LjYzcy4yNi41OS44NC44MSwxLjA4LjYyLDEuMDgsMS4yNC0uNDgsMS4yMS0xLjQ4LDEuMjFhMi4xNiwyLjE2LDAsMCwxLTEuMDctLjI3WiIvPjwvc3ZnPg==;fontFamily=Tahoma;fontSize=10;labelPosition=right;align=left;" parent="1" vertex="1">
          <mxGeometry x="1120" y="190" width="40" height="40" as="geometry" />
        </mxCell>
        <mxCell id="IkQXpn9ixrnxDfD2KMmo-38" value="mil-x-redis" style="shape=image;verticalLabelPosition=bottom;labelBackgroundColor=none;verticalAlign=top;aspect=fixed;imageAspect=0;image=data:image/svg+xml,PHN2ZyB4bWxucz0iaHR0cDovL3d3dy53My5vcmcvMjAwMC9zdmciIHZpZXdCb3g9IjAgMCAxOCAxOCIgaGVpZ2h0PSIxOCIgd2lkdGg9IjE4IiBpZD0iYTRjMGE2ZGYtNzA3ZS00YWU3LTliODYtNzQyZTRmOTY1MWUwIj48ZGVmcz48bGluZWFyR3JhZGllbnQgZ3JhZGllbnRVbml0cz0idXNlclNwYWNlT25Vc2UiIHkyPSI3LjM3IiB4Mj0iMTcuNSIgeTE9IjcuMzciIHgxPSI5LjUiIGlkPSJhYzQyMGU0Ny1mMTkwLTQ2ZGYtYWIxNC03ZTFmOGZhM2E5M2QiPjxzdG9wIHN0b3AtY29sb3I9IiMwMDViYTEiIG9mZnNldD0iMCIvPjxzdG9wIHN0b3AtY29sb3I9IiMwMDYwYTkiIG9mZnNldD0iMC4wNyIvPjxzdG9wIHN0b3AtY29sb3I9IiMwMDcxYzgiIG9mZnNldD0iMC4zNiIvPjxzdG9wIHN0b3AtY29sb3I9IiMwMDc4ZDQiIG9mZnNldD0iMC41MiIvPjxzdG9wIHN0b3AtY29sb3I9IiMwMDViYTEiIG9mZnNldD0iMSIvPjwvbGluZWFyR3JhZGllbnQ+PGxpbmVhckdyYWRpZW50IGdyYWRpZW50VW5pdHM9InVzZXJTcGFjZU9uVXNlIiB5Mj0iNy4zNyIgeDI9IjguNSIgeTE9IjcuMzciIHgxPSIwLjUiIGlkPSJhNTFmZmQ4NC1hZjBhLTQ1N2EtYWJlZS0xZjcwNjU2ZGE1NmYiPjxzdG9wIHN0b3AtY29sb3I9IiMwMDViYTEiIG9mZnNldD0iMCIvPjxzdG9wIHN0b3AtY29sb3I9IiMwMDYwYTkiIG9mZnNldD0iMC4wNyIvPjxzdG9wIHN0b3AtY29sb3I9IiMwMDcxYzgiIG9mZnNldD0iMC4zNiIvPjxzdG9wIHN0b3AtY29sb3I9IiMwMDc4ZDQiIG9mZnNldD0iMC41MiIvPjxzdG9wIHN0b3AtY29sb3I9IiMwMDViYTEiIG9mZnNldD0iMSIvPjwvbGluZWFyR3JhZGllbnQ+PGxpbmVhckdyYWRpZW50IGdyYWRpZW50VW5pdHM9InVzZXJTcGFjZU9uVXNlIiB5Mj0iMTEuOSIgeDI9IjEzIiB5MT0iMTEuOSIgeDE9IjUiIGlkPSJiYmI0Yjg3ZS1iMWYwLTQwNDItYjZkNi05YjkxYjVkYWM3OTkiPjxzdG9wIHN0b3AtY29sb3I9IiMwMDViYTEiIG9mZnNldD0iMCIvPjxzdG9wIHN0b3AtY29sb3I9IiMwMDYwYTkiIG9mZnNldD0iMC4wNyIvPjxzdG9wIHN0b3AtY29sb3I9IiMwMDcxYzgiIG9mZnNldD0iMC4zNiIvPjxzdG9wIHN0b3AtY29sb3I9IiMwMDc4ZDQiIG9mZnNldD0iMC41MiIvPjxzdG9wIHN0b3AtY29sb3I9IiMwMDViYTEiIG9mZnNldD0iMSIvPjwvbGluZWFyR3JhZGllbnQ+PC9kZWZzPjx0aXRsZT5JY29uLWRhdGFiYXNlcy0xMzc8L3RpdGxlPjxwYXRoIGZpbGw9InVybCgjYWM0MjBlNDctZjE5MC00NmRmLWFiMTQtN2UxZjhmYTNhOTNkKSIgZD0iTTEzLjUsNC42MmMtMi4yMSwwLTQtLjU3LTQtMS4yOHY2Ljc5YzAsLjY5LDEuNzYsMS4yNiwzLjk1LDEuMjdoLjA1YzIuMjEsMCw0LS41Nyw0LTEuMjdWMy4zNEMxNy41LDQuMDUsMTUuNzEsNC42MiwxMy41LDQuNjJaIi8+PHBhdGggZmlsbD0iI2U4ZThlOCIgZD0iTTE3LjUsMy4zNGMwLC43MS0xLjc5LDEuMjgtNCwxLjI4cy00LS41Ny00LTEuMjgsMS43OS0xLjI3LDQtMS4yNyw0LC41Nyw0LDEuMjciLz48cGF0aCBmaWxsPSIjNTBlNmZmIiBkPSJNMTYuNTcsMy4yNGMwLC40NS0xLjM4LjgxLTMuMDcuODFzLTMuMDctLjM2LTMuMDctLjgxLDEuMzgtLjgxLDMuMDctLjgxLDMuMDcuMzYsMy4wNy44MSIvPjxwYXRoIGZpbGw9IiMzMmJlZGQiIGQ9Ik0xMy41LDMuNDNhOC42NSw4LjY1LDAsMCwwLTIuNDMuMyw3LjgsNy44LDAsMCwwLDIuNDMuMzIsNy44LDcuOCwwLDAsMCwyLjQzLS4zMkE4LjY1LDguNjUsMCwwLDAsMTMuNSwzLjQzWiIvPjxwYXRoIGZpbGw9InVybCgjYTUxZmZkODQtYWYwYS00NTdhLWFiZWUtMWY3MDY1NmRhNTZmKSIgZD0iTTQuNSw0LjYyYy0yLjIxLDAtNC0uNTctNC0xLjI4djYuNzljMCwuNjksMS43NiwxLjI2LDQsMS4yN2gwYzIuMjEsMCw0LS41Nyw0LTEuMjdWMy4zNEM4LjUsNC4wNSw2LjcxLDQuNjIsNC41LDQuNjJaIi8+PHBhdGggZmlsbD0iI2U4ZThlOCIgZD0iTTguNSwzLjM0YzAsLjcxLTEuNzksMS4yOC00LDEuMjhzLTQtLjU3LTQtMS4yOCwxLjc5LTEuMjcsNC0xLjI3LDQsLjU3LDQsMS4yNyIvPjxwYXRoIGZpbGw9IiM1MGU2ZmYiIGQ9Ik03LjU3LDMuMjRjMCwuNDUtMS4zOC44MS0zLjA3Ljgxcy0zLjA3LS4zNi0zLjA3LS44MSwxLjM4LS44MSwzLjA3LS44MSwzLjA3LjM2LDMuMDcuODEiLz48cGF0aCBmaWxsPSIjMzJiZWRkIiBkPSJNNC41LDMuNDNhOC42NSw4LjY1LDAsMCwwLTIuNDMuMyw3LjgsNy44LDAsMCwwLDIuNDMuMzIsNy44LDcuOCwwLDAsMCwyLjQzLS4zMkE4LjY1LDguNjUsMCwwLDAsNC41LDMuNDNaIi8+PGc+PHBhdGggZmlsbD0idXJsKCNiYmI0Yjg3ZS1iMWYwLTQwNDItYjZkNi05YjkxYjVkYWM3OTkpIiBkPSJNOSw5LjE1Yy0yLjIxLDAtNC0uNTctNC0xLjI4djYuNzljMCwuNywxLjc2LDEuMjYsMy45NSwxLjI3SDljMi4yMSwwLDQtLjU3LDQtMS4yN1Y3Ljg3QzEzLDguNTgsMTEuMjEsOS4xNSw5LDkuMTVaIi8+PHBhdGggZmlsbD0iI2U4ZThlOCIgZD0iTTEzLDcuODdjMCwuNzEtMS43OSwxLjI4LTQsMS4yOFM1LDguNTgsNSw3Ljg3LDYuNzksNi42LDksNi42czQsLjU3LDQsMS4yNyIvPjxwYXRoIGZpbGw9IiM1MGU2ZmYiIGQ9Ik0xMi4wNyw3Ljc3YzAsLjQ1LTEuMzguODEtMy4wNy44MXMtMy4wNy0uMzYtMy4wNy0uODFTNy4zMSw3LDksN3MzLjA3LjM2LDMuMDcuODEiLz48cGF0aCBmaWxsPSIjMzJiZWRkIiBkPSJNOSw4YTguNjUsOC42NSwwLDAsMC0yLjQzLjNBNy44LDcuOCwwLDAsMCw5LDguNThhNy44LDcuOCwwLDAsMCwyLjQzLS4zMkE4LjY1LDguNjUsMCwwLDAsOSw4WiIvPjwvZz48L3N2Zz4=;fontFamily=Tahoma;fontSize=10;" parent="1" vertex="1">
          <mxGeometry x="420" y="360" width="40" height="40" as="geometry" />
        </mxCell>
        <mxCell id="IkQXpn9ixrnxDfD2KMmo-39" value="" style="endArrow=open;html=1;rounded=0;endFill=0;fillColor=#f8cecc;strokeColor=#b85450;elbow=vertical;labelBackgroundColor=none;exitX=0.5;exitY=1;exitDx=0;exitDy=0;edgeStyle=orthogonalEdgeStyle;curved=1;" parent="1" source="IkQXpn9ixrnxDfD2KMmo-24" target="IkQXpn9ixrnxDfD2KMmo-33" edge="1">
          <mxGeometry width="50" height="50" relative="1" as="geometry">
            <mxPoint x="630" y="380" as="sourcePoint" />
            <mxPoint x="680" y="330" as="targetPoint" />
          </mxGeometry>
        </mxCell>
        <mxCell id="IkQXpn9ixrnxDfD2KMmo-40" value="" style="endArrow=open;html=1;rounded=0;endFill=0;fillColor=#f8cecc;strokeColor=#b85450;elbow=vertical;labelBackgroundColor=none;exitX=0.5;exitY=1;exitDx=0;exitDy=0;edgeStyle=orthogonalEdgeStyle;curved=1;" parent="1" source="IkQXpn9ixrnxDfD2KMmo-31" target="IkQXpn9ixrnxDfD2KMmo-38" edge="1">
          <mxGeometry width="50" height="50" relative="1" as="geometry">
            <mxPoint x="410" y="150" as="sourcePoint" />
            <mxPoint x="410" y="350" as="targetPoint" />
          </mxGeometry>
        </mxCell>
        <mxCell id="IkQXpn9ixrnxDfD2KMmo-31" value="mil-x-redis-private-endpoint" style="shape=image;verticalLabelPosition=bottom;labelBackgroundColor=#DAE8FC;verticalAlign=top;aspect=fixed;imageAspect=0;image=data:image/svg+xml,PHN2ZyB4bWxucz0iaHR0cDovL3d3dy53My5vcmcvMjAwMC9zdmciIHZpZXdCb3g9IjAgMCAxOCAxOCIgaGVpZ2h0PSIxOCIgd2lkdGg9IjE4Ij48ZGVmcz48bGluZWFyR3JhZGllbnQgZ3JhZGllbnRVbml0cz0idXNlclNwYWNlT25Vc2UiIGdyYWRpZW50VHJhbnNmb3JtPSJtYXRyaXgoMSwgMCwgMCwgLTEsIDAsIDc5MS41MTYpIiB5Mj0iNzg3LjQ5MiIgeDI9IjkuMDg0IiB5MT0iNzkwLjk2NyIgeDE9IjkuMDg0IiBpZD0iZjM4NmJiN2EtYmNiMi00YjY3LWI1YjItMDY4MTk2MThmZjUxIj48c3RvcCBzdG9wLWNvbG9yPSIjNTBlNmZmIiBvZmZzZXQ9IjAiLz48c3RvcCBzdG9wLWNvbG9yPSIjMzJiZWRkIiBvZmZzZXQ9IjEiLz48L2xpbmVhckdyYWRpZW50PjxsaW5lYXJHcmFkaWVudCBncmFkaWVudFVuaXRzPSJ1c2VyU3BhY2VPblVzZSIgeTI9IjEwLjM2OCIgeDI9IjkuMDY1IiB5MT0iMTMuODQzIiB4MT0iOS4wNjUiIGlkPSJhNjJhOWNhZC1iMTczLTQ3ODUtYmE4MS04ZWUzMGQ0ZGM2ZWIiPjxzdG9wIHN0b3AtY29sb3I9IiM1ZTk2MjQiIG9mZnNldD0iMCIvPjxzdG9wIHN0b3AtY29sb3I9IiM2MjljMjUiIG9mZnNldD0iMC4xODMiLz48c3RvcCBzdG9wLWNvbG9yPSIjNmRhZTJhIiBvZmZzZXQ9IjAuNDM1Ii8+PHN0b3Agc3RvcC1jb2xvcj0iIzdmY2IzMCIgb2Zmc2V0PSIwLjcyNiIvPjxzdG9wIHN0b3AtY29sb3I9IiM4NmQ2MzMiIG9mZnNldD0iMC44MjIiLz48L2xpbmVhckdyYWRpZW50PjwvZGVmcz48ZyBpZD0iYmRjZDcyNjgtMzFmYy00MTYzLTk1NDQtNjUxZDYxZjE0OThlIj48Zz48cGF0aCBmaWxsPSIjYjNiM2IzIiBkPSJNNy44NSwxMy4zNDJhMS43MzgsMS43MzgsMCwxLDAsMi40MzYtMi40NzksMS43MTUsMS43MTUsMCwwLDAtLjYyNi0uMzg5VjMuMDA5SDguNTQ4djcuNDQ0YTEuNzI5LDEuNzI5LDAsMCwwLS43LDIuODkxWiIvPjxjaXJjbGUgZmlsbD0idXJsKCNmMzg2YmI3YS1iY2IyLTRiNjctYjViMi0wNjgxOTYxOGZmNTEpIiByPSIxLjczOCIgY3k9IjIuMjA5IiBjeD0iOS4wODQiLz48Zz48cGF0aCBmaWxsPSIjNTBlNmZmIiB0cmFuc2Zvcm09InRyYW5zbGF0ZSgxNS40NTIgMjIuMjkyKSByb3RhdGUoMTM0LjkxOSkiIGQ9Ik0yLjYzMiwxMC40NDloLjkzN2EuMy4zLDAsMCwxLC4zLjN2Ni45MDlhLjYuNiwwLDAsMS0uNi42SDIuMzMyYTAsMCwwLDAsMSwwLDBWMTAuNzQ5QS4zLjMsMCwwLDEsMi42MzIsMTAuNDQ5WiIvPjxwYXRoIGZpbGw9IiMxNDkwZGYiIHRyYW5zZm9ybT0idHJhbnNsYXRlKDcuOTEgMC43NDkpIHJvdGF0ZSg0NC45MTkpIiBkPSJNMi41ODEsNi4wOTNoLjkzN2EuMy4zLDAsMCwxLC4zLjN2Ny40YTAsMCwwLDAsMSwwLDBIMi44OGEuNi42LDAsMCwxLS42LS42di02LjhBLjMuMywwLDAsMSwyLjU4MSw2LjA5M1oiLz48cGF0aCBmaWxsPSIjNTBlNmZmIiB0cmFuc2Zvcm09InRyYW5zbGF0ZSgxNC41NDIgLTYuMzMzKSByb3RhdGUoNDUuMDgxKSIgZD0iTTE0LjEzMiwxMC40NDloLjkzN2EuNi42LDAsMCwxLC42LjZ2Ni45MDlhLjMuMywwLDAsMS0uMy4zaC0uOTM3YS4zLjMsMCwwLDEtLjMtLjNWMTAuNDQ5YTAsMCwwLDAsMSwwLDBaIi8+PHBhdGggZmlsbD0iIzE0OTBkZiIgdHJhbnNmb3JtPSJ0cmFuc2xhdGUoMzIuNTU4IDYuNDI0KSByb3RhdGUoMTM1LjA4MSkiIGQ9Ik0xNC43ODIsNi4wOTNoLjkzN2EwLDAsMCwwLDEsMCwwdjcuNGEuMy4zLDAsMCwxLS4zLjNoLS45MzdhLjMuMywwLDAsMS0uMy0uM3YtNi44QS42LjYsMCwwLDEsMTQuNzgyLDYuMDkzWiIvPjwvZz48Y2lyY2xlIGZpbGw9InVybCgjYTYyYTljYWQtYjE3My00Nzg1LWJhODEtOGVlMzBkNGRjNmViKSIgcj0iMS43MzgiIGN5PSIxMi4xMDYiIGN4PSI5LjA2NSIvPjwvZz48L2c+PC9zdmc+;fontFamily=Tahoma;fontSize=10;" parent="1" vertex="1">
          <mxGeometry x="500" y="150" width="40" height="40" as="geometry" />
        </mxCell>
        <mxCell id="IkQXpn9ixrnxDfD2KMmo-41" value="" style="endArrow=open;html=1;rounded=0;endFill=0;fillColor=#f8cecc;strokeColor=#b85450;elbow=vertical;labelBackgroundColor=none;exitX=0.5;exitY=1;exitDx=0;exitDy=0;edgeStyle=orthogonalEdgeStyle;curved=1;" parent="1" source="IkQXpn9ixrnxDfD2KMmo-25" target="IkQXpn9ixrnxDfD2KMmo-34" edge="1">
          <mxGeometry width="50" height="50" relative="1" as="geometry">
            <mxPoint x="530" y="150" as="sourcePoint" />
            <mxPoint x="530" y="350" as="targetPoint" />
          </mxGeometry>
        </mxCell>
        <mxCell id="IkQXpn9ixrnxDfD2KMmo-25" value="mil-x-eventhub-pep" style="shape=image;verticalLabelPosition=bottom;labelBackgroundColor=#DAE8FC;verticalAlign=top;aspect=fixed;imageAspect=0;image=data:image/svg+xml,PHN2ZyB4bWxucz0iaHR0cDovL3d3dy53My5vcmcvMjAwMC9zdmciIHZpZXdCb3g9IjAgMCAxOCAxOCIgaGVpZ2h0PSIxOCIgd2lkdGg9IjE4Ij48ZGVmcz48bGluZWFyR3JhZGllbnQgZ3JhZGllbnRVbml0cz0idXNlclNwYWNlT25Vc2UiIGdyYWRpZW50VHJhbnNmb3JtPSJtYXRyaXgoMSwgMCwgMCwgLTEsIDAsIDc5MS41MTYpIiB5Mj0iNzg3LjQ5MiIgeDI9IjkuMDg0IiB5MT0iNzkwLjk2NyIgeDE9IjkuMDg0IiBpZD0iZjM4NmJiN2EtYmNiMi00YjY3LWI1YjItMDY4MTk2MThmZjUxIj48c3RvcCBzdG9wLWNvbG9yPSIjNTBlNmZmIiBvZmZzZXQ9IjAiLz48c3RvcCBzdG9wLWNvbG9yPSIjMzJiZWRkIiBvZmZzZXQ9IjEiLz48L2xpbmVhckdyYWRpZW50PjxsaW5lYXJHcmFkaWVudCBncmFkaWVudFVuaXRzPSJ1c2VyU3BhY2VPblVzZSIgeTI9IjEwLjM2OCIgeDI9IjkuMDY1IiB5MT0iMTMuODQzIiB4MT0iOS4wNjUiIGlkPSJhNjJhOWNhZC1iMTczLTQ3ODUtYmE4MS04ZWUzMGQ0ZGM2ZWIiPjxzdG9wIHN0b3AtY29sb3I9IiM1ZTk2MjQiIG9mZnNldD0iMCIvPjxzdG9wIHN0b3AtY29sb3I9IiM2MjljMjUiIG9mZnNldD0iMC4xODMiLz48c3RvcCBzdG9wLWNvbG9yPSIjNmRhZTJhIiBvZmZzZXQ9IjAuNDM1Ii8+PHN0b3Agc3RvcC1jb2xvcj0iIzdmY2IzMCIgb2Zmc2V0PSIwLjcyNiIvPjxzdG9wIHN0b3AtY29sb3I9IiM4NmQ2MzMiIG9mZnNldD0iMC44MjIiLz48L2xpbmVhckdyYWRpZW50PjwvZGVmcz48ZyBpZD0iYmRjZDcyNjgtMzFmYy00MTYzLTk1NDQtNjUxZDYxZjE0OThlIj48Zz48cGF0aCBmaWxsPSIjYjNiM2IzIiBkPSJNNy44NSwxMy4zNDJhMS43MzgsMS43MzgsMCwxLDAsMi40MzYtMi40NzksMS43MTUsMS43MTUsMCwwLDAtLjYyNi0uMzg5VjMuMDA5SDguNTQ4djcuNDQ0YTEuNzI5LDEuNzI5LDAsMCwwLS43LDIuODkxWiIvPjxjaXJjbGUgZmlsbD0idXJsKCNmMzg2YmI3YS1iY2IyLTRiNjctYjViMi0wNjgxOTYxOGZmNTEpIiByPSIxLjczOCIgY3k9IjIuMjA5IiBjeD0iOS4wODQiLz48Zz48cGF0aCBmaWxsPSIjNTBlNmZmIiB0cmFuc2Zvcm09InRyYW5zbGF0ZSgxNS40NTIgMjIuMjkyKSByb3RhdGUoMTM0LjkxOSkiIGQ9Ik0yLjYzMiwxMC40NDloLjkzN2EuMy4zLDAsMCwxLC4zLjN2Ni45MDlhLjYuNiwwLDAsMS0uNi42SDIuMzMyYTAsMCwwLDAsMSwwLDBWMTAuNzQ5QS4zLjMsMCwwLDEsMi42MzIsMTAuNDQ5WiIvPjxwYXRoIGZpbGw9IiMxNDkwZGYiIHRyYW5zZm9ybT0idHJhbnNsYXRlKDcuOTEgMC43NDkpIHJvdGF0ZSg0NC45MTkpIiBkPSJNMi41ODEsNi4wOTNoLjkzN2EuMy4zLDAsMCwxLC4zLjN2Ny40YTAsMCwwLDAsMSwwLDBIMi44OGEuNi42LDAsMCwxLS42LS42di02LjhBLjMuMywwLDAsMSwyLjU4MSw2LjA5M1oiLz48cGF0aCBmaWxsPSIjNTBlNmZmIiB0cmFuc2Zvcm09InRyYW5zbGF0ZSgxNC41NDIgLTYuMzMzKSByb3RhdGUoNDUuMDgxKSIgZD0iTTE0LjEzMiwxMC40NDloLjkzN2EuNi42LDAsMCwxLC42LjZ2Ni45MDlhLjMuMywwLDAsMS0uMy4zaC0uOTM3YS4zLjMsMCwwLDEtLjMtLjNWMTAuNDQ5YTAsMCwwLDAsMSwwLDBaIi8+PHBhdGggZmlsbD0iIzE0OTBkZiIgdHJhbnNmb3JtPSJ0cmFuc2xhdGUoMzIuNTU4IDYuNDI0KSByb3RhdGUoMTM1LjA4MSkiIGQ9Ik0xNC43ODIsNi4wOTNoLjkzN2EwLDAsMCwwLDEsMCwwdjcuNGEuMy4zLDAsMCwxLS4zLjNoLS45MzdhLjMuMywwLDAsMS0uMy0uM3YtNi44QS42LjYsMCwwLDEsMTQuNzgyLDYuMDkzWiIvPjwvZz48Y2lyY2xlIGZpbGw9InVybCgjYTYyYTljYWQtYjE3My00Nzg1LWJhODEtOGVlMzBkNGRjNmViKSIgcj0iMS43MzgiIGN5PSIxMi4xMDYiIGN4PSI5LjA2NSIvPjwvZz48L2c+PC9zdmc+;fontFamily=Tahoma;fontSize=10;" parent="1" vertex="1">
          <mxGeometry x="620" y="150" width="40" height="40" as="geometry" />
        </mxCell>
        <mxCell id="IkQXpn9ixrnxDfD2KMmo-42" value="" style="shape=image;verticalLabelPosition=bottom;labelBackgroundColor=none;verticalAlign=top;aspect=fixed;imageAspect=0;image=data:image/svg+xml,PHN2ZyB4bWxucz0iaHR0cDovL3d3dy53My5vcmcvMjAwMC9zdmciIHZpZXdCb3g9IjAgMCAxOCAxOCIgaGVpZ2h0PSIxOCIgd2lkdGg9IjE4IiBpZD0iZTAwNTA3MjEtZThkOC00Yzc5LWFlNTAtZDhmYzI4NzFkOTMyIj48ZGVmcz48bGluZWFyR3JhZGllbnQgZ3JhZGllbnRVbml0cz0idXNlclNwYWNlT25Vc2UiIHkyPSIxLjUiIHgyPSI5LjAxIiB5MT0iMTYuNSIgeDE9IjkuMDEiIGlkPSJmY2FkMzI4Ny1iNzFjLTQ0ZmEtOTcxYS02YTE4YmNmMzg0YTAiPjxzdG9wIHN0b3AtY29sb3I9IiM1ZTk2NDEiIG9mZnNldD0iMCIvPjxzdG9wIHN0b3AtY29sb3I9IiM2YmFhNDIiIG9mZnNldD0iMC4zNCIvPjxzdG9wIHN0b3AtY29sb3I9IiM3M2I3NDMiIG9mZnNldD0iMC42NyIvPjxzdG9wIHN0b3AtY29sb3I9IiM3NmJiNDMiIG9mZnNldD0iMSIvPjwvbGluZWFyR3JhZGllbnQ+PC9kZWZzPjx0aXRsZT5JY29uLW5ldHdvcmtpbmctODA8L3RpdGxlPjxwYXRoIGZpbGw9IiNmZmNhMDAiIGQ9Ik0xNS44OSwyLjkxaDEuMjdhLjM0LjM0LDAsMCwxLC4zNC4zNHYzLjVhLjM0LjM0LDAsMCwxLS4zNC4zNEgxNS44OWEwLDAsMCwwLDEsMCwwVjIuOTFBMCwwLDAsMCwxLDE1Ljg5LDIuOTFaIi8+PHBhdGggZmlsbD0iI2ZmY2EwMCIgZD0iTTE1Ljg5LDloMS4yN2EuMzQuMzQsMCwwLDEsLjM0LjM0djUuODZhLjM0LjM0LDAsMCwxLS4zNC4zNEgxNS44OWEwLDAsMCwwLDEsMCwwVjlBMCwwLDAsMCwxLDE1Ljg5LDlaIi8+PHJlY3QgZmlsbD0idXJsKCNmY2FkMzI4Ny1iNzFjLTQ0ZmEtOTcxYS02YTE4YmNmMzg0YTApIiByeD0iMC42OSIgaGVpZ2h0PSIxNSIgd2lkdGg9IjEzLjc2IiB5PSIxLjUiIHg9IjIuMTMiLz48cGF0aCBmaWxsPSIjYjRlYzM2IiBkPSJNNS45LDEyLjlINS4xOUEuMi4yLDAsMCwxLDUsMTIuNjlWNC4zNGEuMTkuMTksMCwwLDEsLjE5LS4ySDcuMTJhLjE5LjE5LDAsMCwxLC4xOS4yLjIuMiwwLDAsMS0uMTkuMjFINS4zOHY3LjkzSDUuOWEuMi4yLDAsMCwxLC4xOS4yMUEuMjEuMjEsMCwwLDEsNS45LDEyLjlaIi8+PHBhdGggZmlsbD0iI2I0ZWMzNiIgZD0iTTYsMTMuOTJINC40YS4yLjIsMCwwLDEtLjE5LS4yMUw0LjA4LDMuMzhhLjIuMiwwLDAsMSwuMDYtLjE1LjE2LjE2LDAsMCwxLC4xMy0uMDZINy4xMnYuNDFINC40N2wuMTIsOS45Mkg2WiIvPjxwYXRoIGZpbGw9IiNiNGVjMzYiIGQ9Ik0xMiwxM0gxMC40MWEuMTkuMTksMCwwLDEtLjE0LS4wNy4xOC4xOCwwLDAsMS0uMDYtLjE0VjcuOWEuMTkuMTksMCwwLDEsLjE5LS4ybC45MSwwLDAtMi4yNWguMzhsMCwyLjQ0YS4yLjIsMCwwLDEtLjE4LjIxbC0uOTEsMHY0LjQySDEyWiIvPjxyZWN0IGZpbGw9IiMzNjU2MTUiIHJ4PSIwLjI2IiBoZWlnaHQ9IjMuMTEiIHdpZHRoPSI2LjE0IiB5PSIyLjI5IiB4PSI3LjA3Ii8+PHJlY3QgZmlsbD0iIzM2NTYxNSIgdHJhbnNmb3JtPSJ0cmFuc2xhdGUoMjEuNTQgNC45Mykgcm90YXRlKDkwKSIgcng9IjAuMjYiIGhlaWdodD0iMS4wOSIgd2lkdGg9IjQuOSIgeT0iMTIuNjkiIHg9IjUuODYiLz48cmVjdCBmaWxsPSIjMzY1NjE1IiB0cmFuc2Zvcm09InRyYW5zbGF0ZSgxOS43IDYuODIpIHJvdGF0ZSg5MCkiIHJ4PSIwLjI2IiBoZWlnaHQ9IjEuMDkiIHdpZHRoPSI0LjkiIHk9IjEyLjcxIiB4PSIzLjk5Ii8+PHJlY3QgZmlsbD0iI2YyZjJmMiIgdHJhbnNmb3JtPSJ0cmFuc2xhdGUoMjUuNjggMC44Mykgcm90YXRlKDkwKSIgcng9IjAuMjYiIGhlaWdodD0iMS4wOSIgd2lkdGg9IjQuOSIgeT0iMTIuNzEiIHg9IjkuOTgiLz48ZWxsaXBzZSBmaWxsPSIjZjJmMmYyIiByeT0iMS4xMiIgcng9IjEuMDQiIGN5PSI4LjA2IiBjeD0iOC4xMSIvPjxwYXRoIGZpbGw9IiMzYjNiM2IiIHRyYW5zZm9ybT0idHJhbnNsYXRlKDIuNjEgMTcuOTUpIHJvdGF0ZSgxODApIiBkPSJNLjUsNS43SDEuNzdBLjM0LjM0LDAsMCwxLDIuMTEsNnY1Ljg2YS4zNC4zNCwwLDAsMS0uMzQuMzRILjVhMCwwLDAsMCwxLDAsMFY1LjdBMCwwLDAsMCwxLC41LDUuN1oiLz48L3N2Zz4=;" parent="1" vertex="1">
          <mxGeometry x="420" y="130" width="20" height="20" as="geometry" />
        </mxCell>
        <mxCell id="IkQXpn9ixrnxDfD2KMmo-43" value="" style="shape=image;verticalLabelPosition=bottom;labelBackgroundColor=none;verticalAlign=top;aspect=fixed;imageAspect=0;image=data:image/svg+xml,PHN2ZyB4bWxucz0iaHR0cDovL3d3dy53My5vcmcvMjAwMC9zdmciIHZpZXdCb3g9IjAgMCAxOCAxOCIgaGVpZ2h0PSIxOCIgd2lkdGg9IjE4IiBpZD0iZTAwNTA3MjEtZThkOC00Yzc5LWFlNTAtZDhmYzI4NzFkOTMyIj48ZGVmcz48bGluZWFyR3JhZGllbnQgZ3JhZGllbnRVbml0cz0idXNlclNwYWNlT25Vc2UiIHkyPSIxLjUiIHgyPSI5LjAxIiB5MT0iMTYuNSIgeDE9IjkuMDEiIGlkPSJmY2FkMzI4Ny1iNzFjLTQ0ZmEtOTcxYS02YTE4YmNmMzg0YTAiPjxzdG9wIHN0b3AtY29sb3I9IiM1ZTk2NDEiIG9mZnNldD0iMCIvPjxzdG9wIHN0b3AtY29sb3I9IiM2YmFhNDIiIG9mZnNldD0iMC4zNCIvPjxzdG9wIHN0b3AtY29sb3I9IiM3M2I3NDMiIG9mZnNldD0iMC42NyIvPjxzdG9wIHN0b3AtY29sb3I9IiM3NmJiNDMiIG9mZnNldD0iMSIvPjwvbGluZWFyR3JhZGllbnQ+PC9kZWZzPjx0aXRsZT5JY29uLW5ldHdvcmtpbmctODA8L3RpdGxlPjxwYXRoIGZpbGw9IiNmZmNhMDAiIGQ9Ik0xNS44OSwyLjkxaDEuMjdhLjM0LjM0LDAsMCwxLC4zNC4zNHYzLjVhLjM0LjM0LDAsMCwxLS4zNC4zNEgxNS44OWEwLDAsMCwwLDEsMCwwVjIuOTFBMCwwLDAsMCwxLDE1Ljg5LDIuOTFaIi8+PHBhdGggZmlsbD0iI2ZmY2EwMCIgZD0iTTE1Ljg5LDloMS4yN2EuMzQuMzQsMCwwLDEsLjM0LjM0djUuODZhLjM0LjM0LDAsMCwxLS4zNC4zNEgxNS44OWEwLDAsMCwwLDEsMCwwVjlBMCwwLDAsMCwxLDE1Ljg5LDlaIi8+PHJlY3QgZmlsbD0idXJsKCNmY2FkMzI4Ny1iNzFjLTQ0ZmEtOTcxYS02YTE4YmNmMzg0YTApIiByeD0iMC42OSIgaGVpZ2h0PSIxNSIgd2lkdGg9IjEzLjc2IiB5PSIxLjUiIHg9IjIuMTMiLz48cGF0aCBmaWxsPSIjYjRlYzM2IiBkPSJNNS45LDEyLjlINS4xOUEuMi4yLDAsMCwxLDUsMTIuNjlWNC4zNGEuMTkuMTksMCwwLDEsLjE5LS4ySDcuMTJhLjE5LjE5LDAsMCwxLC4xOS4yLjIuMiwwLDAsMS0uMTkuMjFINS4zOHY3LjkzSDUuOWEuMi4yLDAsMCwxLC4xOS4yMUEuMjEuMjEsMCwwLDEsNS45LDEyLjlaIi8+PHBhdGggZmlsbD0iI2I0ZWMzNiIgZD0iTTYsMTMuOTJINC40YS4yLjIsMCwwLDEtLjE5LS4yMUw0LjA4LDMuMzhhLjIuMiwwLDAsMSwuMDYtLjE1LjE2LjE2LDAsMCwxLC4xMy0uMDZINy4xMnYuNDFINC40N2wuMTIsOS45Mkg2WiIvPjxwYXRoIGZpbGw9IiNiNGVjMzYiIGQ9Ik0xMiwxM0gxMC40MWEuMTkuMTksMCwwLDEtLjE0LS4wNy4xOC4xOCwwLDAsMS0uMDYtLjE0VjcuOWEuMTkuMTksMCwwLDEsLjE5LS4ybC45MSwwLDAtMi4yNWguMzhsMCwyLjQ0YS4yLjIsMCwwLDEtLjE4LjIxbC0uOTEsMHY0LjQySDEyWiIvPjxyZWN0IGZpbGw9IiMzNjU2MTUiIHJ4PSIwLjI2IiBoZWlnaHQ9IjMuMTEiIHdpZHRoPSI2LjE0IiB5PSIyLjI5IiB4PSI3LjA3Ii8+PHJlY3QgZmlsbD0iIzM2NTYxNSIgdHJhbnNmb3JtPSJ0cmFuc2xhdGUoMjEuNTQgNC45Mykgcm90YXRlKDkwKSIgcng9IjAuMjYiIGhlaWdodD0iMS4wOSIgd2lkdGg9IjQuOSIgeT0iMTIuNjkiIHg9IjUuODYiLz48cmVjdCBmaWxsPSIjMzY1NjE1IiB0cmFuc2Zvcm09InRyYW5zbGF0ZSgxOS43IDYuODIpIHJvdGF0ZSg5MCkiIHJ4PSIwLjI2IiBoZWlnaHQ9IjEuMDkiIHdpZHRoPSI0LjkiIHk9IjEyLjcxIiB4PSIzLjk5Ii8+PHJlY3QgZmlsbD0iI2YyZjJmMiIgdHJhbnNmb3JtPSJ0cmFuc2xhdGUoMjUuNjggMC44Mykgcm90YXRlKDkwKSIgcng9IjAuMjYiIGhlaWdodD0iMS4wOSIgd2lkdGg9IjQuOSIgeT0iMTIuNzEiIHg9IjkuOTgiLz48ZWxsaXBzZSBmaWxsPSIjZjJmMmYyIiByeT0iMS4xMiIgcng9IjEuMDQiIGN5PSI4LjA2IiBjeD0iOC4xMSIvPjxwYXRoIGZpbGw9IiMzYjNiM2IiIHRyYW5zZm9ybT0idHJhbnNsYXRlKDIuNjEgMTcuOTUpIHJvdGF0ZSgxODApIiBkPSJNLjUsNS43SDEuNzdBLjM0LjM0LDAsMCwxLDIuMTEsNnY1Ljg2YS4zNC4zNCwwLDAsMS0uMzQuMzRILjVhMCwwLDAsMCwxLDAsMFY1LjdBMCwwLDAsMCwxLC41LDUuN1oiLz48L3N2Zz4=;" parent="1" vertex="1">
          <mxGeometry x="540" y="130" width="20" height="20" as="geometry" />
        </mxCell>
        <mxCell id="IkQXpn9ixrnxDfD2KMmo-44" value="" style="shape=image;verticalLabelPosition=bottom;labelBackgroundColor=none;verticalAlign=top;aspect=fixed;imageAspect=0;image=data:image/svg+xml,PHN2ZyB4bWxucz0iaHR0cDovL3d3dy53My5vcmcvMjAwMC9zdmciIHZpZXdCb3g9IjAgMCAxOCAxOCIgaGVpZ2h0PSIxOCIgd2lkdGg9IjE4IiBpZD0iZTAwNTA3MjEtZThkOC00Yzc5LWFlNTAtZDhmYzI4NzFkOTMyIj48ZGVmcz48bGluZWFyR3JhZGllbnQgZ3JhZGllbnRVbml0cz0idXNlclNwYWNlT25Vc2UiIHkyPSIxLjUiIHgyPSI5LjAxIiB5MT0iMTYuNSIgeDE9IjkuMDEiIGlkPSJmY2FkMzI4Ny1iNzFjLTQ0ZmEtOTcxYS02YTE4YmNmMzg0YTAiPjxzdG9wIHN0b3AtY29sb3I9IiM1ZTk2NDEiIG9mZnNldD0iMCIvPjxzdG9wIHN0b3AtY29sb3I9IiM2YmFhNDIiIG9mZnNldD0iMC4zNCIvPjxzdG9wIHN0b3AtY29sb3I9IiM3M2I3NDMiIG9mZnNldD0iMC42NyIvPjxzdG9wIHN0b3AtY29sb3I9IiM3NmJiNDMiIG9mZnNldD0iMSIvPjwvbGluZWFyR3JhZGllbnQ+PC9kZWZzPjx0aXRsZT5JY29uLW5ldHdvcmtpbmctODA8L3RpdGxlPjxwYXRoIGZpbGw9IiNmZmNhMDAiIGQ9Ik0xNS44OSwyLjkxaDEuMjdhLjM0LjM0LDAsMCwxLC4zNC4zNHYzLjVhLjM0LjM0LDAsMCwxLS4zNC4zNEgxNS44OWEwLDAsMCwwLDEsMCwwVjIuOTFBMCwwLDAsMCwxLDE1Ljg5LDIuOTFaIi8+PHBhdGggZmlsbD0iI2ZmY2EwMCIgZD0iTTE1Ljg5LDloMS4yN2EuMzQuMzQsMCwwLDEsLjM0LjM0djUuODZhLjM0LjM0LDAsMCwxLS4zNC4zNEgxNS44OWEwLDAsMCwwLDEsMCwwVjlBMCwwLDAsMCwxLDE1Ljg5LDlaIi8+PHJlY3QgZmlsbD0idXJsKCNmY2FkMzI4Ny1iNzFjLTQ0ZmEtOTcxYS02YTE4YmNmMzg0YTApIiByeD0iMC42OSIgaGVpZ2h0PSIxNSIgd2lkdGg9IjEzLjc2IiB5PSIxLjUiIHg9IjIuMTMiLz48cGF0aCBmaWxsPSIjYjRlYzM2IiBkPSJNNS45LDEyLjlINS4xOUEuMi4yLDAsMCwxLDUsMTIuNjlWNC4zNGEuMTkuMTksMCwwLDEsLjE5LS4ySDcuMTJhLjE5LjE5LDAsMCwxLC4xOS4yLjIuMiwwLDAsMS0uMTkuMjFINS4zOHY3LjkzSDUuOWEuMi4yLDAsMCwxLC4xOS4yMUEuMjEuMjEsMCwwLDEsNS45LDEyLjlaIi8+PHBhdGggZmlsbD0iI2I0ZWMzNiIgZD0iTTYsMTMuOTJINC40YS4yLjIsMCwwLDEtLjE5LS4yMUw0LjA4LDMuMzhhLjIuMiwwLDAsMSwuMDYtLjE1LjE2LjE2LDAsMCwxLC4xMy0uMDZINy4xMnYuNDFINC40N2wuMTIsOS45Mkg2WiIvPjxwYXRoIGZpbGw9IiNiNGVjMzYiIGQ9Ik0xMiwxM0gxMC40MWEuMTkuMTksMCwwLDEtLjE0LS4wNy4xOC4xOCwwLDAsMS0uMDYtLjE0VjcuOWEuMTkuMTksMCwwLDEsLjE5LS4ybC45MSwwLDAtMi4yNWguMzhsMCwyLjQ0YS4yLjIsMCwwLDEtLjE4LjIxbC0uOTEsMHY0LjQySDEyWiIvPjxyZWN0IGZpbGw9IiMzNjU2MTUiIHJ4PSIwLjI2IiBoZWlnaHQ9IjMuMTEiIHdpZHRoPSI2LjE0IiB5PSIyLjI5IiB4PSI3LjA3Ii8+PHJlY3QgZmlsbD0iIzM2NTYxNSIgdHJhbnNmb3JtPSJ0cmFuc2xhdGUoMjEuNTQgNC45Mykgcm90YXRlKDkwKSIgcng9IjAuMjYiIGhlaWdodD0iMS4wOSIgd2lkdGg9IjQuOSIgeT0iMTIuNjkiIHg9IjUuODYiLz48cmVjdCBmaWxsPSIjMzY1NjE1IiB0cmFuc2Zvcm09InRyYW5zbGF0ZSgxOS43IDYuODIpIHJvdGF0ZSg5MCkiIHJ4PSIwLjI2IiBoZWlnaHQ9IjEuMDkiIHdpZHRoPSI0LjkiIHk9IjEyLjcxIiB4PSIzLjk5Ii8+PHJlY3QgZmlsbD0iI2YyZjJmMiIgdHJhbnNmb3JtPSJ0cmFuc2xhdGUoMjUuNjggMC44Mykgcm90YXRlKDkwKSIgcng9IjAuMjYiIGhlaWdodD0iMS4wOSIgd2lkdGg9IjQuOSIgeT0iMTIuNzEiIHg9IjkuOTgiLz48ZWxsaXBzZSBmaWxsPSIjZjJmMmYyIiByeT0iMS4xMiIgcng9IjEuMDQiIGN5PSI4LjA2IiBjeD0iOC4xMSIvPjxwYXRoIGZpbGw9IiMzYjNiM2IiIHRyYW5zZm9ybT0idHJhbnNsYXRlKDIuNjEgMTcuOTUpIHJvdGF0ZSgxODApIiBkPSJNLjUsNS43SDEuNzdBLjM0LjM0LDAsMCwxLDIuMTEsNnY1Ljg2YS4zNC4zNCwwLDAsMS0uMzQuMzRILjVhMCwwLDAsMCwxLDAsMFY1LjdBMCwwLDAsMCwxLC41LDUuN1oiLz48L3N2Zz4=;" parent="1" vertex="1">
          <mxGeometry x="660" y="130" width="20" height="20" as="geometry" />
        </mxCell>
        <mxCell id="IkQXpn9ixrnxDfD2KMmo-45" value="" style="shape=image;verticalLabelPosition=bottom;labelBackgroundColor=none;verticalAlign=top;aspect=fixed;imageAspect=0;image=data:image/svg+xml,PHN2ZyB4bWxucz0iaHR0cDovL3d3dy53My5vcmcvMjAwMC9zdmciIHZpZXdCb3g9IjAgMCAxOCAxOCIgaGVpZ2h0PSIxOCIgd2lkdGg9IjE4IiBpZD0iZTAwNTA3MjEtZThkOC00Yzc5LWFlNTAtZDhmYzI4NzFkOTMyIj48ZGVmcz48bGluZWFyR3JhZGllbnQgZ3JhZGllbnRVbml0cz0idXNlclNwYWNlT25Vc2UiIHkyPSIxLjUiIHgyPSI5LjAxIiB5MT0iMTYuNSIgeDE9IjkuMDEiIGlkPSJmY2FkMzI4Ny1iNzFjLTQ0ZmEtOTcxYS02YTE4YmNmMzg0YTAiPjxzdG9wIHN0b3AtY29sb3I9IiM1ZTk2NDEiIG9mZnNldD0iMCIvPjxzdG9wIHN0b3AtY29sb3I9IiM2YmFhNDIiIG9mZnNldD0iMC4zNCIvPjxzdG9wIHN0b3AtY29sb3I9IiM3M2I3NDMiIG9mZnNldD0iMC42NyIvPjxzdG9wIHN0b3AtY29sb3I9IiM3NmJiNDMiIG9mZnNldD0iMSIvPjwvbGluZWFyR3JhZGllbnQ+PC9kZWZzPjx0aXRsZT5JY29uLW5ldHdvcmtpbmctODA8L3RpdGxlPjxwYXRoIGZpbGw9IiNmZmNhMDAiIGQ9Ik0xNS44OSwyLjkxaDEuMjdhLjM0LjM0LDAsMCwxLC4zNC4zNHYzLjVhLjM0LjM0LDAsMCwxLS4zNC4zNEgxNS44OWEwLDAsMCwwLDEsMCwwVjIuOTFBMCwwLDAsMCwxLDE1Ljg5LDIuOTFaIi8+PHBhdGggZmlsbD0iI2ZmY2EwMCIgZD0iTTE1Ljg5LDloMS4yN2EuMzQuMzQsMCwwLDEsLjM0LjM0djUuODZhLjM0LjM0LDAsMCwxLS4zNC4zNEgxNS44OWEwLDAsMCwwLDEsMCwwVjlBMCwwLDAsMCwxLDE1Ljg5LDlaIi8+PHJlY3QgZmlsbD0idXJsKCNmY2FkMzI4Ny1iNzFjLTQ0ZmEtOTcxYS02YTE4YmNmMzg0YTApIiByeD0iMC42OSIgaGVpZ2h0PSIxNSIgd2lkdGg9IjEzLjc2IiB5PSIxLjUiIHg9IjIuMTMiLz48cGF0aCBmaWxsPSIjYjRlYzM2IiBkPSJNNS45LDEyLjlINS4xOUEuMi4yLDAsMCwxLDUsMTIuNjlWNC4zNGEuMTkuMTksMCwwLDEsLjE5LS4ySDcuMTJhLjE5LjE5LDAsMCwxLC4xOS4yLjIuMiwwLDAsMS0uMTkuMjFINS4zOHY3LjkzSDUuOWEuMi4yLDAsMCwxLC4xOS4yMUEuMjEuMjEsMCwwLDEsNS45LDEyLjlaIi8+PHBhdGggZmlsbD0iI2I0ZWMzNiIgZD0iTTYsMTMuOTJINC40YS4yLjIsMCwwLDEtLjE5LS4yMUw0LjA4LDMuMzhhLjIuMiwwLDAsMSwuMDYtLjE1LjE2LjE2LDAsMCwxLC4xMy0uMDZINy4xMnYuNDFINC40N2wuMTIsOS45Mkg2WiIvPjxwYXRoIGZpbGw9IiNiNGVjMzYiIGQ9Ik0xMiwxM0gxMC40MWEuMTkuMTksMCwwLDEtLjE0LS4wNy4xOC4xOCwwLDAsMS0uMDYtLjE0VjcuOWEuMTkuMTksMCwwLDEsLjE5LS4ybC45MSwwLDAtMi4yNWguMzhsMCwyLjQ0YS4yLjIsMCwwLDEtLjE4LjIxbC0uOTEsMHY0LjQySDEyWiIvPjxyZWN0IGZpbGw9IiMzNjU2MTUiIHJ4PSIwLjI2IiBoZWlnaHQ9IjMuMTEiIHdpZHRoPSI2LjE0IiB5PSIyLjI5IiB4PSI3LjA3Ii8+PHJlY3QgZmlsbD0iIzM2NTYxNSIgdHJhbnNmb3JtPSJ0cmFuc2xhdGUoMjEuNTQgNC45Mykgcm90YXRlKDkwKSIgcng9IjAuMjYiIGhlaWdodD0iMS4wOSIgd2lkdGg9IjQuOSIgeT0iMTIuNjkiIHg9IjUuODYiLz48cmVjdCBmaWxsPSIjMzY1NjE1IiB0cmFuc2Zvcm09InRyYW5zbGF0ZSgxOS43IDYuODIpIHJvdGF0ZSg5MCkiIHJ4PSIwLjI2IiBoZWlnaHQ9IjEuMDkiIHdpZHRoPSI0LjkiIHk9IjEyLjcxIiB4PSIzLjk5Ii8+PHJlY3QgZmlsbD0iI2YyZjJmMiIgdHJhbnNmb3JtPSJ0cmFuc2xhdGUoMjUuNjggMC44Mykgcm90YXRlKDkwKSIgcng9IjAuMjYiIGhlaWdodD0iMS4wOSIgd2lkdGg9IjQuOSIgeT0iMTIuNzEiIHg9IjkuOTgiLz48ZWxsaXBzZSBmaWxsPSIjZjJmMmYyIiByeT0iMS4xMiIgcng9IjEuMDQiIGN5PSI4LjA2IiBjeD0iOC4xMSIvPjxwYXRoIGZpbGw9IiMzYjNiM2IiIHRyYW5zZm9ybT0idHJhbnNsYXRlKDIuNjEgMTcuOTUpIHJvdGF0ZSgxODApIiBkPSJNLjUsNS43SDEuNzdBLjM0LjM0LDAsMCwxLDIuMTEsNnY1Ljg2YS4zNC4zNCwwLDAsMS0uMzQuMzRILjVhMCwwLDAsMCwxLDAsMFY1LjdBMCwwLDAsMCwxLC41LDUuN1oiLz48L3N2Zz4=;" parent="1" vertex="1">
          <mxGeometry x="780" y="130" width="20" height="20" as="geometry" />
        </mxCell>
        <mxCell id="IkQXpn9ixrnxDfD2KMmo-47" value="" style="shape=image;verticalLabelPosition=bottom;labelBackgroundColor=none;verticalAlign=top;aspect=fixed;imageAspect=0;image=data:image/svg+xml,PHN2ZyB4bWxucz0iaHR0cDovL3d3dy53My5vcmcvMjAwMC9zdmciIHZpZXdCb3g9IjAgMCAxOCAxOCIgaGVpZ2h0PSIxOCIgd2lkdGg9IjE4IiBpZD0iZTAwNTA3MjEtZThkOC00Yzc5LWFlNTAtZDhmYzI4NzFkOTMyIj48ZGVmcz48bGluZWFyR3JhZGllbnQgZ3JhZGllbnRVbml0cz0idXNlclNwYWNlT25Vc2UiIHkyPSIxLjUiIHgyPSI5LjAxIiB5MT0iMTYuNSIgeDE9IjkuMDEiIGlkPSJmY2FkMzI4Ny1iNzFjLTQ0ZmEtOTcxYS02YTE4YmNmMzg0YTAiPjxzdG9wIHN0b3AtY29sb3I9IiM1ZTk2NDEiIG9mZnNldD0iMCIvPjxzdG9wIHN0b3AtY29sb3I9IiM2YmFhNDIiIG9mZnNldD0iMC4zNCIvPjxzdG9wIHN0b3AtY29sb3I9IiM3M2I3NDMiIG9mZnNldD0iMC42NyIvPjxzdG9wIHN0b3AtY29sb3I9IiM3NmJiNDMiIG9mZnNldD0iMSIvPjwvbGluZWFyR3JhZGllbnQ+PC9kZWZzPjx0aXRsZT5JY29uLW5ldHdvcmtpbmctODA8L3RpdGxlPjxwYXRoIGZpbGw9IiNmZmNhMDAiIGQ9Ik0xNS44OSwyLjkxaDEuMjdhLjM0LjM0LDAsMCwxLC4zNC4zNHYzLjVhLjM0LjM0LDAsMCwxLS4zNC4zNEgxNS44OWEwLDAsMCwwLDEsMCwwVjIuOTFBMCwwLDAsMCwxLDE1Ljg5LDIuOTFaIi8+PHBhdGggZmlsbD0iI2ZmY2EwMCIgZD0iTTE1Ljg5LDloMS4yN2EuMzQuMzQsMCwwLDEsLjM0LjM0djUuODZhLjM0LjM0LDAsMCwxLS4zNC4zNEgxNS44OWEwLDAsMCwwLDEsMCwwVjlBMCwwLDAsMCwxLDE1Ljg5LDlaIi8+PHJlY3QgZmlsbD0idXJsKCNmY2FkMzI4Ny1iNzFjLTQ0ZmEtOTcxYS02YTE4YmNmMzg0YTApIiByeD0iMC42OSIgaGVpZ2h0PSIxNSIgd2lkdGg9IjEzLjc2IiB5PSIxLjUiIHg9IjIuMTMiLz48cGF0aCBmaWxsPSIjYjRlYzM2IiBkPSJNNS45LDEyLjlINS4xOUEuMi4yLDAsMCwxLDUsMTIuNjlWNC4zNGEuMTkuMTksMCwwLDEsLjE5LS4ySDcuMTJhLjE5LjE5LDAsMCwxLC4xOS4yLjIuMiwwLDAsMS0uMTkuMjFINS4zOHY3LjkzSDUuOWEuMi4yLDAsMCwxLC4xOS4yMUEuMjEuMjEsMCwwLDEsNS45LDEyLjlaIi8+PHBhdGggZmlsbD0iI2I0ZWMzNiIgZD0iTTYsMTMuOTJINC40YS4yLjIsMCwwLDEtLjE5LS4yMUw0LjA4LDMuMzhhLjIuMiwwLDAsMSwuMDYtLjE1LjE2LjE2LDAsMCwxLC4xMy0uMDZINy4xMnYuNDFINC40N2wuMTIsOS45Mkg2WiIvPjxwYXRoIGZpbGw9IiNiNGVjMzYiIGQ9Ik0xMiwxM0gxMC40MWEuMTkuMTksMCwwLDEtLjE0LS4wNy4xOC4xOCwwLDAsMS0uMDYtLjE0VjcuOWEuMTkuMTksMCwwLDEsLjE5LS4ybC45MSwwLDAtMi4yNWguMzhsMCwyLjQ0YS4yLjIsMCwwLDEtLjE4LjIxbC0uOTEsMHY0LjQySDEyWiIvPjxyZWN0IGZpbGw9IiMzNjU2MTUiIHJ4PSIwLjI2IiBoZWlnaHQ9IjMuMTEiIHdpZHRoPSI2LjE0IiB5PSIyLjI5IiB4PSI3LjA3Ii8+PHJlY3QgZmlsbD0iIzM2NTYxNSIgdHJhbnNmb3JtPSJ0cmFuc2xhdGUoMjEuNTQgNC45Mykgcm90YXRlKDkwKSIgcng9IjAuMjYiIGhlaWdodD0iMS4wOSIgd2lkdGg9IjQuOSIgeT0iMTIuNjkiIHg9IjUuODYiLz48cmVjdCBmaWxsPSIjMzY1NjE1IiB0cmFuc2Zvcm09InRyYW5zbGF0ZSgxOS43IDYuODIpIHJvdGF0ZSg5MCkiIHJ4PSIwLjI2IiBoZWlnaHQ9IjEuMDkiIHdpZHRoPSI0LjkiIHk9IjEyLjcxIiB4PSIzLjk5Ii8+PHJlY3QgZmlsbD0iI2YyZjJmMiIgdHJhbnNmb3JtPSJ0cmFuc2xhdGUoMjUuNjggMC44Mykgcm90YXRlKDkwKSIgcng9IjAuMjYiIGhlaWdodD0iMS4wOSIgd2lkdGg9IjQuOSIgeT0iMTIuNzEiIHg9IjkuOTgiLz48ZWxsaXBzZSBmaWxsPSIjZjJmMmYyIiByeT0iMS4xMiIgcng9IjEuMDQiIGN5PSI4LjA2IiBjeD0iOC4xMSIvPjxwYXRoIGZpbGw9IiMzYjNiM2IiIHRyYW5zZm9ybT0idHJhbnNsYXRlKDIuNjEgMTcuOTUpIHJvdGF0ZSgxODApIiBkPSJNLjUsNS43SDEuNzdBLjM0LjM0LDAsMCwxLDIuMTEsNnY1Ljg2YS4zNC4zNCwwLDAsMS0uMzQuMzRILjVhMCwwLDAsMCwxLDAsMFY1LjdBMCwwLDAsMCwxLC41LDUuN1oiLz48L3N2Zz4=;" parent="1" vertex="1">
          <mxGeometry x="900" y="130" width="20" height="20" as="geometry" />
        </mxCell>
        <mxCell id="IkQXpn9ixrnxDfD2KMmo-50" value="milxconfst" style="shape=image;verticalLabelPosition=bottom;labelBackgroundColor=none;verticalAlign=top;aspect=fixed;imageAspect=0;image=data:image/svg+xml,PHN2ZyB4bWxucz0iaHR0cDovL3d3dy53My5vcmcvMjAwMC9zdmciIHZpZXdCb3g9IjAgMCAxOCAxOCIgaGVpZ2h0PSIxOCIgd2lkdGg9IjE4IiBpZD0iZjJmMDQzNDktOGFlZS00NDEzLTg0YzktYTkwNTM2MTFiMzE5Ij48ZGVmcz48bGluZWFyR3JhZGllbnQgZ3JhZGllbnRVbml0cz0idXNlclNwYWNlT25Vc2UiIHkyPSI1Ljc5IiB4Mj0iOSIgeTE9IjE1LjgzIiB4MT0iOSIgaWQ9ImFkNGM0Zjk2LTA5YWEtNGY5MS1iYTEwLTVjYjhhZDUzMGY3NCI+PHN0b3Agc3RvcC1jb2xvcj0iI2IzYjNiMyIgb2Zmc2V0PSIwIi8+PHN0b3Agc3RvcC1jb2xvcj0iI2MxYzFjMSIgb2Zmc2V0PSIwLjI2Ii8+PHN0b3Agc3RvcC1jb2xvcj0iI2U2ZTZlNiIgb2Zmc2V0PSIxIi8+PC9saW5lYXJHcmFkaWVudD48L2RlZnM+PHRpdGxlPkljb24tc3RvcmFnZS04NjwvdGl0bGU+PHBhdGggZmlsbD0idXJsKCNhZDRjNGY5Ni0wOWFhLTRmOTEtYmExMC01Y2I4YWQ1MzBmNzQpIiBkPSJNLjUsNS43OWgxN2EwLDAsMCwwLDEsMCwwdjkuNDhhLjU3LjU3LDAsMCwxLS41Ny41N0gxLjA3YS41Ny41NywwLDAsMS0uNTctLjU3VjUuNzlBMCwwLDAsMCwxLC41LDUuNzlaIi8+PHBhdGggZmlsbD0iIzM3YzJiMSIgZD0iTTEuMDcsMi4xN0gxNi45M2EuNTcuNTcsMCwwLDEsLjU3LjU3VjUuNzlhMCwwLDAsMCwxLDAsMEguNWEwLDAsMCwwLDEsMCwwVjIuNzNBLjU3LjU3LDAsMCwxLDEuMDcsMi4xN1oiLz48cGF0aCBmaWxsPSIjZmZmIiBkPSJNMi44MSw2Ljg5SDE1LjE4YS4yNy4yNywwLDAsMSwuMjYuMjd2MS40YS4yNy4yNywwLDAsMS0uMjYuMjdIMi44MWEuMjcuMjcsMCwwLDEtLjI2LS4yN1Y3LjE2QS4yNy4yNywwLDAsMSwyLjgxLDYuODlaIi8+PHBhdGggZmlsbD0iIzM3YzJiMSIgZD0iTTIuODIsOS42OEgxNS4xOWEuMjcuMjcsMCwwLDEsLjI2LjI3djEuNDFhLjI3LjI3LDAsMCwxLS4yNi4yN0gyLjgyYS4yNy4yNywwLDAsMS0uMjYtLjI3VjEwQS4yNy4yNywwLDAsMSwyLjgyLDkuNjhaIi8+PHBhdGggZmlsbD0iIzI1ODI3NyIgZD0iTTIuODIsMTIuNUgxNS4xOWEuMjcuMjcsMCwwLDEsLjI2LjI3djEuNDFhLjI3LjI3LDAsMCwxLS4yNi4yN0gyLjgyYS4yNy4yNywwLDAsMS0uMjYtLjI3VjEyLjc3QS4yNy4yNywwLDAsMSwyLjgyLDEyLjVaIi8+PC9zdmc+;fontFamily=Tahoma;fontSize=10;" parent="1" vertex="1">
          <mxGeometry x="620" y="360" width="40" height="40" as="geometry" />
        </mxCell>
        <mxCell id="IkQXpn9ixrnxDfD2KMmo-51" value="mil-x-appl-kv" style="shape=image;verticalLabelPosition=bottom;labelBackgroundColor=none;verticalAlign=top;aspect=fixed;imageAspect=0;image=data:image/svg+xml,PHN2ZyB4bWxucz0iaHR0cDovL3d3dy53My5vcmcvMjAwMC9zdmciIHZpZXdCb3g9IjAgMCAxOCAxOCIgaGVpZ2h0PSIxOCIgd2lkdGg9IjE4IiBpZD0iYmM5MzE2OWEtMjRjNC00Njg2LTlmMzctYzdlNGY1M2IzZDM0Ij48ZGVmcz48cmFkaWFsR3JhZGllbnQgZ3JhZGllbnRVbml0cz0idXNlclNwYWNlT25Vc2UiIHI9IjguNSIgY3k9IjkiIGN4PSI5IiBpZD0iZmIxMTRjOTMtN2MxNi00NTQwLTg5OWEtMDc5NjA0MTYyOWU2Ij48c3RvcCBzdG9wLWNvbG9yPSIjNWVhMGVmIiBvZmZzZXQ9IjAuMTgiLz48c3RvcCBzdG9wLWNvbG9yPSIjNWM5ZmVlIiBvZmZzZXQ9IjAuNTYiLz48c3RvcCBzdG9wLWNvbG9yPSIjNTU5Y2VkIiBvZmZzZXQ9IjAuNjkiLz48c3RvcCBzdG9wLWNvbG9yPSIjNGE5N2U5IiBvZmZzZXQ9IjAuNzgiLz48c3RvcCBzdG9wLWNvbG9yPSIjMzk5MGU0IiBvZmZzZXQ9IjAuODYiLz48c3RvcCBzdG9wLWNvbG9yPSIjMjM4N2RlIiBvZmZzZXQ9IjAuOTMiLz48c3RvcCBzdG9wLWNvbG9yPSIjMDg3YmQ2IiBvZmZzZXQ9IjAuOTkiLz48c3RvcCBzdG9wLWNvbG9yPSIjMDA3OGQ0IiBvZmZzZXQ9IjEiLz48L3JhZGlhbEdyYWRpZW50PjxyYWRpYWxHcmFkaWVudCBncmFkaWVudFVuaXRzPSJ1c2VyU3BhY2VPblVzZSIgZ3JhZGllbnRUcmFuc2Zvcm09InRyYW5zbGF0ZSgtMjguNzEgLTE2My4yNCkgc2NhbGUoMC45NCAwLjk0KSIgcj0iOS44OCIgY3k9IjE4Mi4wNyIgY3g9IjM4Ljk1IiBpZD0iZWM0NzhiZDMtNWIzOC00ZTdmLWI2NjEtMTFmMzU1NTc4YmZmIj48c3RvcCBzdG9wLWNvbG9yPSIjZmZkNzBmIiBvZmZzZXQ9IjAuMjciLz48c3RvcCBzdG9wLWNvbG9yPSIjZmZjYjEyIiBvZmZzZXQ9IjAuNDkiLz48c3RvcCBzdG9wLWNvbG9yPSIjZmVhYzE5IiBvZmZzZXQ9IjAuODgiLz48c3RvcCBzdG9wLWNvbG9yPSIjZmVhMTFiIiBvZmZzZXQ9IjEiLz48L3JhZGlhbEdyYWRpZW50PjwvZGVmcz48dGl0bGU+SWNvbi1zZWN1cml0eS0yNDU8L3RpdGxlPjxwYXRoIGZpbGw9InVybCgjZmIxMTRjOTMtN2MxNi00NTQwLTg5OWEtMDc5NjA0MTYyOWU2KSIgZD0iTTksLjVBOC41LDguNSwwLDEsMCwxNy41LDksOC41MSw4LjUxLDAsMCwwLDksLjVaTTksMTYuMzRBNy4zNCw3LjM0LDAsMSwxLDE2LjM0LDksNy4zNCw3LjM0LDAsMCwxLDksMTYuMzRaIiBpZD0iYWFjZjgzMTEtYTMxNy00MDBmLWI2MTMtNzRiZDAwZGE1Y2UzIi8+PGNpcmNsZSBmaWxsPSIjZmZmIiByPSI3LjM0IiBjeT0iOSIgY3g9IjkiLz48Zz48cGF0aCBmaWxsPSJ1cmwoI2VjNDc4YmQzLTViMzgtNGU3Zi1iNjYxLTExZjM1NTU3OGJmZikiIGQ9Ik0xMy40NCw3LjMzYTEuODQsMS44NCwwLDAsMCwwLTIuNTloMEwxMC4yOSwxLjU4YTEuODMsMS44MywwLDAsMC0yLjU4LDBoMEw0LjU2LDQuNzRhMS44NCwxLjg0LDAsMCwwLDAsMi41OUw3LjE4LDEwYS41MS41MSwwLDAsMSwuMTUuMzZ2NC44OGEuNjMuNjMsMCwwLDAsLjE4LjQ0bDEuMiwxLjJhLjQxLjQxLDAsMCwwLC41OCwwbDEuMTYtMS4xNmgwbC42OC0uNjhhLjI1LjI1LDAsMCwwLDAtLjM0bC0uNDktLjQ5YS4yNy4yNywwLDAsMSwwLS4zN2wuNDktLjQ5YS4yNS4yNSwwLDAsMCwwLS4zNGwtLjQ5LS40OWEuMjcuMjcsMCwwLDEsMC0uMzdsLjQ5LS40OWEuMjUuMjUsMCwwLDAsMC0uMzRsLS42OC0uNjl2LS4yNVpNOSwyLjM1QTEsMSwwLDAsMSw5LDQuNDIsMSwxLDAsMSwxLDksMi4zNVoiIGlkPSJiZDk4M2M0MS1kYjczLTQwZWMtYTRmNC1kYTEyMTNmYzk5MjQiLz48cGF0aCBvcGFjaXR5PSIwLjc1IiBmaWxsPSIjZmY5MzAwIiBkPSJNOC4xOCwxNS4zaDBhLjIzLjIzLDAsMCwwLC4zOC0uMTd2LTRhLjI0LjI0LDAsMCwwLS4xMS0uMmgwYS4yMi4yMiwwLDAsMC0uMzQuMnY0QS4yOC4yOCwwLDAsMCw4LjE4LDE1LjNaIiBpZD0iYWQyZTdlNDQtOWJmZC00Nzc1LThiZjQtOGVmMjZhNTQ0OTIxIi8+PHJlY3Qgb3BhY2l0eT0iMC43NSIgZmlsbD0iI2ZmOTMwMCIgcng9IjAuMjgiIGhlaWdodD0iMC42MSIgd2lkdGg9IjUuMTciIHk9IjUuNzkiIHg9IjYuNDgiIGlkPSJhOTk2ZmJmZi0zOTM2LTRiMjQtYjQwNy0zNjkzMzZjMTQzYmEiLz48cmVjdCBvcGFjaXR5PSIwLjc1IiBmaWxsPSIjZmY5MzAwIiByeD0iMC4yOCIgaGVpZ2h0PSIwLjYxIiB3aWR0aD0iNS4xNyIgeT0iNi43OCIgeD0iNi40OCIgaWQ9ImJiMTJkMzFjLTMzNTItNGExOC04N2RkLWExNjlhNGE4NzIxZCIvPjwvZz48L3N2Zz4=;fontFamily=Tahoma;fontSize=10;" parent="1" vertex="1">
          <mxGeometry x="820" y="360" width="40" height="40" as="geometry" />
        </mxCell>
        <mxCell id="IkQXpn9ixrnxDfD2KMmo-52" value="milxauthst" style="shape=image;verticalLabelPosition=bottom;labelBackgroundColor=none;verticalAlign=top;aspect=fixed;imageAspect=0;image=data:image/svg+xml,PHN2ZyB4bWxucz0iaHR0cDovL3d3dy53My5vcmcvMjAwMC9zdmciIHZpZXdCb3g9IjAgMCAxOCAxOCIgaGVpZ2h0PSIxOCIgd2lkdGg9IjE4IiBpZD0iZjJmMDQzNDktOGFlZS00NDEzLTg0YzktYTkwNTM2MTFiMzE5Ij48ZGVmcz48bGluZWFyR3JhZGllbnQgZ3JhZGllbnRVbml0cz0idXNlclNwYWNlT25Vc2UiIHkyPSI1Ljc5IiB4Mj0iOSIgeTE9IjE1LjgzIiB4MT0iOSIgaWQ9ImFkNGM0Zjk2LTA5YWEtNGY5MS1iYTEwLTVjYjhhZDUzMGY3NCI+PHN0b3Agc3RvcC1jb2xvcj0iI2IzYjNiMyIgb2Zmc2V0PSIwIi8+PHN0b3Agc3RvcC1jb2xvcj0iI2MxYzFjMSIgb2Zmc2V0PSIwLjI2Ii8+PHN0b3Agc3RvcC1jb2xvcj0iI2U2ZTZlNiIgb2Zmc2V0PSIxIi8+PC9saW5lYXJHcmFkaWVudD48L2RlZnM+PHRpdGxlPkljb24tc3RvcmFnZS04NjwvdGl0bGU+PHBhdGggZmlsbD0idXJsKCNhZDRjNGY5Ni0wOWFhLTRmOTEtYmExMC01Y2I4YWQ1MzBmNzQpIiBkPSJNLjUsNS43OWgxN2EwLDAsMCwwLDEsMCwwdjkuNDhhLjU3LjU3LDAsMCwxLS41Ny41N0gxLjA3YS41Ny41NywwLDAsMS0uNTctLjU3VjUuNzlBMCwwLDAsMCwxLC41LDUuNzlaIi8+PHBhdGggZmlsbD0iIzM3YzJiMSIgZD0iTTEuMDcsMi4xN0gxNi45M2EuNTcuNTcsMCwwLDEsLjU3LjU3VjUuNzlhMCwwLDAsMCwxLDAsMEguNWEwLDAsMCwwLDEsMCwwVjIuNzNBLjU3LjU3LDAsMCwxLDEuMDcsMi4xN1oiLz48cGF0aCBmaWxsPSIjZmZmIiBkPSJNMi44MSw2Ljg5SDE1LjE4YS4yNy4yNywwLDAsMSwuMjYuMjd2MS40YS4yNy4yNywwLDAsMS0uMjYuMjdIMi44MWEuMjcuMjcsMCwwLDEtLjI2LS4yN1Y3LjE2QS4yNy4yNywwLDAsMSwyLjgxLDYuODlaIi8+PHBhdGggZmlsbD0iIzM3YzJiMSIgZD0iTTIuODIsOS42OEgxNS4xOWEuMjcuMjcsMCwwLDEsLjI2LjI3djEuNDFhLjI3LjI3LDAsMCwxLS4yNi4yN0gyLjgyYS4yNy4yNywwLDAsMS0uMjYtLjI3VjEwQS4yNy4yNywwLDAsMSwyLjgyLDkuNjhaIi8+PHBhdGggZmlsbD0iIzI1ODI3NyIgZD0iTTIuODIsMTIuNUgxNS4xOWEuMjcuMjcsMCwwLDEsLjI2LjI3djEuNDFhLjI3LjI3LDAsMCwxLS4yNi4yN0gyLjgyYS4yNy4yNywwLDAsMS0uMjYtLjI3VjEyLjc3QS4yNy4yNywwLDAsMSwyLjgyLDEyLjVaIi8+PC9zdmc+;fontFamily=Tahoma;fontSize=10;" parent="1" vertex="1">
          <mxGeometry x="720" y="360" width="40" height="40" as="geometry" />
        </mxCell>
        <mxCell id="IkQXpn9ixrnxDfD2KMmo-53" value="mil-x-auth-kv" style="shape=image;verticalLabelPosition=bottom;labelBackgroundColor=none;verticalAlign=top;aspect=fixed;imageAspect=0;image=data:image/svg+xml,PHN2ZyB4bWxucz0iaHR0cDovL3d3dy53My5vcmcvMjAwMC9zdmciIHZpZXdCb3g9IjAgMCAxOCAxOCIgaGVpZ2h0PSIxOCIgd2lkdGg9IjE4IiBpZD0iYmM5MzE2OWEtMjRjNC00Njg2LTlmMzctYzdlNGY1M2IzZDM0Ij48ZGVmcz48cmFkaWFsR3JhZGllbnQgZ3JhZGllbnRVbml0cz0idXNlclNwYWNlT25Vc2UiIHI9IjguNSIgY3k9IjkiIGN4PSI5IiBpZD0iZmIxMTRjOTMtN2MxNi00NTQwLTg5OWEtMDc5NjA0MTYyOWU2Ij48c3RvcCBzdG9wLWNvbG9yPSIjNWVhMGVmIiBvZmZzZXQ9IjAuMTgiLz48c3RvcCBzdG9wLWNvbG9yPSIjNWM5ZmVlIiBvZmZzZXQ9IjAuNTYiLz48c3RvcCBzdG9wLWNvbG9yPSIjNTU5Y2VkIiBvZmZzZXQ9IjAuNjkiLz48c3RvcCBzdG9wLWNvbG9yPSIjNGE5N2U5IiBvZmZzZXQ9IjAuNzgiLz48c3RvcCBzdG9wLWNvbG9yPSIjMzk5MGU0IiBvZmZzZXQ9IjAuODYiLz48c3RvcCBzdG9wLWNvbG9yPSIjMjM4N2RlIiBvZmZzZXQ9IjAuOTMiLz48c3RvcCBzdG9wLWNvbG9yPSIjMDg3YmQ2IiBvZmZzZXQ9IjAuOTkiLz48c3RvcCBzdG9wLWNvbG9yPSIjMDA3OGQ0IiBvZmZzZXQ9IjEiLz48L3JhZGlhbEdyYWRpZW50PjxyYWRpYWxHcmFkaWVudCBncmFkaWVudFVuaXRzPSJ1c2VyU3BhY2VPblVzZSIgZ3JhZGllbnRUcmFuc2Zvcm09InRyYW5zbGF0ZSgtMjguNzEgLTE2My4yNCkgc2NhbGUoMC45NCAwLjk0KSIgcj0iOS44OCIgY3k9IjE4Mi4wNyIgY3g9IjM4Ljk1IiBpZD0iZWM0NzhiZDMtNWIzOC00ZTdmLWI2NjEtMTFmMzU1NTc4YmZmIj48c3RvcCBzdG9wLWNvbG9yPSIjZmZkNzBmIiBvZmZzZXQ9IjAuMjciLz48c3RvcCBzdG9wLWNvbG9yPSIjZmZjYjEyIiBvZmZzZXQ9IjAuNDkiLz48c3RvcCBzdG9wLWNvbG9yPSIjZmVhYzE5IiBvZmZzZXQ9IjAuODgiLz48c3RvcCBzdG9wLWNvbG9yPSIjZmVhMTFiIiBvZmZzZXQ9IjEiLz48L3JhZGlhbEdyYWRpZW50PjwvZGVmcz48dGl0bGU+SWNvbi1zZWN1cml0eS0yNDU8L3RpdGxlPjxwYXRoIGZpbGw9InVybCgjZmIxMTRjOTMtN2MxNi00NTQwLTg5OWEtMDc5NjA0MTYyOWU2KSIgZD0iTTksLjVBOC41LDguNSwwLDEsMCwxNy41LDksOC41MSw4LjUxLDAsMCwwLDksLjVaTTksMTYuMzRBNy4zNCw3LjM0LDAsMSwxLDE2LjM0LDksNy4zNCw3LjM0LDAsMCwxLDksMTYuMzRaIiBpZD0iYWFjZjgzMTEtYTMxNy00MDBmLWI2MTMtNzRiZDAwZGE1Y2UzIi8+PGNpcmNsZSBmaWxsPSIjZmZmIiByPSI3LjM0IiBjeT0iOSIgY3g9IjkiLz48Zz48cGF0aCBmaWxsPSJ1cmwoI2VjNDc4YmQzLTViMzgtNGU3Zi1iNjYxLTExZjM1NTU3OGJmZikiIGQ9Ik0xMy40NCw3LjMzYTEuODQsMS44NCwwLDAsMCwwLTIuNTloMEwxMC4yOSwxLjU4YTEuODMsMS44MywwLDAsMC0yLjU4LDBoMEw0LjU2LDQuNzRhMS44NCwxLjg0LDAsMCwwLDAsMi41OUw3LjE4LDEwYS41MS41MSwwLDAsMSwuMTUuMzZ2NC44OGEuNjMuNjMsMCwwLDAsLjE4LjQ0bDEuMiwxLjJhLjQxLjQxLDAsMCwwLC41OCwwbDEuMTYtMS4xNmgwbC42OC0uNjhhLjI1LjI1LDAsMCwwLDAtLjM0bC0uNDktLjQ5YS4yNy4yNywwLDAsMSwwLS4zN2wuNDktLjQ5YS4yNS4yNSwwLDAsMCwwLS4zNGwtLjQ5LS40OWEuMjcuMjcsMCwwLDEsMC0uMzdsLjQ5LS40OWEuMjUuMjUsMCwwLDAsMC0uMzRsLS42OC0uNjl2LS4yNVpNOSwyLjM1QTEsMSwwLDAsMSw5LDQuNDIsMSwxLDAsMSwxLDksMi4zNVoiIGlkPSJiZDk4M2M0MS1kYjczLTQwZWMtYTRmNC1kYTEyMTNmYzk5MjQiLz48cGF0aCBvcGFjaXR5PSIwLjc1IiBmaWxsPSIjZmY5MzAwIiBkPSJNOC4xOCwxNS4zaDBhLjIzLjIzLDAsMCwwLC4zOC0uMTd2LTRhLjI0LjI0LDAsMCwwLS4xMS0uMmgwYS4yMi4yMiwwLDAsMC0uMzQuMnY0QS4yOC4yOCwwLDAsMCw4LjE4LDE1LjNaIiBpZD0iYWQyZTdlNDQtOWJmZC00Nzc1LThiZjQtOGVmMjZhNTQ0OTIxIi8+PHJlY3Qgb3BhY2l0eT0iMC43NSIgZmlsbD0iI2ZmOTMwMCIgcng9IjAuMjgiIGhlaWdodD0iMC42MSIgd2lkdGg9IjUuMTciIHk9IjUuNzkiIHg9IjYuNDgiIGlkPSJhOTk2ZmJmZi0zOTM2LTRiMjQtYjQwNy0zNjkzMzZjMTQzYmEiLz48cmVjdCBvcGFjaXR5PSIwLjc1IiBmaWxsPSIjZmY5MzAwIiByeD0iMC4yOCIgaGVpZ2h0PSIwLjYxIiB3aWR0aD0iNS4xNyIgeT0iNi43OCIgeD0iNi40OCIgaWQ9ImJiMTJkMzFjLTMzNTItNGExOC04N2RkLWExNjlhNGE4NzIxZCIvPjwvZz48L3N2Zz4=;fontFamily=Tahoma;fontSize=10;" parent="1" vertex="1">
          <mxGeometry x="920" y="360" width="40" height="40" as="geometry" />
        </mxCell>
        <mxCell id="IkQXpn9ixrnxDfD2KMmo-54" value="" style="endArrow=open;html=1;rounded=0;endFill=0;fillColor=#f8cecc;strokeColor=#b85450;elbow=vertical;labelBackgroundColor=none;exitX=0.5;exitY=1;exitDx=0;exitDy=0;edgeStyle=orthogonalEdgeStyle;curved=1;" parent="1" source="IkQXpn9ixrnxDfD2KMmo-26" target="IkQXpn9ixrnxDfD2KMmo-50" edge="1">
          <mxGeometry width="50" height="50" relative="1" as="geometry">
            <mxPoint x="650" y="150" as="sourcePoint" />
            <mxPoint x="650" y="350" as="targetPoint" />
          </mxGeometry>
        </mxCell>
        <mxCell id="IkQXpn9ixrnxDfD2KMmo-55" value="" style="endArrow=open;html=1;rounded=0;endFill=0;fillColor=#f8cecc;strokeColor=#b85450;elbow=vertical;labelBackgroundColor=none;edgeStyle=orthogonalEdgeStyle;curved=1;" parent="1" source="IkQXpn9ixrnxDfD2KMmo-28" target="IkQXpn9ixrnxDfD2KMmo-51" edge="1">
          <mxGeometry width="50" height="50" relative="1" as="geometry">
            <mxPoint x="660" y="160" as="sourcePoint" />
            <mxPoint x="660" y="360" as="targetPoint" />
          </mxGeometry>
        </mxCell>
        <mxCell id="IkQXpn9ixrnxDfD2KMmo-56" value="" style="endArrow=open;html=1;rounded=0;endFill=0;fillColor=#f8cecc;strokeColor=#b85450;elbow=vertical;labelBackgroundColor=none;edgeStyle=orthogonalEdgeStyle;curved=1;" parent="1" source="IkQXpn9ixrnxDfD2KMmo-26" target="IkQXpn9ixrnxDfD2KMmo-52" edge="1">
          <mxGeometry width="50" height="50" relative="1" as="geometry">
            <mxPoint x="670" y="170" as="sourcePoint" />
            <mxPoint x="670" y="370" as="targetPoint" />
          </mxGeometry>
        </mxCell>
        <mxCell id="IkQXpn9ixrnxDfD2KMmo-57" value="" style="endArrow=open;html=1;rounded=0;endFill=0;fillColor=#f8cecc;strokeColor=#b85450;elbow=vertical;labelBackgroundColor=none;exitX=0.5;exitY=1;exitDx=0;exitDy=0;edgeStyle=orthogonalEdgeStyle;curved=1;" parent="1" source="IkQXpn9ixrnxDfD2KMmo-28" target="IkQXpn9ixrnxDfD2KMmo-53" edge="1">
          <mxGeometry width="50" height="50" relative="1" as="geometry">
            <mxPoint x="680" y="180" as="sourcePoint" />
            <mxPoint x="680" y="380" as="targetPoint" />
          </mxGeometry>
        </mxCell>
        <mxCell id="IkQXpn9ixrnxDfD2KMmo-26" value="mil-x-storage-pep" style="shape=image;verticalLabelPosition=bottom;labelBackgroundColor=#DAE8FC;verticalAlign=top;aspect=fixed;imageAspect=0;image=data:image/svg+xml,PHN2ZyB4bWxucz0iaHR0cDovL3d3dy53My5vcmcvMjAwMC9zdmciIHZpZXdCb3g9IjAgMCAxOCAxOCIgaGVpZ2h0PSIxOCIgd2lkdGg9IjE4Ij48ZGVmcz48bGluZWFyR3JhZGllbnQgZ3JhZGllbnRVbml0cz0idXNlclNwYWNlT25Vc2UiIGdyYWRpZW50VHJhbnNmb3JtPSJtYXRyaXgoMSwgMCwgMCwgLTEsIDAsIDc5MS41MTYpIiB5Mj0iNzg3LjQ5MiIgeDI9IjkuMDg0IiB5MT0iNzkwLjk2NyIgeDE9IjkuMDg0IiBpZD0iZjM4NmJiN2EtYmNiMi00YjY3LWI1YjItMDY4MTk2MThmZjUxIj48c3RvcCBzdG9wLWNvbG9yPSIjNTBlNmZmIiBvZmZzZXQ9IjAiLz48c3RvcCBzdG9wLWNvbG9yPSIjMzJiZWRkIiBvZmZzZXQ9IjEiLz48L2xpbmVhckdyYWRpZW50PjxsaW5lYXJHcmFkaWVudCBncmFkaWVudFVuaXRzPSJ1c2VyU3BhY2VPblVzZSIgeTI9IjEwLjM2OCIgeDI9IjkuMDY1IiB5MT0iMTMuODQzIiB4MT0iOS4wNjUiIGlkPSJhNjJhOWNhZC1iMTczLTQ3ODUtYmE4MS04ZWUzMGQ0ZGM2ZWIiPjxzdG9wIHN0b3AtY29sb3I9IiM1ZTk2MjQiIG9mZnNldD0iMCIvPjxzdG9wIHN0b3AtY29sb3I9IiM2MjljMjUiIG9mZnNldD0iMC4xODMiLz48c3RvcCBzdG9wLWNvbG9yPSIjNmRhZTJhIiBvZmZzZXQ9IjAuNDM1Ii8+PHN0b3Agc3RvcC1jb2xvcj0iIzdmY2IzMCIgb2Zmc2V0PSIwLjcyNiIvPjxzdG9wIHN0b3AtY29sb3I9IiM4NmQ2MzMiIG9mZnNldD0iMC44MjIiLz48L2xpbmVhckdyYWRpZW50PjwvZGVmcz48ZyBpZD0iYmRjZDcyNjgtMzFmYy00MTYzLTk1NDQtNjUxZDYxZjE0OThlIj48Zz48cGF0aCBmaWxsPSIjYjNiM2IzIiBkPSJNNy44NSwxMy4zNDJhMS43MzgsMS43MzgsMCwxLDAsMi40MzYtMi40NzksMS43MTUsMS43MTUsMCwwLDAtLjYyNi0uMzg5VjMuMDA5SDguNTQ4djcuNDQ0YTEuNzI5LDEuNzI5LDAsMCwwLS43LDIuODkxWiIvPjxjaXJjbGUgZmlsbD0idXJsKCNmMzg2YmI3YS1iY2IyLTRiNjctYjViMi0wNjgxOTYxOGZmNTEpIiByPSIxLjczOCIgY3k9IjIuMjA5IiBjeD0iOS4wODQiLz48Zz48cGF0aCBmaWxsPSIjNTBlNmZmIiB0cmFuc2Zvcm09InRyYW5zbGF0ZSgxNS40NTIgMjIuMjkyKSByb3RhdGUoMTM0LjkxOSkiIGQ9Ik0yLjYzMiwxMC40NDloLjkzN2EuMy4zLDAsMCwxLC4zLjN2Ni45MDlhLjYuNiwwLDAsMS0uNi42SDIuMzMyYTAsMCwwLDAsMSwwLDBWMTAuNzQ5QS4zLjMsMCwwLDEsMi42MzIsMTAuNDQ5WiIvPjxwYXRoIGZpbGw9IiMxNDkwZGYiIHRyYW5zZm9ybT0idHJhbnNsYXRlKDcuOTEgMC43NDkpIHJvdGF0ZSg0NC45MTkpIiBkPSJNMi41ODEsNi4wOTNoLjkzN2EuMy4zLDAsMCwxLC4zLjN2Ny40YTAsMCwwLDAsMSwwLDBIMi44OGEuNi42LDAsMCwxLS42LS42di02LjhBLjMuMywwLDAsMSwyLjU4MSw2LjA5M1oiLz48cGF0aCBmaWxsPSIjNTBlNmZmIiB0cmFuc2Zvcm09InRyYW5zbGF0ZSgxNC41NDIgLTYuMzMzKSByb3RhdGUoNDUuMDgxKSIgZD0iTTE0LjEzMiwxMC40NDloLjkzN2EuNi42LDAsMCwxLC42LjZ2Ni45MDlhLjMuMywwLDAsMS0uMy4zaC0uOTM3YS4zLjMsMCwwLDEtLjMtLjNWMTAuNDQ5YTAsMCwwLDAsMSwwLDBaIi8+PHBhdGggZmlsbD0iIzE0OTBkZiIgdHJhbnNmb3JtPSJ0cmFuc2xhdGUoMzIuNTU4IDYuNDI0KSByb3RhdGUoMTM1LjA4MSkiIGQ9Ik0xNC43ODIsNi4wOTNoLjkzN2EwLDAsMCwwLDEsMCwwdjcuNGEuMy4zLDAsMCwxLS4zLjNoLS45MzdhLjMuMywwLDAsMS0uMy0uM3YtNi44QS42LjYsMCwwLDEsMTQuNzgyLDYuMDkzWiIvPjwvZz48Y2lyY2xlIGZpbGw9InVybCgjYTYyYTljYWQtYjE3My00Nzg1LWJhODEtOGVlMzBkNGRjNmViKSIgcj0iMS43MzgiIGN5PSIxMi4xMDYiIGN4PSI5LjA2NSIvPjwvZz48L2c+PC9zdmc+;fontFamily=Tahoma;fontSize=10;" parent="1" vertex="1">
          <mxGeometry x="740" y="150" width="40" height="40" as="geometry" />
        </mxCell>
        <mxCell id="IkQXpn9ixrnxDfD2KMmo-28" value="mil-x-kv-pep" style="shape=image;verticalLabelPosition=bottom;labelBackgroundColor=#DAE8FC;verticalAlign=top;aspect=fixed;imageAspect=0;image=data:image/svg+xml,PHN2ZyB4bWxucz0iaHR0cDovL3d3dy53My5vcmcvMjAwMC9zdmciIHZpZXdCb3g9IjAgMCAxOCAxOCIgaGVpZ2h0PSIxOCIgd2lkdGg9IjE4Ij48ZGVmcz48bGluZWFyR3JhZGllbnQgZ3JhZGllbnRVbml0cz0idXNlclNwYWNlT25Vc2UiIGdyYWRpZW50VHJhbnNmb3JtPSJtYXRyaXgoMSwgMCwgMCwgLTEsIDAsIDc5MS41MTYpIiB5Mj0iNzg3LjQ5MiIgeDI9IjkuMDg0IiB5MT0iNzkwLjk2NyIgeDE9IjkuMDg0IiBpZD0iZjM4NmJiN2EtYmNiMi00YjY3LWI1YjItMDY4MTk2MThmZjUxIj48c3RvcCBzdG9wLWNvbG9yPSIjNTBlNmZmIiBvZmZzZXQ9IjAiLz48c3RvcCBzdG9wLWNvbG9yPSIjMzJiZWRkIiBvZmZzZXQ9IjEiLz48L2xpbmVhckdyYWRpZW50PjxsaW5lYXJHcmFkaWVudCBncmFkaWVudFVuaXRzPSJ1c2VyU3BhY2VPblVzZSIgeTI9IjEwLjM2OCIgeDI9IjkuMDY1IiB5MT0iMTMuODQzIiB4MT0iOS4wNjUiIGlkPSJhNjJhOWNhZC1iMTczLTQ3ODUtYmE4MS04ZWUzMGQ0ZGM2ZWIiPjxzdG9wIHN0b3AtY29sb3I9IiM1ZTk2MjQiIG9mZnNldD0iMCIvPjxzdG9wIHN0b3AtY29sb3I9IiM2MjljMjUiIG9mZnNldD0iMC4xODMiLz48c3RvcCBzdG9wLWNvbG9yPSIjNmRhZTJhIiBvZmZzZXQ9IjAuNDM1Ii8+PHN0b3Agc3RvcC1jb2xvcj0iIzdmY2IzMCIgb2Zmc2V0PSIwLjcyNiIvPjxzdG9wIHN0b3AtY29sb3I9IiM4NmQ2MzMiIG9mZnNldD0iMC44MjIiLz48L2xpbmVhckdyYWRpZW50PjwvZGVmcz48ZyBpZD0iYmRjZDcyNjgtMzFmYy00MTYzLTk1NDQtNjUxZDYxZjE0OThlIj48Zz48cGF0aCBmaWxsPSIjYjNiM2IzIiBkPSJNNy44NSwxMy4zNDJhMS43MzgsMS43MzgsMCwxLDAsMi40MzYtMi40NzksMS43MTUsMS43MTUsMCwwLDAtLjYyNi0uMzg5VjMuMDA5SDguNTQ4djcuNDQ0YTEuNzI5LDEuNzI5LDAsMCwwLS43LDIuODkxWiIvPjxjaXJjbGUgZmlsbD0idXJsKCNmMzg2YmI3YS1iY2IyLTRiNjctYjViMi0wNjgxOTYxOGZmNTEpIiByPSIxLjczOCIgY3k9IjIuMjA5IiBjeD0iOS4wODQiLz48Zz48cGF0aCBmaWxsPSIjNTBlNmZmIiB0cmFuc2Zvcm09InRyYW5zbGF0ZSgxNS40NTIgMjIuMjkyKSByb3RhdGUoMTM0LjkxOSkiIGQ9Ik0yLjYzMiwxMC40NDloLjkzN2EuMy4zLDAsMCwxLC4zLjN2Ni45MDlhLjYuNiwwLDAsMS0uNi42SDIuMzMyYTAsMCwwLDAsMSwwLDBWMTAuNzQ5QS4zLjMsMCwwLDEsMi42MzIsMTAuNDQ5WiIvPjxwYXRoIGZpbGw9IiMxNDkwZGYiIHRyYW5zZm9ybT0idHJhbnNsYXRlKDcuOTEgMC43NDkpIHJvdGF0ZSg0NC45MTkpIiBkPSJNMi41ODEsNi4wOTNoLjkzN2EuMy4zLDAsMCwxLC4zLjN2Ny40YTAsMCwwLDAsMSwwLDBIMi44OGEuNi42LDAsMCwxLS42LS42di02LjhBLjMuMywwLDAsMSwyLjU4MSw2LjA5M1oiLz48cGF0aCBmaWxsPSIjNTBlNmZmIiB0cmFuc2Zvcm09InRyYW5zbGF0ZSgxNC41NDIgLTYuMzMzKSByb3RhdGUoNDUuMDgxKSIgZD0iTTE0LjEzMiwxMC40NDloLjkzN2EuNi42LDAsMCwxLC42LjZ2Ni45MDlhLjMuMywwLDAsMS0uMy4zaC0uOTM3YS4zLjMsMCwwLDEtLjMtLjNWMTAuNDQ5YTAsMCwwLDAsMSwwLDBaIi8+PHBhdGggZmlsbD0iIzE0OTBkZiIgdHJhbnNmb3JtPSJ0cmFuc2xhdGUoMzIuNTU4IDYuNDI0KSByb3RhdGUoMTM1LjA4MSkiIGQ9Ik0xNC43ODIsNi4wOTNoLjkzN2EwLDAsMCwwLDEsMCwwdjcuNGEuMy4zLDAsMCwxLS4zLjNoLS45MzdhLjMuMywwLDAsMS0uMy0uM3YtNi44QS42LjYsMCwwLDEsMTQuNzgyLDYuMDkzWiIvPjwvZz48Y2lyY2xlIGZpbGw9InVybCgjYTYyYTljYWQtYjE3My00Nzg1LWJhODEtOGVlMzBkNGRjNmViKSIgcj0iMS43MzgiIGN5PSIxMi4xMDYiIGN4PSI5LjA2NSIvPjwvZz48L2c+PC9zdmc+;fontFamily=Tahoma;fontSize=10;" parent="1" vertex="1">
          <mxGeometry x="860" y="150" width="40" height="40" as="geometry" />
        </mxCell>
        <mxCell id="IkQXpn9ixrnxDfD2KMmo-58" value="privatelink.redis.cache.windows.net" style="shape=image;verticalLabelPosition=middle;labelBackgroundColor=none;verticalAlign=middle;aspect=fixed;imageAspect=0;image=data:image/svg+xml,PHN2ZyB4bWxucz0iaHR0cDovL3d3dy53My5vcmcvMjAwMC9zdmciIHZpZXdCb3g9IjAgMCAxOCAxOCIgaGVpZ2h0PSIxOCIgd2lkdGg9IjE4IiBpZD0iYTU0MmNmMzktMmJhNi00MjA2LTgyNzgtNmE0ZjFjMjQ1MmY1Ij48ZGVmcz48cmFkaWFsR3JhZGllbnQgZ3JhZGllbnRVbml0cz0idXNlclNwYWNlT25Vc2UiIGdyYWRpZW50VHJhbnNmb3JtPSJtYXRyaXgoMC41LCAwLCAwLCAtMC41LCAzNDE0LjkxLCAzMzc0LjA1KSIgcj0iMTciIGN5PSI2NzI5LjY5IiBjeD0iLTY4MTEuNCIgaWQ9ImU3NTc5ZjRkLTM2YTMtNDY5My1hNzI2LTdhNjA1MGFjNTY3MSI+PHN0b3Agc3RvcC1jb2xvcj0iIzVlYTBlZiIgb2Zmc2V0PSIwLjE4Ii8+PHN0b3Agc3RvcC1jb2xvcj0iIzAwNzhkNCIgb2Zmc2V0PSIxIi8+PC9yYWRpYWxHcmFkaWVudD48L2RlZnM+PHRpdGxlPkljb24tbmV0d29ya2luZy02NDwvdGl0bGU+PHBhdGggZmlsbD0idXJsKCNlNzU3OWY0ZC0zNmEzLTQ2OTMtYTcyNi03YTYwNTBhYzU2NzEpIiBkPSJNMTQuMjEsMTUuNzJBOC41LDguNSwwLDAsMSwzLjc5LDIuMjhsLjA5LS4wNmE4LjUsOC41LDAsMCwxLDEwLjMzLDEzLjUiIGlkPSJmNTdlMTA1ZC02ZDJkLTRhZDctYjhjMy1jMTA2ODRjOWY5YjgiLz48cGF0aCBmaWxsPSIjNWVhMGVmIiBkPSJNOSwxLjMxQTcuNjksNy42OSwwLDEsMCwxNi42OSw5LDcuNyw3LjcsMCwwLDAsOSwxLjMxWk0xNC4xNSwzLjlBNy4zNyw3LjM3LDAsMCwxLDEyLDQuNyw4LjgzLDguODMsMCwwLDAsMTAuNzUsMiw3LjIsNy4yLDAsMCwxLDE0LjE1LDMuOVpNOSwxLjc0YTYuNTksNi41OSwwLDAsMSwxLjA5LjA5aDBhNy40OCw3LjQ4LDAsMCwxLDEuNTMsMywxNS4xMiwxNS4xMiwwLDAsMS01LjQ1LDBBNy4zOCw3LjM4LDAsMCwxLDcuNjgsMS44OWwwLDBBNy4zNCw3LjM0LDAsMCwxLDksMS43NFpNNywyQTguNzIsOC43MiwwLDAsMCw1LjczLDQuNjhhNS41OCw1LjU4LDAsMCwxLTEuOS0uNzdBNy4zNSw3LjM1LDAsMCwxLDcsMlpNMy43MiwxNGE1LjI3LDUuMjcsMCwwLDEsMS43OC0uNzYsNy4wOCw3LjA4LDAsMCwwLDEuMzUsMi43MkE3LjI1LDcuMjUsMCwwLDEsMy43MiwxNFptNi40MSwyLjJBNy4wOCw3LjA4LDAsMCwxLDksMTYuMjZhNi44Myw2LjgzLDAsMCwxLTEuNDQtLjE1bDAsMGE2LDYsMCwwLDEtMS42Ny0zLDE0LjczLDE0LjczLDAsMCwxLDUuODgsMCw2LDYsMCwwLDEtMS42OSwzWm0uNzMtLjE2YTcuMTMsNy4xMywwLDAsMCwxLjM4LTIuOCw2LjY4LDYuNjgsMCwwLDEsMiwuODNBNy4xMyw3LjEzLDAsMCwxLDEwLjg2LDE2Wm0xLjQ4LTMuMjJjLjA4LS4zNi4xNS0uNzMuMi0xLjEybC0uNDYuMTFjLS4wNS4zMS0uMS42Mi0uMTcuOTFhMTUuMjMsMTUuMjMsMCwwLDAtNi4wOSwwYy0uMDctLjI3LS4xMi0uNTYtLjE3LS44NmEuMjguMjgsMCwwLDEsMC0uMDlsLS40Ni0uMTNhMi4zNiwyLjM2LDAsMCwwLDAsLjI4YzAsLjMyLjExLjYyLjE3LjkxYTUuOSw1LjksMCwwLDAtMiwuODUsNy4yNCw3LjI0LDAsMCwxLC4xMS05LjQsNi4yOSw2LjI5LDAsMCwwLDIuMDguODZjLS4wNy4yNC0uMTMuNS0uMTguNzZzMCwuMjUtLjA4LjM3bC40Ny0uMTEsMC0uMTdjLjA2LS4yNi4xMi0uNTEuMTktLjc1QTE0Ljg5LDE0Ljg5LDAsMCwwLDksNS40OGExNSwxNSwwLDAsMCwyLjc4LS4yNmMuMDcuMjcuMTQuNTYuMi44NWwuNDYuMTFxLS4xMS0uNTQtLjI0LTFhNy43Myw3LjczLDAsMCwwLDIuMy0uOTEsNy4yMiw3LjIyLDAsMCwxLC4wNiw5LjQ5QTcuMjgsNy4yOCwwLDAsMCwxMi4zNCwxMi43OVoiLz48cGF0aCBmaWxsPSIjZmZmIiBkPSJNMy42OSw3YTcuOTIsNy45MiwwLDAsMSwxLjE2LS4wOCwyLjQ0LDIuNDQsMCwwLDEsMS43MS41MkEyLDIsMCwwLDEsNy4xNSw4LjlhMi4yMSwyLjIxLDAsMCwxLS42MSwxLjY0LDIuNiwyLjYsMCwwLDEtMS44Ni42MSw5LjE3LDkuMTcsMCwwLDEtMS0uMDVabS41NSwzLjczYTQsNCwwLDAsMCwuNTUsMEExLjYyLDEuNjIsMCwwLDAsNi41OCw4LjkyLDEuNSwxLjUsMCwwLDAsNC44Nyw3LjNhMy4xNywzLjE3LDAsMCwwLS42MywwWiIvPjxwYXRoIGZpbGw9IiNmZmYiIGQ9Ik03Ljg2LDExLjExVjYuOWguNTlMOS44LDlhMTIuMTgsMTIuMTgsMCwwLDEsLjc2LDEuMzdoMGMtLjA1LS41Ni0uMDYtMS4wNy0uMDYtMS43M1Y2LjlIMTF2NC4yMWgtLjU1TDkuMTMsOWMtLjI5LS40Ny0uNTctMS0uNzktMS40aDBjMCwuNTMsMCwxLDAsMS43NHYxLjhaIi8+PHBhdGggZmlsbD0iI2ZmZiIgZD0iTTExLjg5LDEwLjQ1YTIsMiwwLDAsMCwxLC4yN2MuNTYsMCwuODgtLjI5Ljg4LS43MnMtLjIyLS42Mi0uNzktLjgzLTEuMTItLjYtMS4xMi0xLjJhMS4yMiwxLjIyLDAsMCwxLDEuMzctMS4xNCwyLDIsMCwwLDEsLjkzLjJMMTQsNy40OGExLjYzLDEuNjMsMCwwLDAtLjgtLjJjLS41OCwwLS44LjM0LS44LjYzcy4yNi41OS44NC44MSwxLjA4LjYyLDEuMDgsMS4yNC0uNDgsMS4yMS0xLjQ4LDEuMjFhMi4xNiwyLjE2LDAsMCwxLTEuMDctLjI3WiIvPjwvc3ZnPg==;fontFamily=Tahoma;fontSize=10;labelPosition=right;align=left;" parent="1" vertex="1">
          <mxGeometry x="1120" y="50" width="40" height="40" as="geometry" />
        </mxCell>
        <mxCell id="IkQXpn9ixrnxDfD2KMmo-59" value="privatelink.mongo.cosmos.azure.com" style="shape=image;verticalLabelPosition=middle;labelBackgroundColor=none;verticalAlign=middle;aspect=fixed;imageAspect=0;image=data:image/svg+xml,PHN2ZyB4bWxucz0iaHR0cDovL3d3dy53My5vcmcvMjAwMC9zdmciIHZpZXdCb3g9IjAgMCAxOCAxOCIgaGVpZ2h0PSIxOCIgd2lkdGg9IjE4IiBpZD0iYTU0MmNmMzktMmJhNi00MjA2LTgyNzgtNmE0ZjFjMjQ1MmY1Ij48ZGVmcz48cmFkaWFsR3JhZGllbnQgZ3JhZGllbnRVbml0cz0idXNlclNwYWNlT25Vc2UiIGdyYWRpZW50VHJhbnNmb3JtPSJtYXRyaXgoMC41LCAwLCAwLCAtMC41LCAzNDE0LjkxLCAzMzc0LjA1KSIgcj0iMTciIGN5PSI2NzI5LjY5IiBjeD0iLTY4MTEuNCIgaWQ9ImU3NTc5ZjRkLTM2YTMtNDY5My1hNzI2LTdhNjA1MGFjNTY3MSI+PHN0b3Agc3RvcC1jb2xvcj0iIzVlYTBlZiIgb2Zmc2V0PSIwLjE4Ii8+PHN0b3Agc3RvcC1jb2xvcj0iIzAwNzhkNCIgb2Zmc2V0PSIxIi8+PC9yYWRpYWxHcmFkaWVudD48L2RlZnM+PHRpdGxlPkljb24tbmV0d29ya2luZy02NDwvdGl0bGU+PHBhdGggZmlsbD0idXJsKCNlNzU3OWY0ZC0zNmEzLTQ2OTMtYTcyNi03YTYwNTBhYzU2NzEpIiBkPSJNMTQuMjEsMTUuNzJBOC41LDguNSwwLDAsMSwzLjc5LDIuMjhsLjA5LS4wNmE4LjUsOC41LDAsMCwxLDEwLjMzLDEzLjUiIGlkPSJmNTdlMTA1ZC02ZDJkLTRhZDctYjhjMy1jMTA2ODRjOWY5YjgiLz48cGF0aCBmaWxsPSIjNWVhMGVmIiBkPSJNOSwxLjMxQTcuNjksNy42OSwwLDEsMCwxNi42OSw5LDcuNyw3LjcsMCwwLDAsOSwxLjMxWk0xNC4xNSwzLjlBNy4zNyw3LjM3LDAsMCwxLDEyLDQuNyw4LjgzLDguODMsMCwwLDAsMTAuNzUsMiw3LjIsNy4yLDAsMCwxLDE0LjE1LDMuOVpNOSwxLjc0YTYuNTksNi41OSwwLDAsMSwxLjA5LjA5aDBhNy40OCw3LjQ4LDAsMCwxLDEuNTMsMywxNS4xMiwxNS4xMiwwLDAsMS01LjQ1LDBBNy4zOCw3LjM4LDAsMCwxLDcuNjgsMS44OWwwLDBBNy4zNCw3LjM0LDAsMCwxLDksMS43NFpNNywyQTguNzIsOC43MiwwLDAsMCw1LjczLDQuNjhhNS41OCw1LjU4LDAsMCwxLTEuOS0uNzdBNy4zNSw3LjM1LDAsMCwxLDcsMlpNMy43MiwxNGE1LjI3LDUuMjcsMCwwLDEsMS43OC0uNzYsNy4wOCw3LjA4LDAsMCwwLDEuMzUsMi43MkE3LjI1LDcuMjUsMCwwLDEsMy43MiwxNFptNi40MSwyLjJBNy4wOCw3LjA4LDAsMCwxLDksMTYuMjZhNi44Myw2LjgzLDAsMCwxLTEuNDQtLjE1bDAsMGE2LDYsMCwwLDEtMS42Ny0zLDE0LjczLDE0LjczLDAsMCwxLDUuODgsMCw2LDYsMCwwLDEtMS42OSwzWm0uNzMtLjE2YTcuMTMsNy4xMywwLDAsMCwxLjM4LTIuOCw2LjY4LDYuNjgsMCwwLDEsMiwuODNBNy4xMyw3LjEzLDAsMCwxLDEwLjg2LDE2Wm0xLjQ4LTMuMjJjLjA4LS4zNi4xNS0uNzMuMi0xLjEybC0uNDYuMTFjLS4wNS4zMS0uMS42Mi0uMTcuOTFhMTUuMjMsMTUuMjMsMCwwLDAtNi4wOSwwYy0uMDctLjI3LS4xMi0uNTYtLjE3LS44NmEuMjguMjgsMCwwLDEsMC0uMDlsLS40Ni0uMTNhMi4zNiwyLjM2LDAsMCwwLDAsLjI4YzAsLjMyLjExLjYyLjE3LjkxYTUuOSw1LjksMCwwLDAtMiwuODUsNy4yNCw3LjI0LDAsMCwxLC4xMS05LjQsNi4yOSw2LjI5LDAsMCwwLDIuMDguODZjLS4wNy4yNC0uMTMuNS0uMTguNzZzMCwuMjUtLjA4LjM3bC40Ny0uMTEsMC0uMTdjLjA2LS4yNi4xMi0uNTEuMTktLjc1QTE0Ljg5LDE0Ljg5LDAsMCwwLDksNS40OGExNSwxNSwwLDAsMCwyLjc4LS4yNmMuMDcuMjcuMTQuNTYuMi44NWwuNDYuMTFxLS4xMS0uNTQtLjI0LTFhNy43Myw3LjczLDAsMCwwLDIuMy0uOTEsNy4yMiw3LjIyLDAsMCwxLC4wNiw5LjQ5QTcuMjgsNy4yOCwwLDAsMCwxMi4zNCwxMi43OVoiLz48cGF0aCBmaWxsPSIjZmZmIiBkPSJNMy42OSw3YTcuOTIsNy45MiwwLDAsMSwxLjE2LS4wOCwyLjQ0LDIuNDQsMCwwLDEsMS43MS41MkEyLDIsMCwwLDEsNy4xNSw4LjlhMi4yMSwyLjIxLDAsMCwxLS42MSwxLjY0LDIuNiwyLjYsMCwwLDEtMS44Ni42MSw5LjE3LDkuMTcsMCwwLDEtMS0uMDVabS41NSwzLjczYTQsNCwwLDAsMCwuNTUsMEExLjYyLDEuNjIsMCwwLDAsNi41OCw4LjkyLDEuNSwxLjUsMCwwLDAsNC44Nyw3LjNhMy4xNywzLjE3LDAsMCwwLS42MywwWiIvPjxwYXRoIGZpbGw9IiNmZmYiIGQ9Ik03Ljg2LDExLjExVjYuOWguNTlMOS44LDlhMTIuMTgsMTIuMTgsMCwwLDEsLjc2LDEuMzdoMGMtLjA1LS41Ni0uMDYtMS4wNy0uMDYtMS43M1Y2LjlIMTF2NC4yMWgtLjU1TDkuMTMsOWMtLjI5LS40Ny0uNTctMS0uNzktMS40aDBjMCwuNTMsMCwxLDAsMS43NHYxLjhaIi8+PHBhdGggZmlsbD0iI2ZmZiIgZD0iTTExLjg5LDEwLjQ1YTIsMiwwLDAsMCwxLC4yN2MuNTYsMCwuODgtLjI5Ljg4LS43MnMtLjIyLS42Mi0uNzktLjgzLTEuMTItLjYtMS4xMi0xLjJhMS4yMiwxLjIyLDAsMCwxLDEuMzctMS4xNCwyLDIsMCwwLDEsLjkzLjJMMTQsNy40OGExLjYzLDEuNjMsMCwwLDAtLjgtLjJjLS41OCwwLS44LjM0LS44LjYzcy4yNi41OS44NC44MSwxLjA4LjYyLDEuMDgsMS4yNC0uNDgsMS4yMS0xLjQ4LDEuMjFhMi4xNiwyLjE2LDAsMCwxLTEuMDctLjI3WiIvPjwvc3ZnPg==;fontFamily=Tahoma;fontSize=10;labelPosition=right;align=left;" parent="1" vertex="1">
          <mxGeometry x="1120" y="-20" width="40" height="40" as="geometry" />
        </mxCell>
        <mxCell id="IkQXpn9ixrnxDfD2KMmo-60" value="privatelink.servicebus.windows.net" style="shape=image;verticalLabelPosition=middle;labelBackgroundColor=none;verticalAlign=middle;aspect=fixed;imageAspect=0;image=data:image/svg+xml,PHN2ZyB4bWxucz0iaHR0cDovL3d3dy53My5vcmcvMjAwMC9zdmciIHZpZXdCb3g9IjAgMCAxOCAxOCIgaGVpZ2h0PSIxOCIgd2lkdGg9IjE4IiBpZD0iYTU0MmNmMzktMmJhNi00MjA2LTgyNzgtNmE0ZjFjMjQ1MmY1Ij48ZGVmcz48cmFkaWFsR3JhZGllbnQgZ3JhZGllbnRVbml0cz0idXNlclNwYWNlT25Vc2UiIGdyYWRpZW50VHJhbnNmb3JtPSJtYXRyaXgoMC41LCAwLCAwLCAtMC41LCAzNDE0LjkxLCAzMzc0LjA1KSIgcj0iMTciIGN5PSI2NzI5LjY5IiBjeD0iLTY4MTEuNCIgaWQ9ImU3NTc5ZjRkLTM2YTMtNDY5My1hNzI2LTdhNjA1MGFjNTY3MSI+PHN0b3Agc3RvcC1jb2xvcj0iIzVlYTBlZiIgb2Zmc2V0PSIwLjE4Ii8+PHN0b3Agc3RvcC1jb2xvcj0iIzAwNzhkNCIgb2Zmc2V0PSIxIi8+PC9yYWRpYWxHcmFkaWVudD48L2RlZnM+PHRpdGxlPkljb24tbmV0d29ya2luZy02NDwvdGl0bGU+PHBhdGggZmlsbD0idXJsKCNlNzU3OWY0ZC0zNmEzLTQ2OTMtYTcyNi03YTYwNTBhYzU2NzEpIiBkPSJNMTQuMjEsMTUuNzJBOC41LDguNSwwLDAsMSwzLjc5LDIuMjhsLjA5LS4wNmE4LjUsOC41LDAsMCwxLDEwLjMzLDEzLjUiIGlkPSJmNTdlMTA1ZC02ZDJkLTRhZDctYjhjMy1jMTA2ODRjOWY5YjgiLz48cGF0aCBmaWxsPSIjNWVhMGVmIiBkPSJNOSwxLjMxQTcuNjksNy42OSwwLDEsMCwxNi42OSw5LDcuNyw3LjcsMCwwLDAsOSwxLjMxWk0xNC4xNSwzLjlBNy4zNyw3LjM3LDAsMCwxLDEyLDQuNyw4LjgzLDguODMsMCwwLDAsMTAuNzUsMiw3LjIsNy4yLDAsMCwxLDE0LjE1LDMuOVpNOSwxLjc0YTYuNTksNi41OSwwLDAsMSwxLjA5LjA5aDBhNy40OCw3LjQ4LDAsMCwxLDEuNTMsMywxNS4xMiwxNS4xMiwwLDAsMS01LjQ1LDBBNy4zOCw3LjM4LDAsMCwxLDcuNjgsMS44OWwwLDBBNy4zNCw3LjM0LDAsMCwxLDksMS43NFpNNywyQTguNzIsOC43MiwwLDAsMCw1LjczLDQuNjhhNS41OCw1LjU4LDAsMCwxLTEuOS0uNzdBNy4zNSw3LjM1LDAsMCwxLDcsMlpNMy43MiwxNGE1LjI3LDUuMjcsMCwwLDEsMS43OC0uNzYsNy4wOCw3LjA4LDAsMCwwLDEuMzUsMi43MkE3LjI1LDcuMjUsMCwwLDEsMy43MiwxNFptNi40MSwyLjJBNy4wOCw3LjA4LDAsMCwxLDksMTYuMjZhNi44Myw2LjgzLDAsMCwxLTEuNDQtLjE1bDAsMGE2LDYsMCwwLDEtMS42Ny0zLDE0LjczLDE0LjczLDAsMCwxLDUuODgsMCw2LDYsMCwwLDEtMS42OSwzWm0uNzMtLjE2YTcuMTMsNy4xMywwLDAsMCwxLjM4LTIuOCw2LjY4LDYuNjgsMCwwLDEsMiwuODNBNy4xMyw3LjEzLDAsMCwxLDEwLjg2LDE2Wm0xLjQ4LTMuMjJjLjA4LS4zNi4xNS0uNzMuMi0xLjEybC0uNDYuMTFjLS4wNS4zMS0uMS42Mi0uMTcuOTFhMTUuMjMsMTUuMjMsMCwwLDAtNi4wOSwwYy0uMDctLjI3LS4xMi0uNTYtLjE3LS44NmEuMjguMjgsMCwwLDEsMC0uMDlsLS40Ni0uMTNhMi4zNiwyLjM2LDAsMCwwLDAsLjI4YzAsLjMyLjExLjYyLjE3LjkxYTUuOSw1LjksMCwwLDAtMiwuODUsNy4yNCw3LjI0LDAsMCwxLC4xMS05LjQsNi4yOSw2LjI5LDAsMCwwLDIuMDguODZjLS4wNy4yNC0uMTMuNS0uMTguNzZzMCwuMjUtLjA4LjM3bC40Ny0uMTEsMC0uMTdjLjA2LS4yNi4xMi0uNTEuMTktLjc1QTE0Ljg5LDE0Ljg5LDAsMCwwLDksNS40OGExNSwxNSwwLDAsMCwyLjc4LS4yNmMuMDcuMjcuMTQuNTYuMi44NWwuNDYuMTFxLS4xMS0uNTQtLjI0LTFhNy43Myw3LjczLDAsMCwwLDIuMy0uOTEsNy4yMiw3LjIyLDAsMCwxLC4wNiw5LjQ5QTcuMjgsNy4yOCwwLDAsMCwxMi4zNCwxMi43OVoiLz48cGF0aCBmaWxsPSIjZmZmIiBkPSJNMy42OSw3YTcuOTIsNy45MiwwLDAsMSwxLjE2LS4wOCwyLjQ0LDIuNDQsMCwwLDEsMS43MS41MkEyLDIsMCwwLDEsNy4xNSw4LjlhMi4yMSwyLjIxLDAsMCwxLS42MSwxLjY0LDIuNiwyLjYsMCwwLDEtMS44Ni42MSw5LjE3LDkuMTcsMCwwLDEtMS0uMDVabS41NSwzLjczYTQsNCwwLDAsMCwuNTUsMEExLjYyLDEuNjIsMCwwLDAsNi41OCw4LjkyLDEuNSwxLjUsMCwwLDAsNC44Nyw3LjNhMy4xNywzLjE3LDAsMCwwLS42MywwWiIvPjxwYXRoIGZpbGw9IiNmZmYiIGQ9Ik03Ljg2LDExLjExVjYuOWguNTlMOS44LDlhMTIuMTgsMTIuMTgsMCwwLDEsLjc2LDEuMzdoMGMtLjA1LS41Ni0uMDYtMS4wNy0uMDYtMS43M1Y2LjlIMTF2NC4yMWgtLjU1TDkuMTMsOWMtLjI5LS40Ny0uNTctMS0uNzktMS40aDBjMCwuNTMsMCwxLDAsMS43NHYxLjhaIi8+PHBhdGggZmlsbD0iI2ZmZiIgZD0iTTExLjg5LDEwLjQ1YTIsMiwwLDAsMCwxLC4yN2MuNTYsMCwuODgtLjI5Ljg4LS43MnMtLjIyLS42Mi0uNzktLjgzLTEuMTItLjYtMS4xMi0xLjJhMS4yMiwxLjIyLDAsMCwxLDEuMzctMS4xNCwyLDIsMCwwLDEsLjkzLjJMMTQsNy40OGExLjYzLDEuNjMsMCwwLDAtLjgtLjJjLS41OCwwLS44LjM0LS44LjYzcy4yNi41OS44NC44MSwxLjA4LjYyLDEuMDgsMS4yNC0uNDgsMS4yMS0xLjQ4LDEuMjFhMi4xNiwyLjE2LDAsMCwxLTEuMDctLjI3WiIvPjwvc3ZnPg==;fontFamily=Tahoma;fontSize=10;labelPosition=right;align=left;" parent="1" vertex="1">
          <mxGeometry x="1120" y="120" width="40" height="40" as="geometry" />
        </mxCell>
        <mxCell id="IkQXpn9ixrnxDfD2KMmo-61" value="privatelink.vaultcore.azure.net" style="shape=image;verticalLabelPosition=middle;labelBackgroundColor=none;verticalAlign=middle;aspect=fixed;imageAspect=0;image=data:image/svg+xml,PHN2ZyB4bWxucz0iaHR0cDovL3d3dy53My5vcmcvMjAwMC9zdmciIHZpZXdCb3g9IjAgMCAxOCAxOCIgaGVpZ2h0PSIxOCIgd2lkdGg9IjE4IiBpZD0iYTU0MmNmMzktMmJhNi00MjA2LTgyNzgtNmE0ZjFjMjQ1MmY1Ij48ZGVmcz48cmFkaWFsR3JhZGllbnQgZ3JhZGllbnRVbml0cz0idXNlclNwYWNlT25Vc2UiIGdyYWRpZW50VHJhbnNmb3JtPSJtYXRyaXgoMC41LCAwLCAwLCAtMC41LCAzNDE0LjkxLCAzMzc0LjA1KSIgcj0iMTciIGN5PSI2NzI5LjY5IiBjeD0iLTY4MTEuNCIgaWQ9ImU3NTc5ZjRkLTM2YTMtNDY5My1hNzI2LTdhNjA1MGFjNTY3MSI+PHN0b3Agc3RvcC1jb2xvcj0iIzVlYTBlZiIgb2Zmc2V0PSIwLjE4Ii8+PHN0b3Agc3RvcC1jb2xvcj0iIzAwNzhkNCIgb2Zmc2V0PSIxIi8+PC9yYWRpYWxHcmFkaWVudD48L2RlZnM+PHRpdGxlPkljb24tbmV0d29ya2luZy02NDwvdGl0bGU+PHBhdGggZmlsbD0idXJsKCNlNzU3OWY0ZC0zNmEzLTQ2OTMtYTcyNi03YTYwNTBhYzU2NzEpIiBkPSJNMTQuMjEsMTUuNzJBOC41LDguNSwwLDAsMSwzLjc5LDIuMjhsLjA5LS4wNmE4LjUsOC41LDAsMCwxLDEwLjMzLDEzLjUiIGlkPSJmNTdlMTA1ZC02ZDJkLTRhZDctYjhjMy1jMTA2ODRjOWY5YjgiLz48cGF0aCBmaWxsPSIjNWVhMGVmIiBkPSJNOSwxLjMxQTcuNjksNy42OSwwLDEsMCwxNi42OSw5LDcuNyw3LjcsMCwwLDAsOSwxLjMxWk0xNC4xNSwzLjlBNy4zNyw3LjM3LDAsMCwxLDEyLDQuNyw4LjgzLDguODMsMCwwLDAsMTAuNzUsMiw3LjIsNy4yLDAsMCwxLDE0LjE1LDMuOVpNOSwxLjc0YTYuNTksNi41OSwwLDAsMSwxLjA5LjA5aDBhNy40OCw3LjQ4LDAsMCwxLDEuNTMsMywxNS4xMiwxNS4xMiwwLDAsMS01LjQ1LDBBNy4zOCw3LjM4LDAsMCwxLDcuNjgsMS44OWwwLDBBNy4zNCw3LjM0LDAsMCwxLDksMS43NFpNNywyQTguNzIsOC43MiwwLDAsMCw1LjczLDQuNjhhNS41OCw1LjU4LDAsMCwxLTEuOS0uNzdBNy4zNSw3LjM1LDAsMCwxLDcsMlpNMy43MiwxNGE1LjI3LDUuMjcsMCwwLDEsMS43OC0uNzYsNy4wOCw3LjA4LDAsMCwwLDEuMzUsMi43MkE3LjI1LDcuMjUsMCwwLDEsMy43MiwxNFptNi40MSwyLjJBNy4wOCw3LjA4LDAsMCwxLDksMTYuMjZhNi44Myw2LjgzLDAsMCwxLTEuNDQtLjE1bDAsMGE2LDYsMCwwLDEtMS42Ny0zLDE0LjczLDE0LjczLDAsMCwxLDUuODgsMCw2LDYsMCwwLDEtMS42OSwzWm0uNzMtLjE2YTcuMTMsNy4xMywwLDAsMCwxLjM4LTIuOCw2LjY4LDYuNjgsMCwwLDEsMiwuODNBNy4xMyw3LjEzLDAsMCwxLDEwLjg2LDE2Wm0xLjQ4LTMuMjJjLjA4LS4zNi4xNS0uNzMuMi0xLjEybC0uNDYuMTFjLS4wNS4zMS0uMS42Mi0uMTcuOTFhMTUuMjMsMTUuMjMsMCwwLDAtNi4wOSwwYy0uMDctLjI3LS4xMi0uNTYtLjE3LS44NmEuMjguMjgsMCwwLDEsMC0uMDlsLS40Ni0uMTNhMi4zNiwyLjM2LDAsMCwwLDAsLjI4YzAsLjMyLjExLjYyLjE3LjkxYTUuOSw1LjksMCwwLDAtMiwuODUsNy4yNCw3LjI0LDAsMCwxLC4xMS05LjQsNi4yOSw2LjI5LDAsMCwwLDIuMDguODZjLS4wNy4yNC0uMTMuNS0uMTguNzZzMCwuMjUtLjA4LjM3bC40Ny0uMTEsMC0uMTdjLjA2LS4yNi4xMi0uNTEuMTktLjc1QTE0Ljg5LDE0Ljg5LDAsMCwwLDksNS40OGExNSwxNSwwLDAsMCwyLjc4LS4yNmMuMDcuMjcuMTQuNTYuMi44NWwuNDYuMTFxLS4xMS0uNTQtLjI0LTFhNy43Myw3LjczLDAsMCwwLDIuMy0uOTEsNy4yMiw3LjIyLDAsMCwxLC4wNiw5LjQ5QTcuMjgsNy4yOCwwLDAsMCwxMi4zNCwxMi43OVoiLz48cGF0aCBmaWxsPSIjZmZmIiBkPSJNMy42OSw3YTcuOTIsNy45MiwwLDAsMSwxLjE2LS4wOCwyLjQ0LDIuNDQsMCwwLDEsMS43MS41MkEyLDIsMCwwLDEsNy4xNSw4LjlhMi4yMSwyLjIxLDAsMCwxLS42MSwxLjY0LDIuNiwyLjYsMCwwLDEtMS44Ni42MSw5LjE3LDkuMTcsMCwwLDEtMS0uMDVabS41NSwzLjczYTQsNCwwLDAsMCwuNTUsMEExLjYyLDEuNjIsMCwwLDAsNi41OCw4LjkyLDEuNSwxLjUsMCwwLDAsNC44Nyw3LjNhMy4xNywzLjE3LDAsMCwwLS42MywwWiIvPjxwYXRoIGZpbGw9IiNmZmYiIGQ9Ik03Ljg2LDExLjExVjYuOWguNTlMOS44LDlhMTIuMTgsMTIuMTgsMCwwLDEsLjc2LDEuMzdoMGMtLjA1LS41Ni0uMDYtMS4wNy0uMDYtMS43M1Y2LjlIMTF2NC4yMWgtLjU1TDkuMTMsOWMtLjI5LS40Ny0uNTctMS0uNzktMS40aDBjMCwuNTMsMCwxLDAsMS43NHYxLjhaIi8+PHBhdGggZmlsbD0iI2ZmZiIgZD0iTTExLjg5LDEwLjQ1YTIsMiwwLDAsMCwxLC4yN2MuNTYsMCwuODgtLjI5Ljg4LS43MnMtLjIyLS42Mi0uNzktLjgzLTEuMTItLjYtMS4xMi0xLjJhMS4yMiwxLjIyLDAsMCwxLDEuMzctMS4xNCwyLDIsMCwwLDEsLjkzLjJMMTQsNy40OGExLjYzLDEuNjMsMCwwLDAtLjgtLjJjLS41OCwwLS44LjM0LS44LjYzcy4yNi41OS44NC44MSwxLjA4LjYyLDEuMDgsMS4yNC0uNDgsMS4yMS0xLjQ4LDEuMjFhMi4xNiwyLjE2LDAsMCwxLTEuMDctLjI3WiIvPjwvc3ZnPg==;fontFamily=Tahoma;fontSize=10;labelPosition=right;align=left;" parent="1" vertex="1">
          <mxGeometry x="1120" y="260" width="40" height="40" as="geometry" />
        </mxCell>
        <mxCell id="IkQXpn9ixrnxDfD2KMmo-24" value="mil-x-cosmos-pep" style="shape=image;verticalLabelPosition=bottom;labelBackgroundColor=#DAE8FC;verticalAlign=top;aspect=fixed;imageAspect=0;image=data:image/svg+xml,PHN2ZyB4bWxucz0iaHR0cDovL3d3dy53My5vcmcvMjAwMC9zdmciIHZpZXdCb3g9IjAgMCAxOCAxOCIgaGVpZ2h0PSIxOCIgd2lkdGg9IjE4Ij48ZGVmcz48bGluZWFyR3JhZGllbnQgZ3JhZGllbnRVbml0cz0idXNlclNwYWNlT25Vc2UiIGdyYWRpZW50VHJhbnNmb3JtPSJtYXRyaXgoMSwgMCwgMCwgLTEsIDAsIDc5MS41MTYpIiB5Mj0iNzg3LjQ5MiIgeDI9IjkuMDg0IiB5MT0iNzkwLjk2NyIgeDE9IjkuMDg0IiBpZD0iZjM4NmJiN2EtYmNiMi00YjY3LWI1YjItMDY4MTk2MThmZjUxIj48c3RvcCBzdG9wLWNvbG9yPSIjNTBlNmZmIiBvZmZzZXQ9IjAiLz48c3RvcCBzdG9wLWNvbG9yPSIjMzJiZWRkIiBvZmZzZXQ9IjEiLz48L2xpbmVhckdyYWRpZW50PjxsaW5lYXJHcmFkaWVudCBncmFkaWVudFVuaXRzPSJ1c2VyU3BhY2VPblVzZSIgeTI9IjEwLjM2OCIgeDI9IjkuMDY1IiB5MT0iMTMuODQzIiB4MT0iOS4wNjUiIGlkPSJhNjJhOWNhZC1iMTczLTQ3ODUtYmE4MS04ZWUzMGQ0ZGM2ZWIiPjxzdG9wIHN0b3AtY29sb3I9IiM1ZTk2MjQiIG9mZnNldD0iMCIvPjxzdG9wIHN0b3AtY29sb3I9IiM2MjljMjUiIG9mZnNldD0iMC4xODMiLz48c3RvcCBzdG9wLWNvbG9yPSIjNmRhZTJhIiBvZmZzZXQ9IjAuNDM1Ii8+PHN0b3Agc3RvcC1jb2xvcj0iIzdmY2IzMCIgb2Zmc2V0PSIwLjcyNiIvPjxzdG9wIHN0b3AtY29sb3I9IiM4NmQ2MzMiIG9mZnNldD0iMC44MjIiLz48L2xpbmVhckdyYWRpZW50PjwvZGVmcz48ZyBpZD0iYmRjZDcyNjgtMzFmYy00MTYzLTk1NDQtNjUxZDYxZjE0OThlIj48Zz48cGF0aCBmaWxsPSIjYjNiM2IzIiBkPSJNNy44NSwxMy4zNDJhMS43MzgsMS43MzgsMCwxLDAsMi40MzYtMi40NzksMS43MTUsMS43MTUsMCwwLDAtLjYyNi0uMzg5VjMuMDA5SDguNTQ4djcuNDQ0YTEuNzI5LDEuNzI5LDAsMCwwLS43LDIuODkxWiIvPjxjaXJjbGUgZmlsbD0idXJsKCNmMzg2YmI3YS1iY2IyLTRiNjctYjViMi0wNjgxOTYxOGZmNTEpIiByPSIxLjczOCIgY3k9IjIuMjA5IiBjeD0iOS4wODQiLz48Zz48cGF0aCBmaWxsPSIjNTBlNmZmIiB0cmFuc2Zvcm09InRyYW5zbGF0ZSgxNS40NTIgMjIuMjkyKSByb3RhdGUoMTM0LjkxOSkiIGQ9Ik0yLjYzMiwxMC40NDloLjkzN2EuMy4zLDAsMCwxLC4zLjN2Ni45MDlhLjYuNiwwLDAsMS0uNi42SDIuMzMyYTAsMCwwLDAsMSwwLDBWMTAuNzQ5QS4zLjMsMCwwLDEsMi42MzIsMTAuNDQ5WiIvPjxwYXRoIGZpbGw9IiMxNDkwZGYiIHRyYW5zZm9ybT0idHJhbnNsYXRlKDcuOTEgMC43NDkpIHJvdGF0ZSg0NC45MTkpIiBkPSJNMi41ODEsNi4wOTNoLjkzN2EuMy4zLDAsMCwxLC4zLjN2Ny40YTAsMCwwLDAsMSwwLDBIMi44OGEuNi42LDAsMCwxLS42LS42di02LjhBLjMuMywwLDAsMSwyLjU4MSw2LjA5M1oiLz48cGF0aCBmaWxsPSIjNTBlNmZmIiB0cmFuc2Zvcm09InRyYW5zbGF0ZSgxNC41NDIgLTYuMzMzKSByb3RhdGUoNDUuMDgxKSIgZD0iTTE0LjEzMiwxMC40NDloLjkzN2EuNi42LDAsMCwxLC42LjZ2Ni45MDlhLjMuMywwLDAsMS0uMy4zaC0uOTM3YS4zLjMsMCwwLDEtLjMtLjNWMTAuNDQ5YTAsMCwwLDAsMSwwLDBaIi8+PHBhdGggZmlsbD0iIzE0OTBkZiIgdHJhbnNmb3JtPSJ0cmFuc2xhdGUoMzIuNTU4IDYuNDI0KSByb3RhdGUoMTM1LjA4MSkiIGQ9Ik0xNC43ODIsNi4wOTNoLjkzN2EwLDAsMCwwLDEsMCwwdjcuNGEuMy4zLDAsMCwxLS4zLjNoLS45MzdhLjMuMywwLDAsMS0uMy0uM3YtNi44QS42LjYsMCwwLDEsMTQuNzgyLDYuMDkzWiIvPjwvZz48Y2lyY2xlIGZpbGw9InVybCgjYTYyYTljYWQtYjE3My00Nzg1LWJhODEtOGVlMzBkNGRjNmViKSIgcj0iMS43MzgiIGN5PSIxMi4xMDYiIGN4PSI5LjA2NSIvPjwvZz48L2c+PC9zdmc+;fontFamily=Tahoma;fontSize=10;" parent="1" vertex="1">
          <mxGeometry x="380" y="150" width="40" height="40" as="geometry" />
        </mxCell>
        <mxCell id="IG1KmGdoP6GWx7z7iu9f-1" value="" style="endArrow=open;html=1;rounded=0;endFill=0;fillColor=#fff2cc;strokeColor=#d6b656;" edge="1" parent="1" source="IkQXpn9ixrnxDfD2KMmo-63" target="IkQXpn9ixrnxDfD2KMmo-59">
          <mxGeometry width="50" height="50" relative="1" as="geometry">
            <mxPoint x="670" y="180" as="sourcePoint" />
            <mxPoint x="720" y="130" as="targetPoint" />
          </mxGeometry>
        </mxCell>
        <mxCell id="IG1KmGdoP6GWx7z7iu9f-2" value="" style="endArrow=open;html=1;rounded=0;endFill=0;fillColor=#fff2cc;strokeColor=#d6b656;" edge="1" parent="1" source="IkQXpn9ixrnxDfD2KMmo-63" target="IkQXpn9ixrnxDfD2KMmo-58">
          <mxGeometry width="50" height="50" relative="1" as="geometry">
            <mxPoint x="1070" y="32" as="sourcePoint" />
            <mxPoint x="1130" y="16" as="targetPoint" />
          </mxGeometry>
        </mxCell>
        <mxCell id="IG1KmGdoP6GWx7z7iu9f-3" value="" style="endArrow=open;html=1;rounded=0;endFill=0;fillColor=#fff2cc;strokeColor=#d6b656;" edge="1" parent="1" source="IkQXpn9ixrnxDfD2KMmo-63" target="IkQXpn9ixrnxDfD2KMmo-60">
          <mxGeometry width="50" height="50" relative="1" as="geometry">
            <mxPoint x="1080" y="42" as="sourcePoint" />
            <mxPoint x="1140" y="26" as="targetPoint" />
          </mxGeometry>
        </mxCell>
        <mxCell id="IG1KmGdoP6GWx7z7iu9f-4" value="" style="endArrow=open;html=1;rounded=0;endFill=0;fillColor=#fff2cc;strokeColor=#d6b656;" edge="1" parent="1" source="IkQXpn9ixrnxDfD2KMmo-63" target="IkQXpn9ixrnxDfD2KMmo-37">
          <mxGeometry width="50" height="50" relative="1" as="geometry">
            <mxPoint x="1090" y="52" as="sourcePoint" />
            <mxPoint x="1150" y="36" as="targetPoint" />
          </mxGeometry>
        </mxCell>
        <mxCell id="IG1KmGdoP6GWx7z7iu9f-5" value="" style="endArrow=open;html=1;rounded=0;endFill=0;fillColor=#fff2cc;strokeColor=#d6b656;" edge="1" parent="1" source="IkQXpn9ixrnxDfD2KMmo-63" target="IkQXpn9ixrnxDfD2KMmo-61">
          <mxGeometry width="50" height="50" relative="1" as="geometry">
            <mxPoint x="1100" y="62" as="sourcePoint" />
            <mxPoint x="1160" y="46" as="targetPoint" />
          </mxGeometry>
        </mxCell>
        <mxCell id="IG1KmGdoP6GWx7z7iu9f-6" value="mil-x-dnsforwarder-snet" style="shape=image;verticalLabelPosition=middle;labelBackgroundColor=none;verticalAlign=middle;aspect=fixed;imageAspect=0;image=data:image/svg+xml,PHN2ZyB4bWxucz0iaHR0cDovL3d3dy53My5vcmcvMjAwMC9zdmciIHZpZXdCb3g9IjAgMCAxOCAxOCIgaGVpZ2h0PSIxOCIgd2lkdGg9IjE4Ij48ZGVmcz48bGluZWFyR3JhZGllbnQgZ3JhZGllbnRVbml0cz0idXNlclNwYWNlT25Vc2UiIHkyPSI3LjY5NSIgeDI9IjkuMDMzIiB5MT0iMTAuMzA1IiB4MT0iOS4wMzMiIGlkPSJiY2ViNjBkZC04YjhjLTQwOTgtOTRmOC1hZWI0ZGIyZWRhZWYiPjxzdG9wIHN0b3AtY29sb3I9IiM1ZTk2MjQiIG9mZnNldD0iMCIvPjxzdG9wIHN0b3AtY29sb3I9IiM2ZmIwMmEiIG9mZnNldD0iMC4yNDEiLz48c3RvcCBzdG9wLWNvbG9yPSIjN2NjNTJmIiBvZmZzZXQ9IjAuNTAxIi8+PHN0b3Agc3RvcC1jb2xvcj0iIzgzZDIzMiIgb2Zmc2V0PSIwLjc1NiIvPjxzdG9wIHN0b3AtY29sb3I9IiM4NmQ2MzMiIG9mZnNldD0iMSIvPjwvbGluZWFyR3JhZGllbnQ+PC9kZWZzPjxnIGlkPSJhYzc1YzIxZS0yYTkzLTQ2NGYtODA0OC1mMTUxOGRhYjhiNzUiPjxnPjxwYXRoIGZpbGw9InVybCgjYmNlYjYwZGQtOGI4Yy00MDk4LTk0ZjgtYWViNGRiMmVkYWVmKSIgZD0iTTkuMDMxLDcuN0ExLjMwNSwxLjMwNSwwLDEsMCwxMC4zMzgsOSwxLjMwNSwxLjMwNSwwLDAsMCw5LjAzMSw3LjdaIi8+PGc+PHBhdGggZmlsbD0iIzUwZTZmZiIgdHJhbnNmb3JtPSJ0cmFuc2xhdGUoMTMuNjUzIDE2LjQ4NSkgcm90YXRlKDEzNC45MTkpIiBkPSJNMi45NjEsNy4zNzRoLjg4OGEuMjg0LjI4NCwwLDAsMSwuMjg0LjI4NHY2LjU1MWEuNTY4LjU2OCwwLDAsMS0uNTY4LjU2OEgyLjY3N2EwLDAsMCwwLDEsMCwwVjcuNjU5QS4yODQuMjg0LDAsMCwxLDIuOTYxLDcuMzc0WiIvPjxwYXRoIGZpbGw9IiMxNDkwZGYiIHRyYW5zZm9ybT0idHJhbnNsYXRlKDUuODQ3IC0wLjM1OCkgcm90YXRlKDQ0LjkxOSkiIGQ9Ik0yLjkxMywzLjI0NEgzLjhhLjI4NC4yODQsMCwwLDEsLjI4NC4yODR2Ny4wMTVhMCwwLDAsMCwxLDAsMEgzLjJhLjU2OC41NjgsMCwwLDEtLjU2OC0uNTY4VjMuNTI4YS4yODQuMjg0LDAsMCwxLC4yODQtLjI4NFoiLz48cGF0aCBmaWxsPSIjNTBlNmZmIiB0cmFuc2Zvcm09InRyYW5zbGF0ZSgxMi4xMzIgLTcuMDc5KSByb3RhdGUoNDUuMDgxKSIgZD0iTTEzLjg2Nyw3LjM3NGguODg4YS41NjguNTY4LDAsMCwxLC41NjguNTY4djYuNTUxYS4yODQuMjg0LDAsMCwxLS4yODQuMjg0aC0uODg4YS4yODQuMjg0LDAsMCwxLS4yODQtLjI4NFY3LjM3NGEwLDAsMCwwLDEsMCwwWiIvPjxwYXRoIGZpbGw9IiMxNDkwZGYiIHRyYW5zZm9ybT0idHJhbnNsYXRlKDI5Ljg3OSAxLjQzNSkgcm90YXRlKDEzNS4wODEpIiBkPSJNMTQuNDgzLDMuMjQ0aC44ODhhMCwwLDAsMCwxLDAsMHY3LjAxNWEuMjg0LjI4NCwwLDAsMS0uMjg0LjI4NEgxNC4yYS4yODQuMjg0LDAsMCwxLS4yODQtLjI4NFYzLjgxMmEuNTY4LjU2OCwwLDAsMSwuNTY4LS41NjhaIi8+PC9nPjwvZz48L2c+PC9zdmc+;fontFamily=Tahoma;fontSize=10;labelPosition=right;align=left;" vertex="1" parent="1">
          <mxGeometry x="80" y="260" width="20" height="20" as="geometry" />
        </mxCell>
        <mxCell id="IG1KmGdoP6GWx7z7iu9f-7" value="mil-x-vpn-dnsfrw" style="shape=image;verticalLabelPosition=bottom;labelBackgroundColor=#DAE8FC;verticalAlign=top;aspect=fixed;imageAspect=0;image=data:image/svg+xml,PHN2ZyB4bWxucz0iaHR0cDovL3d3dy53My5vcmcvMjAwMC9zdmciIHZpZXdCb3g9IjAgMCAxOCAxOCIgaGVpZ2h0PSIxOCIgd2lkdGg9IjE4IiBpZD0iYmViNDQwZjUtZDAxNy00ZGRhLTk4OWEtZGRkNDI1ZmNlMDJlIj48ZGVmcz48bGluZWFyR3JhZGllbnQgZ3JhZGllbnRVbml0cz0idXNlclNwYWNlT25Vc2UiIHgyPSI5IiB5MT0iMTEuOTUiIHgxPSI5IiBpZD0iZjc1NDM5MDQtNGE4OS00MzVlLTk2Y2QtMTE1MjFjODI5ZmFhIj48c3RvcCBzdG9wLWNvbG9yPSIjMDA3OGQ0IiBvZmZzZXQ9IjAiLz48c3RvcCBzdG9wLWNvbG9yPSIjMTM4MGRhIiBvZmZzZXQ9IjAuMTYiLz48c3RvcCBzdG9wLWNvbG9yPSIjM2M5MWU1IiBvZmZzZXQ9IjAuNTMiLz48c3RvcCBzdG9wLWNvbG9yPSIjNTU5Y2VjIiBvZmZzZXQ9IjAuODIiLz48c3RvcCBzdG9wLWNvbG9yPSIjNWVhMGVmIiBvZmZzZXQ9IjEiLz48L2xpbmVhckdyYWRpZW50PjwvZGVmcz48dGl0bGU+SWNvbi1jb250YWluZXJzLTEwNDwvdGl0bGU+PHBhdGggZmlsbD0idXJsKCNmNzU0MzkwNC00YTg5LTQzNWUtOTZjZC0xMTUyMWM4MjlmYWEpIiBkPSJNMTcuNDMsOC4yMWEzLjc4LDMuNzgsMCwwLDAtMy4yOS0zLjY0QTQuNzcsNC43NywwLDAsMCw5LjIyLDAsNC45MSw0LjkxLDAsMCwwLDQuNTQsMy4xOWE0LjUyLDQuNTIsMCwwLDAtNCw0LjM1QTQuNiw0LjYsMCwwLDAsNS4zMiwxMmwuNDIsMGg3LjY4bC4yMSwwQTMuODQsMy44NCwwLDAsMCwxNy40Myw4LjIxWiIvPjxwYXRoIGZpbGw9IiNmMmYyZjIiIGQ9Ik02LjM2LDYuNDYsOSwzLjg3YS4zLjMsMCwwLDEsLjQzLDBMMTIsNi40NmEuMTMuMTMsMCwwLDEtLjEuMjNIMTAuMjhhLjE1LjE1LDAsMCwwLS4xNC4xNHYzLjI0YS4xMS4xMSwwLDAsMS0uMTEuMTFIOC4yOWEuMTEuMTEsMCwwLDEtLjExLS4xMVY2LjgzYS4xNC4xNCwwLDAsMC0uMTMtLjE0SDYuNDVBLjEzLjEzLDAsMCwxLDYuMzYsNi40NloiLz48cGF0aCBmaWxsPSIjYTY3YWY0IiBkPSJNMTQsMTEuMzdhLjEzLjEzLDAsMCwwLS4wOS0uMTNMOS4xNiw5LjY1SDlWMThoLjEzbDQuNzEtMS44OEEuMTMuMTMsMCwwLDAsMTQsMTZaIi8+PHBhdGggZmlsbD0iIzU1MmY5OSIgZD0iTTksOS42OGwtNC41MS44M2EuMTQuMTQsMCwwLDAtLjEyLjEzdjYuMjNhLjE1LjE1LDAsMCwwLC4xMS4xNEw5LDE4YS4xMy4xMywwLDAsMCwuMTYtLjEzdi04QS4xNC4xNCwwLDAsMCw5LDkuNjhaIi8+PHBvbHlnb24gb3BhY2l0eT0iMC43NSIgZmlsbD0iI2I3N2FmNCIgcG9pbnRzPSI2LjkyIDEwLjkyIDYuOTIgMTYuNzMgOC40OSAxNi45OCA4LjQ5IDEwLjY1IDYuOTIgMTAuOTIiLz48cG9seWdvbiBvcGFjaXR5PSIwLjc1IiBmaWxsPSIjYjc3YWY0IiBwb2ludHM9IjQuOTggMTEuMjQgNC45OCAxNi4zMiA2LjM1IDE2LjYgNi4zNSAxMS4wMSA0Ljk4IDExLjI0Ii8+PC9zdmc+;fontFamily=Tahoma;fontSize=10;" vertex="1" parent="1">
          <mxGeometry x="130" y="200" width="40" height="40" as="geometry" />
        </mxCell>
        <mxCell id="IG1KmGdoP6GWx7z7iu9f-8" value="mil-x-intern-vpn-gw" style="shape=image;verticalLabelPosition=bottom;labelBackgroundColor=#DAE8FC;verticalAlign=top;aspect=fixed;imageAspect=0;image=data:image/svg+xml,PHN2ZyB4bWxucz0iaHR0cDovL3d3dy53My5vcmcvMjAwMC9zdmciIHZpZXdCb3g9IjAgMCAxOCAxOCIgaGVpZ2h0PSIxOCIgd2lkdGg9IjE4IiBpZD0iYjZmNzRjYTUtM2FlNi00MjZmLTllZjEtOWZmNmJiYWE3ZjFjIj48ZGVmcz48bGluZWFyR3JhZGllbnQgZ3JhZGllbnRVbml0cz0idXNlclNwYWNlT25Vc2UiIHkyPSIyMC4wNSIgeDI9IjkuMTIiIHkxPSItNy43OSIgeDE9IjguNTkiIGlkPSJiZDczMDVmOC04Nzg5LTQ2MDAtYTFmMi02NTk0ZTYwZWVmY2MiPjxzdG9wIHN0b3AtY29sb3I9IiMzMmQ0ZjUiIG9mZnNldD0iMC4yMiIvPjxzdG9wIHN0b3AtY29sb3I9IiMzMWQxZjMiIG9mZnNldD0iMC40NyIvPjxzdG9wIHN0b3AtY29sb3I9IiMyZWM5ZWIiIG9mZnNldD0iMC42MyIvPjxzdG9wIHN0b3AtY29sb3I9IiMyOWJhZGUiIG9mZnNldD0iMC43NyIvPjxzdG9wIHN0b3AtY29sb3I9IiMyMmE1Y2IiIG9mZnNldD0iMC44OSIvPjxzdG9wIHN0b3AtY29sb3I9IiMxOThhYjMiIG9mZnNldD0iMSIvPjxzdG9wIHN0b3AtY29sb3I9IiMxOThhYjMiIG9mZnNldD0iMSIvPjwvbGluZWFyR3JhZGllbnQ+PC9kZWZzPjx0aXRsZT5JY29uLW5ldHdvcmtpbmctNjM8L3RpdGxlPjxwYXRoIGZpbGw9InVybCgjYmQ3MzA1ZjgtODc4OS00NjAwLWExZjItNjU5NGU2MGVlZmNjKSIgZD0iTTE1LjA2LDguNjdoLTFWNS41OWE1LjgxLDUuODEsMCwwLDAtMS40OS0zLjkyQTQuNzksNC43OSwwLDAsMCw4LjkxLDBhNC43OSw0Ljc5LDAsMCwwLTMuNywxLjY3QTUuNzMsNS43MywwLDAsMCwzLjcyLDUuNTlWOC42N0gyLjkxYS43LjcsMCwwLDAtLjY5LjY5djhhLjcuNywwLDAsMCwuNjkuNjlIMTUuMDZhLjcxLjcxLDAsMCwwLC43LS42OVY5LjM2QS43MS43MSwwLDAsMCwxNS4wNiw4LjY3Wm0tMy4zNywwSDYuMTNWNS41NEEzLjE4LDMuMTgsMCwwLDEsNywzLjM5YTIuNTEsMi41MSwwLDAsMSwxLjg4LS44NiwyLjU0LDIuNTQsMCwwLDEsMS44OS44NiwzLjE5LDMuMTksMCwwLDEsLjMyLjQzaDBhMywzLDAsMCwxLC42MSwxLjcxWiIvPjxwYXRoIGZpbGw9IiM1MGU2ZmYiIGQ9Ik0xNS4wOSw4LjY3SDIuOTJhLjY2LjY2LDAsMCwwLS40NC4xN2wxMy4wNSw5YS42Ny42NywwLDAsMCwuMjUtLjUydi04QS43MS43MSwwLDAsMCwxNS4wOSw4LjY3WiIvPjxwYXRoIG9wYWNpdHk9IjAuMiIgZmlsbD0iI2ZmZiIgZD0iTTIuOTQsOC42N0gxNS4xYS43LjcsMCwwLDEsLjQ1LjE3bC0xMy4wNiw5YS43LjcsMCwwLDEtLjI1LS41MnYtOEEuNzIuNzIsMCwwLDEsMi45NCw4LjY3WiIvPjxwYXRoIGZpbGw9IiNmZmYiIGQ9Ik03LjgsMTAuNiw5LDkuNGEuMDcuMDcsMCwwLDEsLjA5LDBsMS4xOSwxLjJhLjA2LjA2LDAsMCwxLDAsLjFoLS43YS4wNi4wNiwwLDAsMC0uMDYuMDZWMTIuM2EuMDYuMDYsMCwwLDEtLjA2LjA2SDguNjdhLjA1LjA1LDAsMCwxLS4wNi0uMDZWMTAuNzZhLjA3LjA3LDAsMCwwLS4wNy0uMDZoLS43QS4wNi4wNiwwLDAsMSw3LjgsMTAuNlptMi40Nyw1LjQ4TDkuMDgsMTcuMjdhLjA2LjA2LDAsMCwxLS4wOSwwTDcuOCwxNi4wOGEuMDYuMDYsMCwwLDEsMC0uMWguN2EuMDcuMDcsMCwwLDAsLjA3LS4wNlYxNC4zN2EuMDYuMDYsMCwwLDEsLjA2LS4wNmguNzRhLjA2LjA2LDAsMCwxLC4wNi4wNnYxLjU1YS4wNi4wNiwwLDAsMCwuMDYuMDZoLjdBLjA2LjA2LDAsMCwxLDEwLjI3LDE2LjA4Wm0tNC43LTEuNTV2LS43YS4wNi4wNiwwLDAsMC0uMDYtLjA2SDRhLjA2LjA2LDAsMCwxLS4wNi0uMDZWMTNBLjA2LjA2LDAsMCwxLDQsMTIuOTFINS41MWEuMDYuMDYsMCwwLDAsLjA2LS4wNnYtLjdhLjA3LjA3LDAsMCwxLC4xMS0uMDVsMS4xOSwxLjJhLjA2LjA2LDAsMCwxLDAsLjA4bC0xLjE5LDEuMkEuMDcuMDcsMCwwLDEsNS41NywxNC41M1ptNi45My0yLjM4di43YS4wNi4wNiwwLDAsMCwuMDYuMDZIMTQuMXMuMDcsMCwuMDcuMDZ2Ljc0YS4wNy4wNywwLDAsMS0uMDcuMDZIMTIuNTZhLjA2LjA2LDAsMCwwLS4wNi4wNnYuN2EuMDYuMDYsMCwwLDEtLjEuMDVsLTEuMTktMS4yYTAsMCwwLDAsMSwwLS4wOGwxLjE5LTEuMlMxMi41LDEyLjA5LDEyLjUsMTIuMTVaIi8+PC9zdmc+;fontFamily=Tahoma;fontSize=10;" vertex="1" parent="1">
          <mxGeometry x="130" y="-60" width="40" height="40" as="geometry" />
        </mxCell>
        <mxCell id="IG1KmGdoP6GWx7z7iu9f-9" value="mil-x-intern-vpn-gw-pip" style="shape=image;verticalLabelPosition=bottom;labelBackgroundColor=#FFFFFF;verticalAlign=top;aspect=fixed;imageAspect=0;image=data:image/svg+xml,PHN2ZyB4bWxucz0iaHR0cDovL3d3dy53My5vcmcvMjAwMC9zdmciIHZpZXdCb3g9IjAgMCAxOCAxOCIgaGVpZ2h0PSIxOCIgd2lkdGg9IjE4IiBpZD0iYjkwZjc0ODUtZWRiOC00OWNjLTkxMTgtYmMwNTRjZjVjMThlIj48ZGVmcz48bGluZWFyR3JhZGllbnQgZ3JhZGllbnRVbml0cz0idXNlclNwYWNlT25Vc2UiIHkyPSI1Ljc5IiB4Mj0iOSIgeTE9IjE1LjgzIiB4MT0iOSIgaWQ9ImFkNTJlMzFlLTc1ZGUtNDZhZi05YmRjLWJlYTAzOGFiNDIwOSI+PHN0b3Agc3RvcC1jb2xvcj0iIzMyYmVkZCIgb2Zmc2V0PSIwIi8+PHN0b3Agc3RvcC1jb2xvcj0iIzMyY2FlYSIgb2Zmc2V0PSIwLjE4Ii8+PHN0b3Agc3RvcC1jb2xvcj0iIzMyZDJmMiIgb2Zmc2V0PSIwLjQxIi8+PHN0b3Agc3RvcC1jb2xvcj0iIzMyZDRmNSIgb2Zmc2V0PSIwLjc4Ii8+PC9saW5lYXJHcmFkaWVudD48L2RlZnM+PHRpdGxlPkljb24tbmV0d29ya2luZy02OTwvdGl0bGU+PHBhdGggZmlsbD0idXJsKCNhZDUyZTMxZS03NWRlLTQ2YWYtOWJkYy1iZWEwMzhhYjQyMDkpIiBkPSJNLjUsNS43OWgxN2EwLDAsMCwwLDEsMCwwdjkuNDhhLjU3LjU3LDAsMCwxLS41Ny41N0gxLjA3YS41Ny41NywwLDAsMS0uNTctLjU3VjUuNzlBMCwwLDAsMCwxLC41LDUuNzlaIi8+PHBhdGggZmlsbD0iIzc2NzY3NiIgZD0iTTEuMDcsMi4xN0gxNi45M2EuNTcuNTcsMCwwLDEsLjU3LjU3VjUuNzlhMCwwLDAsMCwxLDAsMEguNWEwLDAsMCwwLDEsMCwwVjIuNzNBLjU3LjU3LDAsMCwxLDEuMDcsMi4xN1oiLz48Y2lyY2xlIGZpbGw9IiNmMmYyZjIiIHI9IjEuMzgiIGN5PSIxMC4xOSIgY3g9IjEyLjgyIi8+PGNpcmNsZSBmaWxsPSIjZjJmMmYyIiByPSIxLjM4IiBjeT0iMTAuMTkiIGN4PSI5LjA2Ii8+PGNpcmNsZSBmaWxsPSIjZjJmMmYyIiByPSIxLjM4IiBjeT0iMTAuMTkiIGN4PSI1LjE4Ii8+PHJlY3QgZmlsbD0iI2YyZjJmMiIgcng9IjAuMjgiIGhlaWdodD0iMS40NiIgd2lkdGg9IjEyLjQzIiB5PSIzLjI1IiB4PSIyLjc5Ii8+PC9zdmc+;fontFamily=Tahoma;fontSize=10;" vertex="1" parent="1">
          <mxGeometry x="-100" y="-60" width="40" height="40" as="geometry" />
        </mxCell>
        <mxCell id="IG1KmGdoP6GWx7z7iu9f-11" value="" style="endArrow=none;dashed=1;html=1;rounded=0;" edge="1" parent="1" source="IG1KmGdoP6GWx7z7iu9f-9" target="IG1KmGdoP6GWx7z7iu9f-8">
          <mxGeometry width="50" height="50" relative="1" as="geometry">
            <mxPoint x="520" y="110" as="sourcePoint" />
            <mxPoint x="570" y="60" as="targetPoint" />
          </mxGeometry>
        </mxCell>
        <mxCell id="IG1KmGdoP6GWx7z7iu9f-15" value="mil-x-appi" style="shape=image;verticalLabelPosition=bottom;labelBackgroundColor=default;verticalAlign=top;aspect=fixed;imageAspect=0;image=data:image/svg+xml,PHN2ZyB4bWxucz0iaHR0cDovL3d3dy53My5vcmcvMjAwMC9zdmciIHZpZXdCb3g9IjAgMCAxOCAxOCIgaGVpZ2h0PSIxOCIgd2lkdGg9IjE4IiBpZD0iYjZmNmQ5OWUtZjMzMC00ODFkLTgzNmYtZWE1OGNjNDIyMTdmIj48ZGVmcz48cmFkaWFsR3JhZGllbnQgZ3JhZGllbnRVbml0cz0idXNlclNwYWNlT25Vc2UiIHI9IjYuNDIiIGN5PSI3LjM1IiBjeD0iOSIgaWQ9ImE3YTFjNDMxLTZjNmQtNGE4Zi05YTY5LThkYTQzN2U1YjBjNSI+PHN0b3Agc3RvcC1jb2xvcj0iI2I3N2FmNCIgb2Zmc2V0PSIwIi8+PHN0b3Agc3RvcC1jb2xvcj0iI2IzNzhmMiIgb2Zmc2V0PSIwLjIxIi8+PHN0b3Agc3RvcC1jb2xvcj0iI2E2NzJlZCIgb2Zmc2V0PSIwLjQzIi8+PHN0b3Agc3RvcC1jb2xvcj0iIzkyNjdlNCIgb2Zmc2V0PSIwLjY1Ii8+PHN0b3Agc3RvcC1jb2xvcj0iIzc1NTlkOCIgb2Zmc2V0PSIwLjg4Ii8+PHN0b3Agc3RvcC1jb2xvcj0iIzYyNGZkMCIgb2Zmc2V0PSIxIi8+PC9yYWRpYWxHcmFkaWVudD48bGluZWFyR3JhZGllbnQgZ3JhZGllbnRVbml0cz0idXNlclNwYWNlT25Vc2UiIHkyPSIxMS40OSIgeDI9IjkuMDgiIHkxPSIzLjkxIiB4MT0iOS4wMiIgaWQ9ImVjMGM0ZjBkLTVjOGUtNDg4Mi05NmExLTg5ZDYxODA4ZWI0OSI+PHN0b3Agc3RvcC1jb2xvcj0iI2YyZjJmMiIgb2Zmc2V0PSIwIi8+PHN0b3Agc3RvcC1vcGFjaXR5PSIwLjk5IiBzdG9wLWNvbG9yPSIjZjFmMWYyIiBvZmZzZXQ9IjAuMjMiLz48c3RvcCBzdG9wLW9wYWNpdHk9IjAuOTUiIHN0b3AtY29sb3I9IiNlZGVkZjEiIG9mZnNldD0iMC4zNyIvPjxzdG9wIHN0b3Atb3BhY2l0eT0iMC44OSIgc3RvcC1jb2xvcj0iI2U3ZTVmMCIgb2Zmc2V0PSIwLjQ4Ii8+PHN0b3Agc3RvcC1vcGFjaXR5PSIwLjgxIiBzdG9wLWNvbG9yPSIjZGVkYmVlIiBvZmZzZXQ9IjAuNTgiLz48c3RvcCBzdG9wLW9wYWNpdHk9IjAuNyIgc3RvcC1jb2xvcj0iI2QzY2VlYiIgb2Zmc2V0PSIwLjY3Ii8+PHN0b3Agc3RvcC1vcGFjaXR5PSIwLjU3IiBzdG9wLWNvbG9yPSIjYzRiZWU4IiBvZmZzZXQ9IjAuNzYiLz48c3RvcCBzdG9wLW9wYWNpdHk9IjAuNDEiIHN0b3AtY29sb3I9IiNiNGFiZTUiIG9mZnNldD0iMC44NCIvPjxzdG9wIHN0b3Atb3BhY2l0eT0iMC4yMiIgc3RvcC1jb2xvcj0iI2EwOTVlMSIgb2Zmc2V0PSIwLjkyIi8+PHN0b3Agc3RvcC1vcGFjaXR5PSIwLjAyIiBzdG9wLWNvbG9yPSIjOGI3ZGRjIiBvZmZzZXQ9IjAuOTkiLz48c3RvcCBzdG9wLW9wYWNpdHk9IjAiIHN0b3AtY29sb3I9IiM4OTdiZGMiIG9mZnNldD0iMSIvPjwvbGluZWFyR3JhZGllbnQ+PC9kZWZzPjx0aXRsZT5JY29uLW1hbmFnZS0zMTA8L3RpdGxlPjxwYXRoIGZpbGw9IiNjZWNlY2UiIGQ9Ik0xMC4yMywxNy4zOWwuODEtLjg3VjE0LjJIN3YyLjMybC44MS44N0EuMzIuMzIsMCwwLDAsOCwxNy41aDJBLjMyLjMyLDAsMCwwLDEwLjIzLDE3LjM5WiIvPjxwYXRoIGZpbGw9InVybCgjYTdhMWM0MzEtNmM2ZC00YThmLTlhNjktOGRhNDM3ZTViMGM1KSIgZD0iTTksLjVBNS44OSw1Ljg5LDAsMCwwLDMuMDksNy4wN2MuMjcsMi40NywyLjYyLDMuNjIsMy4yOSw2Ljc1YS40OS40OSwwLDAsMCwuNDcuMzhoNC4zYS40OS40OSwwLDAsMCwuNDctLjM4Yy42Ny0zLjEzLDMtNC4yOCwzLjI5LTYuNzVBNS44OSw1Ljg5LDAsMCwwLDksLjVaTTcsMTQuMiIvPjxwYXRoIGZpbGw9InVybCgjZWMwYzRmMGQtNWM4ZS00ODgyLTk2YTEtODlkNjE4MDhlYjQ5KSIgZD0iTTExLjQ2LDMuNzlhMS40LDEuNCwwLDAsMC0xLjM1LDEuNDRWNkg4VjUuMjNBMS40MSwxLjQxLDAsMCwwLDYuNTksMy43OSwxLjQsMS40LDAsMCwwLDUuMjQsNS4yMywxLjQxLDEuNDEsMCwwLDAsNi41OSw2LjY4aC42NHY2YS4zNi4zNiwwLDAsMCwuNzIsMHYtNmgyLjE2djZhLjM2LjM2LDAsMSwwLC43Miwwdi02aC42M2ExLjQsMS40LDAsMCwwLDEuMzUtMS40NUExLjQsMS40LDAsMCwwLDExLjQ2LDMuNzlaTTcuMjMsNkg2LjU1YS43NC43NCwwLDAsMS0uNjgtLjc3Ljc0Ljc0LDAsMCwxLC42OC0uNzcuNzQuNzQsMCwwLDEsLjY4Ljc3Wm00LjI4LDBoLS42OFY1LjE5YS42OC42OCwwLDEsMSwxLjM1LDBBLjczLjczLDAsMCwxLDExLjUxLDZaIi8+PHBvbHlnb24gZmlsbD0iIzk5OSIgcG9pbnRzPSI2Ljk2IDE1LjggMTEuMDQgMTUuMDEgMTEuMDQgMTQuNTYgNi45NiAxNS4zNiA2Ljk2IDE1LjgiLz48cG9seWdvbiBmaWxsPSIjOTk5IiBwb2ludHM9IjExLjA0IDE2LjExIDExLjA0IDE1LjY3IDYuOTYgMTYuNDggNi45NiAxNi41MiA3LjI3IDE2Ljg2IDExLjA0IDE2LjExIi8+PC9zdmc+;fontFamily=Tahoma;fontSize=10;" vertex="1" parent="1">
          <mxGeometry x="380" y="-280" width="40" height="40" as="geometry" />
        </mxCell>
        <mxCell id="IG1KmGdoP6GWx7z7iu9f-17" value="" style="endArrow=none;dashed=1;html=1;rounded=0;" edge="1" parent="1" source="IG1KmGdoP6GWx7z7iu9f-15" target="IG1KmGdoP6GWx7z7iu9f-16">
          <mxGeometry width="50" height="50" relative="1" as="geometry">
            <mxPoint x="570" y="459.41" as="sourcePoint" />
            <mxPoint x="650" y="459.41" as="targetPoint" />
          </mxGeometry>
        </mxCell>
        <mxCell id="IG1KmGdoP6GWx7z7iu9f-20" value="mil-x-agw-pip" style="shape=image;verticalLabelPosition=bottom;labelBackgroundColor=#FFFFFF;verticalAlign=top;aspect=fixed;imageAspect=0;image=data:image/svg+xml,PHN2ZyB4bWxucz0iaHR0cDovL3d3dy53My5vcmcvMjAwMC9zdmciIHZpZXdCb3g9IjAgMCAxOCAxOCIgaGVpZ2h0PSIxOCIgd2lkdGg9IjE4IiBpZD0iYjkwZjc0ODUtZWRiOC00OWNjLTkxMTgtYmMwNTRjZjVjMThlIj48ZGVmcz48bGluZWFyR3JhZGllbnQgZ3JhZGllbnRVbml0cz0idXNlclNwYWNlT25Vc2UiIHkyPSI1Ljc5IiB4Mj0iOSIgeTE9IjE1LjgzIiB4MT0iOSIgaWQ9ImFkNTJlMzFlLTc1ZGUtNDZhZi05YmRjLWJlYTAzOGFiNDIwOSI+PHN0b3Agc3RvcC1jb2xvcj0iIzMyYmVkZCIgb2Zmc2V0PSIwIi8+PHN0b3Agc3RvcC1jb2xvcj0iIzMyY2FlYSIgb2Zmc2V0PSIwLjE4Ii8+PHN0b3Agc3RvcC1jb2xvcj0iIzMyZDJmMiIgb2Zmc2V0PSIwLjQxIi8+PHN0b3Agc3RvcC1jb2xvcj0iIzMyZDRmNSIgb2Zmc2V0PSIwLjc4Ii8+PC9saW5lYXJHcmFkaWVudD48L2RlZnM+PHRpdGxlPkljb24tbmV0d29ya2luZy02OTwvdGl0bGU+PHBhdGggZmlsbD0idXJsKCNhZDUyZTMxZS03NWRlLTQ2YWYtOWJkYy1iZWEwMzhhYjQyMDkpIiBkPSJNLjUsNS43OWgxN2EwLDAsMCwwLDEsMCwwdjkuNDhhLjU3LjU3LDAsMCwxLS41Ny41N0gxLjA3YS41Ny41NywwLDAsMS0uNTctLjU3VjUuNzlBMCwwLDAsMCwxLC41LDUuNzlaIi8+PHBhdGggZmlsbD0iIzc2NzY3NiIgZD0iTTEuMDcsMi4xN0gxNi45M2EuNTcuNTcsMCwwLDEsLjU3LjU3VjUuNzlhMCwwLDAsMCwxLDAsMEguNWEwLDAsMCwwLDEsMCwwVjIuNzNBLjU3LjU3LDAsMCwxLDEuMDcsMi4xN1oiLz48Y2lyY2xlIGZpbGw9IiNmMmYyZjIiIHI9IjEuMzgiIGN5PSIxMC4xOSIgY3g9IjEyLjgyIi8+PGNpcmNsZSBmaWxsPSIjZjJmMmYyIiByPSIxLjM4IiBjeT0iMTAuMTkiIGN4PSI5LjA2Ii8+PGNpcmNsZSBmaWxsPSIjZjJmMmYyIiByPSIxLjM4IiBjeT0iMTAuMTkiIGN4PSI1LjE4Ii8+PHJlY3QgZmlsbD0iI2YyZjJmMiIgcng9IjAuMjgiIGhlaWdodD0iMS40NiIgd2lkdGg9IjEyLjQzIiB5PSIzLjI1IiB4PSIyLjc5Ii8+PC9zdmc+;fontFamily=Tahoma;fontSize=10;" vertex="1" parent="1">
          <mxGeometry x="-100" y="80" width="40" height="40" as="geometry" />
        </mxCell>
        <mxCell id="IG1KmGdoP6GWx7z7iu9f-23" value="" style="endArrow=open;html=1;rounded=0;fillColor=#ffe6cc;strokeColor=#d79b00;endFill=0;edgeStyle=orthogonalEdgeStyle;curved=1;" edge="1" parent="1" source="IkQXpn9ixrnxDfD2KMmo-16" target="IG1KmGdoP6GWx7z7iu9f-16">
          <mxGeometry width="50" height="50" relative="1" as="geometry">
            <mxPoint x="260" y="473" as="sourcePoint" />
            <mxPoint x="450" y="507" as="targetPoint" />
          </mxGeometry>
        </mxCell>
        <mxCell id="IG1KmGdoP6GWx7z7iu9f-24" value="" style="endArrow=open;html=1;rounded=0;fillColor=#ffe6cc;strokeColor=#d79b00;endFill=0;edgeStyle=orthogonalEdgeStyle;curved=1;" edge="1" parent="1" source="IG1KmGdoP6GWx7z7iu9f-8" target="IG1KmGdoP6GWx7z7iu9f-16">
          <mxGeometry width="50" height="50" relative="1" as="geometry">
            <mxPoint x="270" y="483" as="sourcePoint" />
            <mxPoint x="460" y="517" as="targetPoint" />
            <Array as="points">
              <mxPoint x="150" y="-130" />
              <mxPoint x="520" y="-130" />
            </Array>
          </mxGeometry>
        </mxCell>
        <mxCell id="IG1KmGdoP6GWx7z7iu9f-25" value="mil-x-agw" style="shape=image;verticalLabelPosition=bottom;labelBackgroundColor=#DAE8FC;verticalAlign=top;aspect=fixed;imageAspect=0;image=data:image/svg+xml,PHN2ZyB4bWxucz0iaHR0cDovL3d3dy53My5vcmcvMjAwMC9zdmciIHZpZXdCb3g9IjAgMCAxOCAxOCIgaGVpZ2h0PSIxOCIgd2lkdGg9IjE4IiBpZD0iYWNhYzVhMzQtYTAzMi00OWY5LTkzOTctMzdmNGYxYjRhZTlhIj48ZGVmcz48bGluZWFyR3JhZGllbnQgZ3JhZGllbnRVbml0cz0idXNlclNwYWNlT25Vc2UiIGdyYWRpZW50VHJhbnNmb3JtPSJ0cmFuc2xhdGUoOSAtMy43Mykgcm90YXRlKDQ1KSIgeTI9Ii0wLjQ2IiB4Mj0iOSIgeTE9IjE5LjI1IiB4MT0iOSIgaWQ9ImY2ZDUzOTliLWE1Y2ItNGMwOS05NmNjLTllM2JiMWFmMjM4NiI+PHN0b3Agc3RvcC1jb2xvcj0iIzVlOTYyNCIgb2Zmc2V0PSIwIi8+PHN0b3Agc3RvcC1jb2xvcj0iIzZkYWQyYSIgb2Zmc2V0PSIwLjU1Ii8+PHN0b3Agc3RvcC1jb2xvcj0iIzc2YmMyZCIgb2Zmc2V0PSIxIi8+PC9saW5lYXJHcmFkaWVudD48bGluZWFyR3JhZGllbnQgZ3JhZGllbnRVbml0cz0idXNlclNwYWNlT25Vc2UiIHkyPSI1LjE4IiB4Mj0iNy41MyIgeTE9IjYuNDQiIHgxPSI3LjU0IiBpZD0iYTQzMjQyYTItNGQ5NS00ZjZkLTg4NzAtMjcwMmNlYjZhZWJjIj48c3RvcCBzdG9wLWNvbG9yPSIjY2NjIiBvZmZzZXQ9IjAiLz48c3RvcCBzdG9wLWNvbG9yPSIjZDdkN2Q3IiBvZmZzZXQ9IjAuMTIiLz48c3RvcCBzdG9wLWNvbG9yPSIjZWJlYmViIiBvZmZzZXQ9IjAuNDIiLz48c3RvcCBzdG9wLWNvbG9yPSIjZjhmOGY4IiBvZmZzZXQ9IjAuNzIiLz48c3RvcCBzdG9wLWNvbG9yPSIjZmNmY2ZjIiBvZmZzZXQ9IjEiLz48L2xpbmVhckdyYWRpZW50PjxsaW5lYXJHcmFkaWVudCBocmVmPSIjYTQzMjQyYTItNGQ5NS00ZjZkLTg4NzAtMjcwMmNlYjZhZWJjIiB5Mj0iNi41NyIgeDI9IjkuMzYiIHkxPSI3LjY5IiB4MT0iOS4zNiIgaWQ9ImVlZGNlNmRkLTcwNmEtNDNjNC1hYzY2LTY2YjczNTc4MjIxZCIvPjwvZGVmcz48cmVjdCBmaWxsPSJ1cmwoI2Y2ZDUzOTliLWE1Y2ItNGMwOS05NmNjLTllM2JiMWFmMjM4NikiIHRyYW5zZm9ybT0idHJhbnNsYXRlKC0zLjczIDkpIHJvdGF0ZSgtNDUpIiByeD0iMC41NyIgaGVpZ2h0PSIxMi4zNSIgd2lkdGg9IjEyLjM1IiB5PSIyLjgyIiB4PSIyLjgyIi8+PGc+PHBhdGggZmlsbD0iI2ZmZiIgZD0iTTEwLjg5LDEwLjUxaDIuODRhLjExLjExLDAsMCwwLC4xLS4xMVY3LjU3YS4xLjEsMCwwLDAtLjE4LS4wN2wtLjc4Ljc4LDAsLjA1YS4xLjEsMCwwLDEtLjE0LDBMOS4yNiw0LjkxYS4xLjEsMCwwLDAtLjE0LDBsLS44OC44OGEuMTEuMTEsMCwwLDAsMCwuMTVsMy40MSwzLjQxYS4xMS4xMSwwLDAsMSwwLC4xNWwtLjA1LjA1LS43OC43OEEuMTEuMTEsMCwwLDAsMTAuODksMTAuNTFaIi8+PHBhdGggZmlsbD0iI2ZmZiIgZD0iTTYuOTIsMTAuNTFINC4wOEEuMTEuMTEsMCwwLDEsNCwxMC40VjcuNTdhLjEuMSwwLDAsMSwuMTctLjA3bC43OS43OCwwLC4wNWEuMS4xLDAsMCwwLC4xNCwwTDguNTUsNC45MWEuMS4xLDAsMCwxLC4xNCwwbC44OC44OGEuMTEuMTEsMCwwLDEsMCwuMTVMNi4xNiw5LjM1YS4xMS4xMSwwLDAsMCwwLC4xNWwwLC4wNS43OC43OEEuMTEuMTEsMCwwLDEsNi45MiwxMC41MVoiLz48cGF0aCBmaWxsPSIjZmZmIiBkPSJNNi44MiwxMy4wN2wyLDJhLjEuMSwwLDAsMCwuMTQsMGwyLTJhLjEuMSwwLDAsMC0uMDctLjE3SDkuNzJhLjExLjExLDAsMCwxLS4xLS4xVjhhLjEuMSwwLDAsMC0uMS0uMTFIOC4yOEEuMTEuMTEsMCwwLDAsOC4xNyw4VjEyLjhhLjEuMSwwLDAsMS0uMS4xSDYuODlBLjEuMSwwLDAsMCw2LjgyLDEzLjA3WiIvPjwvZz48cGF0aCBmaWxsPSIjMDA3OGQ0IiBkPSJNMTAuNjUsNy43OEEyLjcxLDIuNzEsMCwwLDEsNy4zMywzLjVsMCwwYTIuNzEsMi43MSwwLDAsMSwzLjI5LDQuMyIgaWQ9ImFjMGE5YzBjLTJlOGMtNDg0My1iMDJiLTJmYWRmNzZiMjdkMCIvPjxjaXJjbGUgZmlsbD0idXJsKCNhNDMyNDJhMi00ZDk1LTRmNmQtODg3MC0yNzAyY2ViNmFlYmMpIiByPSIwLjg3IiBjeT0iNS41NSIgY3g9IjcuNTMiLz48Zz48cGF0aCBvcGFjaXR5PSIwLjU1IiBmaWxsPSIjZjJmMmYyIiBkPSJNNi42Nyw3bC4xOS4zTDcsNy41YTUuOTQsNS45NCwwLDAsMSwuMzQtMS4xLjg1Ljg1LDAsMCwxLS40NS0uMjNBNi43MSw2LjcxLDAsMCwwLDYuNjcsN1oiLz48cGF0aCBvcGFjaXR5PSIwLjU1IiBmaWxsPSIjZjJmMmYyIiBkPSJNNy4yNCw0LjczQTQsNCwwLDAsMSw3LDMuOGEyLjQ4LDIuNDgsMCwwLDAtLjM0LjQ2QTMuNTEsMy41MSwwLDAsMCw2Ljg2LDUsMSwxLDAsMCwxLDcuMjQsNC43M1oiLz48cGF0aCBvcGFjaXR5PSIwLjU1IiBmaWxsPSIjZjJmMmYyIiBkPSJNOC4xNyw2LjE0YS44Ny44NywwLDAsMS0uNDguMjYsNC42Miw0LjYyLDAsMCwwLC40Ni40MSw0LjE0LDQuMTQsMCwwLDAsLjY1LjM5VjcuMTNBLjUzLjUzLDAsMCwxLDksNi43MywzLjYsMy42LDAsMCwxLDguMTcsNi4xNFoiLz48cGF0aCBvcGFjaXR5PSIwLjU1IiBmaWxsPSIjZjJmMmYyIiBkPSJNMTAuNzksNy4yYTQuMTQsNC4xNCwwLDAsMS0uODctLjF2MGEuNTUuNTUsMCwwLDEtLjE2LjM5LDMuODQsMy44NCwwLDAsMCwxLjA4LjA4LDIuOTMsMi45MywwLDAsMCwuMzctLjQyWiIvPjwvZz48Y2lyY2xlIGZpbGw9InVybCgjZWVkY2U2ZGQtNzA2YS00M2M0LWFjNjYtNjZiNzM1NzgyMjFkKSIgcj0iMC41NiIgY3k9IjcuMTMiIGN4PSI5LjM2Ii8+PGNpcmNsZSBmaWxsPSIjZjJmMmYyIiByPSIwLjYiIGN5PSI1Ljc0IiBjeD0iMTAuNjQiLz48Zz48cGF0aCBvcGFjaXR5PSIwLjU1IiBmaWxsPSIjZjJmMmYyIiBkPSJNOS4yMSw0LjQyQTQuMjksNC4yOSwwLDAsMSwxMS4wOSw0YTIuMjQsMi4yNCwwLDAsMC0uNDctLjQ1LDQuNSw0LjUsMCwwLDAtMS40OS4zNWMtLjEsMC0uMTkuMTEtLjI5LjE2aDBhNS44NSw1Ljg1LDAsMCwxLS42My0uOTNsLS4zNC4xM2E1LjM1LDUuMzUsMCwwLDAsLjY1LDEsMy45MiwzLjkyLDAsMCwwLS42Ny41NS44Ny44NywwLDAsMSwuNDMuMzUsMy4yOSwzLjI5LDAsMCwxLC42MS0uNDgsOS4xNiw5LjE2LDAsMCwwLDEuMTcsMSwuNTcuNTcsMCwwLDEsLjItLjMyQTguNDQsOC40NCwwLDAsMSw5LjIxLDQuNDJaIi8+PHBhdGggb3BhY2l0eT0iMC41NSIgZmlsbD0iI2YyZjJmMiIgZD0iTTExLjU1LDYuMDloMGwtLjEsMGgwbC0uMDgsMGgwbC0uMS0uMDZhLjYxLjYxLDAsMCwxLS4yLjNsLjEyLjA3aDBsLjExLjA2aDBsLjI4LjE0aDBhMy41OCwzLjU4LDAsMCwwLC4wOS0uMzVaIi8+PC9nPjxjaXJjbGUgZmlsbD0iI2YyZjJmMiIgcj0iMC44NyIgY3k9IjUuNTUiIGN4PSI3LjUzIi8+PGNpcmNsZSBmaWxsPSIjZjJmMmYyIiByPSIwLjU2IiBjeT0iNy4xMyIgY3g9IjkuMzYiLz48L3N2Zz4=;fontFamily=Tahoma;fontSize=10;" vertex="1" parent="1">
          <mxGeometry x="130" y="80" width="40" height="40" as="geometry" />
        </mxCell>
        <mxCell id="IkQXpn9ixrnxDfD2KMmo-8" value="mil-x-agw-snet" style="shape=image;verticalLabelPosition=middle;labelBackgroundColor=none;verticalAlign=middle;aspect=fixed;imageAspect=0;image=data:image/svg+xml,PHN2ZyB4bWxucz0iaHR0cDovL3d3dy53My5vcmcvMjAwMC9zdmciIHZpZXdCb3g9IjAgMCAxOCAxOCIgaGVpZ2h0PSIxOCIgd2lkdGg9IjE4Ij48ZGVmcz48bGluZWFyR3JhZGllbnQgZ3JhZGllbnRVbml0cz0idXNlclNwYWNlT25Vc2UiIHkyPSI3LjY5NSIgeDI9IjkuMDMzIiB5MT0iMTAuMzA1IiB4MT0iOS4wMzMiIGlkPSJiY2ViNjBkZC04YjhjLTQwOTgtOTRmOC1hZWI0ZGIyZWRhZWYiPjxzdG9wIHN0b3AtY29sb3I9IiM1ZTk2MjQiIG9mZnNldD0iMCIvPjxzdG9wIHN0b3AtY29sb3I9IiM2ZmIwMmEiIG9mZnNldD0iMC4yNDEiLz48c3RvcCBzdG9wLWNvbG9yPSIjN2NjNTJmIiBvZmZzZXQ9IjAuNTAxIi8+PHN0b3Agc3RvcC1jb2xvcj0iIzgzZDIzMiIgb2Zmc2V0PSIwLjc1NiIvPjxzdG9wIHN0b3AtY29sb3I9IiM4NmQ2MzMiIG9mZnNldD0iMSIvPjwvbGluZWFyR3JhZGllbnQ+PC9kZWZzPjxnIGlkPSJhYzc1YzIxZS0yYTkzLTQ2NGYtODA0OC1mMTUxOGRhYjhiNzUiPjxnPjxwYXRoIGZpbGw9InVybCgjYmNlYjYwZGQtOGI4Yy00MDk4LTk0ZjgtYWViNGRiMmVkYWVmKSIgZD0iTTkuMDMxLDcuN0ExLjMwNSwxLjMwNSwwLDEsMCwxMC4zMzgsOSwxLjMwNSwxLjMwNSwwLDAsMCw5LjAzMSw3LjdaIi8+PGc+PHBhdGggZmlsbD0iIzUwZTZmZiIgdHJhbnNmb3JtPSJ0cmFuc2xhdGUoMTMuNjUzIDE2LjQ4NSkgcm90YXRlKDEzNC45MTkpIiBkPSJNMi45NjEsNy4zNzRoLjg4OGEuMjg0LjI4NCwwLDAsMSwuMjg0LjI4NHY2LjU1MWEuNTY4LjU2OCwwLDAsMS0uNTY4LjU2OEgyLjY3N2EwLDAsMCwwLDEsMCwwVjcuNjU5QS4yODQuMjg0LDAsMCwxLDIuOTYxLDcuMzc0WiIvPjxwYXRoIGZpbGw9IiMxNDkwZGYiIHRyYW5zZm9ybT0idHJhbnNsYXRlKDUuODQ3IC0wLjM1OCkgcm90YXRlKDQ0LjkxOSkiIGQ9Ik0yLjkxMywzLjI0NEgzLjhhLjI4NC4yODQsMCwwLDEsLjI4NC4yODR2Ny4wMTVhMCwwLDAsMCwxLDAsMEgzLjJhLjU2OC41NjgsMCwwLDEtLjU2OC0uNTY4VjMuNTI4YS4yODQuMjg0LDAsMCwxLC4yODQtLjI4NFoiLz48cGF0aCBmaWxsPSIjNTBlNmZmIiB0cmFuc2Zvcm09InRyYW5zbGF0ZSgxMi4xMzIgLTcuMDc5KSByb3RhdGUoNDUuMDgxKSIgZD0iTTEzLjg2Nyw3LjM3NGguODg4YS41NjguNTY4LDAsMCwxLC41NjguNTY4djYuNTUxYS4yODQuMjg0LDAsMCwxLS4yODQuMjg0aC0uODg4YS4yODQuMjg0LDAsMCwxLS4yODQtLjI4NFY3LjM3NGEwLDAsMCwwLDEsMCwwWiIvPjxwYXRoIGZpbGw9IiMxNDkwZGYiIHRyYW5zZm9ybT0idHJhbnNsYXRlKDI5Ljg3OSAxLjQzNSkgcm90YXRlKDEzNS4wODEpIiBkPSJNMTQuNDgzLDMuMjQ0aC44ODhhMCwwLDAsMCwxLDAsMHY3LjAxNWEuMjg0LjI4NCwwLDAsMS0uMjg0LjI4NEgxNC4yYS4yODQuMjg0LDAsMCwxLS4yODQtLjI4NFYzLjgxMmEuNTY4LjU2OCwwLDAsMSwuNTY4LS41NjhaIi8+PC9nPjwvZz48L2c+PC9zdmc+;fontFamily=Tahoma;fontSize=10;labelPosition=right;align=left;" parent="1" vertex="1">
          <mxGeometry x="80" y="140" width="20" height="20" as="geometry" />
        </mxCell>
        <mxCell id="IG1KmGdoP6GWx7z7iu9f-28" value="" style="endArrow=none;dashed=1;html=1;rounded=0;" edge="1" parent="1" source="IG1KmGdoP6GWx7z7iu9f-20" target="IG1KmGdoP6GWx7z7iu9f-25">
          <mxGeometry width="50" height="50" relative="1" as="geometry">
            <mxPoint x="-130" y="-50" as="sourcePoint" />
            <mxPoint x="140" y="-50" as="targetPoint" />
          </mxGeometry>
        </mxCell>
        <mxCell id="IG1KmGdoP6GWx7z7iu9f-29" value="" style="shape=image;verticalLabelPosition=bottom;labelBackgroundColor=none;verticalAlign=top;aspect=fixed;imageAspect=0;image=data:image/svg+xml,PHN2ZyB4bWxucz0iaHR0cDovL3d3dy53My5vcmcvMjAwMC9zdmciIHZpZXdCb3g9IjAgMCAxOCAxOCIgaGVpZ2h0PSIxOCIgd2lkdGg9IjE4IiBpZD0iZjgwN2NkZGUtMThmMi00NTc0LWJhMTQtZjBiMWVlZjk0YTRhIj48ZGVmcz48bGluZWFyR3JhZGllbnQgZ3JhZGllbnRVbml0cz0idXNlclNwYWNlT25Vc2UiIHkyPSI0LjM4IiB4Mj0iOC42MyIgeTE9IjEzLjAxIiB4MT0iMTMuMTgiIGlkPSJiYjY3YjE1NC1hZjhmLTRhNTMtYTljZS1hYTA0NmI5Mzk4ZTkiPjxzdG9wIHN0b3AtY29sb3I9IiMxOTg4ZDkiIG9mZnNldD0iMCIvPjxzdG9wIHN0b3AtY29sb3I9IiM1NGFlZjAiIG9mZnNldD0iMC45Ii8+PC9saW5lYXJHcmFkaWVudD48bGluZWFyR3JhZGllbnQgZ3JhZGllbnRVbml0cz0idXNlclNwYWNlT25Vc2UiIHkyPSIxNS45MyIgeDI9IjE0LjM3IiB5MT0iMTAuNSIgeDE9IjExLjIyIiBpZD0iYTQ3ZDcxMzgtMDg0YS00NzFkLThkNjMtNzQ0ZTc1YjllOGEzIj48c3RvcCBzdG9wLWNvbG9yPSIjNTRhZWYwIiBvZmZzZXQ9IjAuMSIvPjxzdG9wIHN0b3AtY29sb3I9IiM0ZmFiZWUiIG9mZnNldD0iMC4yOSIvPjxzdG9wIHN0b3AtY29sb3I9IiM0MWEyZTkiIG9mZnNldD0iMC41MSIvPjxzdG9wIHN0b3AtY29sb3I9IiMyYTkzZTAiIG9mZnNldD0iMC43NCIvPjxzdG9wIHN0b3AtY29sb3I9IiMxOTg4ZDkiIG9mZnNldD0iMC44OCIvPjwvbGluZWFyR3JhZGllbnQ+PC9kZWZzPjx0aXRsZT5JY29uLWlkZW50aXR5LTIyNzwvdGl0bGU+PGc+PHBvbHlnb24gZmlsbD0iIzUwZTZmZiIgcG9pbnRzPSIxLjE1IDEwLjIyIDguOTMgMTUuMjcgMTYuODUgMTAuMjEgMTcuODUgMTEuMzYgOC45MyAxNy4xMSAwLjE1IDExLjM3IDEuMTUgMTAuMjIiLz48cG9seWdvbiBmaWxsPSIjZmZmIiBwb2ludHM9IjEuNzMgOS41OCA4LjkzIDEgMTYuMjggOS41OSA4LjkzIDE0LjIzIDEuNzMgOS41OCIvPjxwb2x5Z29uIGZpbGw9IiM1MGU2ZmYiIHBvaW50cz0iOC45MyAxIDguOTMgMTQuMjMgMS43MyA5LjU4IDguOTMgMSIvPjxwb2x5Z29uIGZpbGw9InVybCgjYmI2N2IxNTQtYWY4Zi00YTUzLWE5Y2UtYWEwNDZiOTM5OGU5KSIgcG9pbnRzPSI4LjkzIDEgOC45MyAxNC4yMyAxNi4yOCA5LjU5IDguOTMgMSIvPjxwb2x5Z29uIGZpbGw9IiM1M2IxZTAiIHBvaW50cz0iOC45MyA3LjgzIDE2LjI4IDkuNTkgOC45MyAxNC4yMyA4LjkzIDcuODMiLz48cG9seWdvbiBmaWxsPSIjOWNlYmZmIiBwb2ludHM9IjguOTMgMTQuMjMgMS43MyA5LjU4IDguOTMgNy44MyA4LjkzIDE0LjIzIi8+PHBvbHlnb24gZmlsbD0idXJsKCNhNDdkNzEzOC0wODRhLTQ3MWQtOGQ2My03NDRlNzViOWU4YTMpIiBwb2ludHM9IjguOTMgMTcuMTEgMTcuODUgMTEuMzYgMTYuODUgMTAuMjEgOC45MyAxNS4yNyA4LjkzIDE3LjExIi8+PGc+PHBhdGggZmlsbD0iI2ZmY2EwMCIgZD0iTTE2LjMyLDExLjg4YTEuMTYsMS4xNiwwLDAsMCwwLTEuNjVoMGwtMi0yYTEuMTYsMS4xNiwwLDAsMC0xLjY0LDBoMGwtMiwyYTEuMTgsMS4xOCwwLDAsMCwwLDEuNjVsMS42NywxLjY3YS4zMi4zMiwwLDAsMSwuMDkuMjN2My4xYS4zNi4zNiwwLDAsMCwuMTIuMjhsLjc2Ljc2YS4yNS4yNSwwLDAsMCwuMzcsMGwuNzMtLjczaDBsLjQ0LS40NGEuMTUuMTUsMCwwLDAsMC0uMjFsLS4zMS0uMzFhLjE2LjE2LDAsMCwxLDAtLjI0bC4zMS0uMzFhLjE2LjE2LDAsMCwwLDAtLjIybC0uMzEtLjMxYS4xNS4xNSwwLDAsMSwwLS4yM2wuMzEtLjMyYS4xNS4xNSwwLDAsMCwwLS4yMWwtLjQ0LS40NHYtLjE2Wk0xMy41LDguNzFhLjY2LjY2LDAsMSwxLS42Ni42Ni42Ni42NiwwLDAsMSwuNjYtLjY2WiIgaWQ9ImUxODlhNjFmLTYzMWEtNDEyMi1iYjJiLTA3OWU4NjAwNGQ5NiIvPjxwYXRoIG9wYWNpdHk9IjAuNzUiIGZpbGw9IiNmZjkzMDAiIGQ9Ik0xMywxN2gwYS4xNC4xNCwwLDAsMCwuMjQtLjExVjE0LjMzYS4xNi4xNiwwLDAsMC0uMDYtLjEzaDBhLjE0LjE0LDAsMCwwLS4yMi4xM3YyLjUxQS4xNS4xNSwwLDAsMCwxMywxN1oiIGlkPSJmYjcwMzNlZS00NjUwLTQ4ODYtODBjNy1lZGRmNjI1NjBmODUiLz48cmVjdCBvcGFjaXR5PSIwLjc1IiBmaWxsPSIjZmY5MzAwIiByeD0iMC4xOCIgaGVpZ2h0PSIwLjM5IiB3aWR0aD0iMy4yOSIgeT0iMTAuOSIgeD0iMTEuOSIgaWQ9ImIxNjZiOGMyLWI5ZWUtNGMzZC1iZjdhLTc3YmQ1Y2UwNTcwYiIvPjxyZWN0IG9wYWNpdHk9IjAuNzUiIGZpbGw9IiNmZjkzMDAiIHJ4PSIwLjE4IiBoZWlnaHQ9IjAuMzkiIHdpZHRoPSIzLjI5IiB5PSIxMS41MyIgeD0iMTEuOSIgaWQ9ImJhZjQzN2ZlLTM0ODMtNGEyNS05NGJhLTFlODRhNjRjZDJlYiIvPjwvZz48L2c+PC9zdmc+;fontFamily=Tahoma;fontSize=10;" vertex="1" parent="1">
          <mxGeometry x="170" y="60" width="20" height="20" as="geometry" />
        </mxCell>
        <mxCell id="IG1KmGdoP6GWx7z7iu9f-30" value="(dev-mil | uat-mil | mil).pagopa.it" style="shape=image;verticalLabelPosition=bottom;labelBackgroundColor=none;verticalAlign=top;aspect=fixed;imageAspect=0;image=data:image/svg+xml,PHN2ZyB4bWxucz0iaHR0cDovL3d3dy53My5vcmcvMjAwMC9zdmciIHZpZXdCb3g9IjAgMCAxOCAxOCIgaGVpZ2h0PSIxOCIgd2lkdGg9IjE4IiBpZD0iYTU0MmNmMzktMmJhNi00MjA2LTgyNzgtNmE0ZjFjMjQ1MmY1Ij48ZGVmcz48cmFkaWFsR3JhZGllbnQgZ3JhZGllbnRVbml0cz0idXNlclNwYWNlT25Vc2UiIGdyYWRpZW50VHJhbnNmb3JtPSJtYXRyaXgoMC41LCAwLCAwLCAtMC41LCAzNDE0LjkxLCAzMzc0LjA1KSIgcj0iMTciIGN5PSI2NzI5LjY5IiBjeD0iLTY4MTEuNCIgaWQ9ImU3NTc5ZjRkLTM2YTMtNDY5My1hNzI2LTdhNjA1MGFjNTY3MSI+PHN0b3Agc3RvcC1jb2xvcj0iIzVlYTBlZiIgb2Zmc2V0PSIwLjE4Ii8+PHN0b3Agc3RvcC1jb2xvcj0iIzAwNzhkNCIgb2Zmc2V0PSIxIi8+PC9yYWRpYWxHcmFkaWVudD48L2RlZnM+PHRpdGxlPkljb24tbmV0d29ya2luZy02NDwvdGl0bGU+PHBhdGggZmlsbD0idXJsKCNlNzU3OWY0ZC0zNmEzLTQ2OTMtYTcyNi03YTYwNTBhYzU2NzEpIiBkPSJNMTQuMjEsMTUuNzJBOC41LDguNSwwLDAsMSwzLjc5LDIuMjhsLjA5LS4wNmE4LjUsOC41LDAsMCwxLDEwLjMzLDEzLjUiIGlkPSJmNTdlMTA1ZC02ZDJkLTRhZDctYjhjMy1jMTA2ODRjOWY5YjgiLz48cGF0aCBmaWxsPSIjNWVhMGVmIiBkPSJNOSwxLjMxQTcuNjksNy42OSwwLDEsMCwxNi42OSw5LDcuNyw3LjcsMCwwLDAsOSwxLjMxWk0xNC4xNSwzLjlBNy4zNyw3LjM3LDAsMCwxLDEyLDQuNyw4LjgzLDguODMsMCwwLDAsMTAuNzUsMiw3LjIsNy4yLDAsMCwxLDE0LjE1LDMuOVpNOSwxLjc0YTYuNTksNi41OSwwLDAsMSwxLjA5LjA5aDBhNy40OCw3LjQ4LDAsMCwxLDEuNTMsMywxNS4xMiwxNS4xMiwwLDAsMS01LjQ1LDBBNy4zOCw3LjM4LDAsMCwxLDcuNjgsMS44OWwwLDBBNy4zNCw3LjM0LDAsMCwxLDksMS43NFpNNywyQTguNzIsOC43MiwwLDAsMCw1LjczLDQuNjhhNS41OCw1LjU4LDAsMCwxLTEuOS0uNzdBNy4zNSw3LjM1LDAsMCwxLDcsMlpNMy43MiwxNGE1LjI3LDUuMjcsMCwwLDEsMS43OC0uNzYsNy4wOCw3LjA4LDAsMCwwLDEuMzUsMi43MkE3LjI1LDcuMjUsMCwwLDEsMy43MiwxNFptNi40MSwyLjJBNy4wOCw3LjA4LDAsMCwxLDksMTYuMjZhNi44Myw2LjgzLDAsMCwxLTEuNDQtLjE1bDAsMGE2LDYsMCwwLDEtMS42Ny0zLDE0LjczLDE0LjczLDAsMCwxLDUuODgsMCw2LDYsMCwwLDEtMS42OSwzWm0uNzMtLjE2YTcuMTMsNy4xMywwLDAsMCwxLjM4LTIuOCw2LjY4LDYuNjgsMCwwLDEsMiwuODNBNy4xMyw3LjEzLDAsMCwxLDEwLjg2LDE2Wm0xLjQ4LTMuMjJjLjA4LS4zNi4xNS0uNzMuMi0xLjEybC0uNDYuMTFjLS4wNS4zMS0uMS42Mi0uMTcuOTFhMTUuMjMsMTUuMjMsMCwwLDAtNi4wOSwwYy0uMDctLjI3LS4xMi0uNTYtLjE3LS44NmEuMjguMjgsMCwwLDEsMC0uMDlsLS40Ni0uMTNhMi4zNiwyLjM2LDAsMCwwLDAsLjI4YzAsLjMyLjExLjYyLjE3LjkxYTUuOSw1LjksMCwwLDAtMiwuODUsNy4yNCw3LjI0LDAsMCwxLC4xMS05LjQsNi4yOSw2LjI5LDAsMCwwLDIuMDguODZjLS4wNy4yNC0uMTMuNS0uMTguNzZzMCwuMjUtLjA4LjM3bC40Ny0uMTEsMC0uMTdjLjA2LS4yNi4xMi0uNTEuMTktLjc1QTE0Ljg5LDE0Ljg5LDAsMCwwLDksNS40OGExNSwxNSwwLDAsMCwyLjc4LS4yNmMuMDcuMjcuMTQuNTYuMi44NWwuNDYuMTFxLS4xMS0uNTQtLjI0LTFhNy43Myw3LjczLDAsMCwwLDIuMy0uOTEsNy4yMiw3LjIyLDAsMCwxLC4wNiw5LjQ5QTcuMjgsNy4yOCwwLDAsMCwxMi4zNCwxMi43OVoiLz48cGF0aCBmaWxsPSIjZmZmIiBkPSJNMy42OSw3YTcuOTIsNy45MiwwLDAsMSwxLjE2LS4wOCwyLjQ0LDIuNDQsMCwwLDEsMS43MS41MkEyLDIsMCwwLDEsNy4xNSw4LjlhMi4yMSwyLjIxLDAsMCwxLS42MSwxLjY0LDIuNiwyLjYsMCwwLDEtMS44Ni42MSw5LjE3LDkuMTcsMCwwLDEtMS0uMDVabS41NSwzLjczYTQsNCwwLDAsMCwuNTUsMEExLjYyLDEuNjIsMCwwLDAsNi41OCw4LjkyLDEuNSwxLjUsMCwwLDAsNC44Nyw3LjNhMy4xNywzLjE3LDAsMCwwLS42MywwWiIvPjxwYXRoIGZpbGw9IiNmZmYiIGQ9Ik03Ljg2LDExLjExVjYuOWguNTlMOS44LDlhMTIuMTgsMTIuMTgsMCwwLDEsLjc2LDEuMzdoMGMtLjA1LS41Ni0uMDYtMS4wNy0uMDYtMS43M1Y2LjlIMTF2NC4yMWgtLjU1TDkuMTMsOWMtLjI5LS40Ny0uNTctMS0uNzktMS40aDBjMCwuNTMsMCwxLDAsMS43NHYxLjhaIi8+PHBhdGggZmlsbD0iI2ZmZiIgZD0iTTExLjg5LDEwLjQ1YTIsMiwwLDAsMCwxLC4yN2MuNTYsMCwuODgtLjI5Ljg4LS43MnMtLjIyLS42Mi0uNzktLjgzLTEuMTItLjYtMS4xMi0xLjJhMS4yMiwxLjIyLDAsMCwxLDEuMzctMS4xNCwyLDIsMCwwLDEsLjkzLjJMMTQsNy40OGExLjYzLDEuNjMsMCwwLDAtLjgtLjJjLS41OCwwLS44LjM0LS44LjYzcy4yNi41OS44NC44MSwxLjA4LjYyLDEuMDgsMS4yNC0uNDgsMS4yMS0xLjQ4LDEuMjFhMi4xNiwyLjE2LDAsMCwxLTEuMDctLjI3WiIvPjwvc3ZnPg==;fontFamily=Tahoma;fontSize=10;labelPosition=center;align=center;" vertex="1" parent="1">
          <mxGeometry x="-100" y="200" width="40" height="40" as="geometry" />
        </mxCell>
        <mxCell id="IG1KmGdoP6GWx7z7iu9f-31" value="" style="rounded=0;whiteSpace=wrap;html=1;fillColor=#d5e8d4;strokeColor=none;strokeWidth=1;labelBackgroundColor=none;" vertex="1" parent="1">
          <mxGeometry x="20" y="-320" width="260" height="160" as="geometry" />
        </mxCell>
        <mxCell id="IG1KmGdoP6GWx7z7iu9f-32" value="" style="rounded=0;whiteSpace=wrap;html=1;fillColor=#dae8fc;strokeColor=none;fontFamily=Tahoma;fontSize=10;dashed=1;strokeWidth=2;labelBackgroundColor=none;" vertex="1" parent="1">
          <mxGeometry x="80" y="-300" width="140" height="100" as="geometry" />
        </mxCell>
        <mxCell id="IkQXpn9ixrnxDfD2KMmo-4" value="mil-x-integr" style="shape=image;verticalLabelPosition=middle;labelBackgroundColor=none;verticalAlign=middle;aspect=fixed;imageAspect=0;image=data:image/svg+xml,PHN2ZyB4bWxucz0iaHR0cDovL3d3dy53My5vcmcvMjAwMC9zdmciIHZpZXdCb3g9IjAgMCAxOCAxOCIgaGVpZ2h0PSIxOCIgd2lkdGg9IjE4IiBpZD0iYTE2MDZhNTItZmIxNC00NjM3LTg3ZGUtNGQ1MjRiYmExODI5Ij48ZGVmcz48bGluZWFyR3JhZGllbnQgZ3JhZGllbnRVbml0cz0idXNlclNwYWNlT25Vc2UiIGdyYWRpZW50VHJhbnNmb3JtPSJ0cmFuc2xhdGUoMi4wMyAtMC40KSByb3RhdGUoLTAuMDgpIiB5Mj0iMTAuMjMiIHgyPSIxMS41MiIgeTE9IjguNTkiIHgxPSI5Ljg4IiBpZD0iZjAyMGZiN2UtMjI0My00NTAxLTgxNTMtNWQ2OWJkM2MzNGY3Ij48c3RvcCBzdG9wLWNvbG9yPSIjODZkNjMzIiBvZmZzZXQ9IjAiLz48c3RvcCBzdG9wLWNvbG9yPSIjNWU5NjI0IiBvZmZzZXQ9IjEiLz48L2xpbmVhckdyYWRpZW50PjxsaW5lYXJHcmFkaWVudCBncmFkaWVudFVuaXRzPSJ1c2VyU3BhY2VPblVzZSIgeTI9IjEwLjIzIiB4Mj0iNy44MSIgeTE9IjguNTkiIHgxPSI2LjE4IiBpZD0iYjNjMmJjOTQtOGM3Yy00OGEyLTk3MTktNmVlODk5YTQzYTk3Ij48c3RvcCBzdG9wLWNvbG9yPSIjODZkNjMzIiBvZmZzZXQ9IjAiLz48c3RvcCBzdG9wLWNvbG9yPSIjNWU5NjI0IiBvZmZzZXQ9IjEiLz48L2xpbmVhckdyYWRpZW50PjxsaW5lYXJHcmFkaWVudCBncmFkaWVudFVuaXRzPSJ1c2VyU3BhY2VPblVzZSIgeTI9IjEwLjIzIiB4Mj0iNC4xMSIgeTE9IjguNTkiIHgxPSIyLjQ4IiBpZD0iZTkwMGMzNWQtMDk1OC00ZDRmLWIyOGYtMzAyZWVhYWY1MmY1Ij48c3RvcCBzdG9wLWNvbG9yPSIjODZkNjMzIiBvZmZzZXQ9IjAiLz48c3RvcCBzdG9wLWNvbG9yPSIjNWU5NjI0IiBvZmZzZXQ9IjEiLz48L2xpbmVhckdyYWRpZW50PjwvZGVmcz48dGl0bGU+SWNvbi1uZXR3b3JraW5nLTYxPC90aXRsZT48Y2lyY2xlIGZpbGw9InVybCgjZjAyMGZiN2UtMjI0My00NTAxLTgxNTMtNWQ2OWJkM2MzNGY3KSIgcj0iMS4xNiIgY3k9IjguOTkiIGN4PSIxMi43NCIvPjxjaXJjbGUgZmlsbD0idXJsKCNiM2MyYmM5NC04YzdjLTQ4YTItOTcxOS02ZWU4OTlhNDNhOTcpIiByPSIxLjE2IiBjeT0iOSIgY3g9IjkuMDQiLz48Y2lyY2xlIGZpbGw9InVybCgjZTkwMGMzNWQtMDk1OC00ZDRmLWIyOGYtMzAyZWVhYWY1MmY1KSIgcj0iMS4xNiIgY3k9IjkiIGN4PSI1LjM0Ii8+PHBhdGggZmlsbD0iIzUwZTZmZiIgdHJhbnNmb3JtPSJ0cmFuc2xhdGUoMTMuMTggMTYuOTMpIHJvdGF0ZSgxMzQuOTIpIiBkPSJNMi42MSw3LjI4aC45NGEuMy4zLDAsMCwxLC4zLjN2Ni45NGEuNi42LDAsMCwxLS42LjZIMi4zMWEwLDAsMCwwLDEsMCwwVjcuNThhLjMuMywwLDAsMSwuMy0uM1oiLz48cGF0aCBmaWxsPSIjMTQ5MGRmIiB0cmFuc2Zvcm09InRyYW5zbGF0ZSg1LjY2IC0wLjE2KSByb3RhdGUoNDQuOTIpIiBkPSJNMi41NiwyLjkxSDMuNWEuMy4zLDAsMCwxLC4zLjN2Ny40M2EwLDAsMCwwLDEsMCwwSDIuODZhLjYuNiwwLDAsMS0uNi0uNlYzLjIxYS4zLjMsMCwwLDEsLjMtLjNaIi8+PHBhdGggZmlsbD0iIzUwZTZmZiIgdHJhbnNmb3JtPSJ0cmFuc2xhdGUoMTIuMzIgLTcuMjgpIHJvdGF0ZSg0NS4wOCkiIGQ9Ik0xNC4xNSw3LjI4aC45NGEuNi42LDAsMCwxLC42LjZ2Ni45NGEuMy4zLDAsMCwxLS4zLjNoLS45NGEuMy4zLDAsMCwxLS4zLS4zVjcuMjhhMCwwLDAsMCwxLDAsMFoiLz48cGF0aCBmaWxsPSIjMTQ5MGRmIiB0cmFuc2Zvcm09InRyYW5zbGF0ZSgzMC4zNiAwLjk5KSByb3RhdGUoMTM1LjA4KSIgZD0iTTE0LjgxLDIuOTFoLjk0YTAsMCwwLDAsMSwwLDB2Ny40M2EuMy4zLDAsMCwxLS4zLjNIMTQuNWEuMy4zLDAsMCwxLS4zLS4zVjMuNTFhLjYuNiwwLDAsMSwuNi0uNloiLz48L3N2Zz4=;fontFamily=Tahoma;fontSize=10;labelPosition=right;align=left;" parent="1" vertex="1">
          <mxGeometry x="20" y="-180" width="20" height="20" as="geometry" />
        </mxCell>
        <mxCell id="IkQXpn9ixrnxDfD2KMmo-9" value="mil-x-apim-snet" style="shape=image;verticalLabelPosition=middle;labelBackgroundColor=none;verticalAlign=middle;aspect=fixed;imageAspect=0;image=data:image/svg+xml,PHN2ZyB4bWxucz0iaHR0cDovL3d3dy53My5vcmcvMjAwMC9zdmciIHZpZXdCb3g9IjAgMCAxOCAxOCIgaGVpZ2h0PSIxOCIgd2lkdGg9IjE4Ij48ZGVmcz48bGluZWFyR3JhZGllbnQgZ3JhZGllbnRVbml0cz0idXNlclNwYWNlT25Vc2UiIHkyPSI3LjY5NSIgeDI9IjkuMDMzIiB5MT0iMTAuMzA1IiB4MT0iOS4wMzMiIGlkPSJiY2ViNjBkZC04YjhjLTQwOTgtOTRmOC1hZWI0ZGIyZWRhZWYiPjxzdG9wIHN0b3AtY29sb3I9IiM1ZTk2MjQiIG9mZnNldD0iMCIvPjxzdG9wIHN0b3AtY29sb3I9IiM2ZmIwMmEiIG9mZnNldD0iMC4yNDEiLz48c3RvcCBzdG9wLWNvbG9yPSIjN2NjNTJmIiBvZmZzZXQ9IjAuNTAxIi8+PHN0b3Agc3RvcC1jb2xvcj0iIzgzZDIzMiIgb2Zmc2V0PSIwLjc1NiIvPjxzdG9wIHN0b3AtY29sb3I9IiM4NmQ2MzMiIG9mZnNldD0iMSIvPjwvbGluZWFyR3JhZGllbnQ+PC9kZWZzPjxnIGlkPSJhYzc1YzIxZS0yYTkzLTQ2NGYtODA0OC1mMTUxOGRhYjhiNzUiPjxnPjxwYXRoIGZpbGw9InVybCgjYmNlYjYwZGQtOGI4Yy00MDk4LTk0ZjgtYWViNGRiMmVkYWVmKSIgZD0iTTkuMDMxLDcuN0ExLjMwNSwxLjMwNSwwLDEsMCwxMC4zMzgsOSwxLjMwNSwxLjMwNSwwLDAsMCw5LjAzMSw3LjdaIi8+PGc+PHBhdGggZmlsbD0iIzUwZTZmZiIgdHJhbnNmb3JtPSJ0cmFuc2xhdGUoMTMuNjUzIDE2LjQ4NSkgcm90YXRlKDEzNC45MTkpIiBkPSJNMi45NjEsNy4zNzRoLjg4OGEuMjg0LjI4NCwwLDAsMSwuMjg0LjI4NHY2LjU1MWEuNTY4LjU2OCwwLDAsMS0uNTY4LjU2OEgyLjY3N2EwLDAsMCwwLDEsMCwwVjcuNjU5QS4yODQuMjg0LDAsMCwxLDIuOTYxLDcuMzc0WiIvPjxwYXRoIGZpbGw9IiMxNDkwZGYiIHRyYW5zZm9ybT0idHJhbnNsYXRlKDUuODQ3IC0wLjM1OCkgcm90YXRlKDQ0LjkxOSkiIGQ9Ik0yLjkxMywzLjI0NEgzLjhhLjI4NC4yODQsMCwwLDEsLjI4NC4yODR2Ny4wMTVhMCwwLDAsMCwxLDAsMEgzLjJhLjU2OC41NjgsMCwwLDEtLjU2OC0uNTY4VjMuNTI4YS4yODQuMjg0LDAsMCwxLC4yODQtLjI4NFoiLz48cGF0aCBmaWxsPSIjNTBlNmZmIiB0cmFuc2Zvcm09InRyYW5zbGF0ZSgxMi4xMzIgLTcuMDc5KSByb3RhdGUoNDUuMDgxKSIgZD0iTTEzLjg2Nyw3LjM3NGguODg4YS41NjguNTY4LDAsMCwxLC41NjguNTY4djYuNTUxYS4yODQuMjg0LDAsMCwxLS4yODQuMjg0aC0uODg4YS4yODQuMjg0LDAsMCwxLS4yODQtLjI4NFY3LjM3NGEwLDAsMCwwLDEsMCwwWiIvPjxwYXRoIGZpbGw9IiMxNDkwZGYiIHRyYW5zZm9ybT0idHJhbnNsYXRlKDI5Ljg3OSAxLjQzNSkgcm90YXRlKDEzNS4wODEpIiBkPSJNMTQuNDgzLDMuMjQ0aC44ODhhMCwwLDAsMCwxLDAsMHY3LjAxNWEuMjg0LjI4NCwwLDAsMS0uMjg0LjI4NEgxNC4yYS4yODQuMjg0LDAsMCwxLS4yODQtLjI4NFYzLjgxMmEuNTY4LjU2OCwwLDAsMSwuNTY4LS41NjhaIi8+PC9nPjwvZz48L2c+PC9zdmc+;fontFamily=Tahoma;fontSize=10;labelPosition=right;align=left;" parent="1" vertex="1">
          <mxGeometry x="80" y="-220" width="20" height="20" as="geometry" />
        </mxCell>
        <mxCell id="IG1KmGdoP6GWx7z7iu9f-19" value="mil-x-apim" style="shape=image;verticalLabelPosition=bottom;labelBackgroundColor=#DAE8FC;verticalAlign=top;aspect=fixed;imageAspect=0;image=data:image/svg+xml,PHN2ZyB4bWxucz0iaHR0cDovL3d3dy53My5vcmcvMjAwMC9zdmciIHZpZXdCb3g9IjAgMCAxOCAxOCIgaGVpZ2h0PSIxOCIgd2lkdGg9IjE4IiBpZD0iZjc4ZWYzN2ItZmRlNC00NjFjLTk0ZTItZGNjZmYzMmRkNWQ3Ij48ZGVmcz48bGluZWFyR3JhZGllbnQgZ3JhZGllbnRVbml0cz0idXNlclNwYWNlT25Vc2UiIHkyPSIxLjE4IiB4Mj0iOSIgeTE9IjE2LjgyIiB4MT0iOSIgaWQ9ImJmOGE5NTgzLWFhZTktNDhmZi04N2Q4LWZiOGY0NGU3ZDZiZCI+PHN0b3Agc3RvcC1jb2xvcj0iIzE5OGFiMyIgb2Zmc2V0PSIwIi8+PHN0b3Agc3RvcC1jb2xvcj0iIzFmOWRjNCIgb2Zmc2V0PSIwLjA5Ii8+PHN0b3Agc3RvcC1jb2xvcj0iIzI4YjVkOSIgb2Zmc2V0PSIwLjI0Ii8+PHN0b3Agc3RvcC1jb2xvcj0iIzJkYzZlOSIgb2Zmc2V0PSIwLjQiLz48c3RvcCBzdG9wLWNvbG9yPSIjMzFkMWYyIiBvZmZzZXQ9IjAuNTciLz48c3RvcCBzdG9wLWNvbG9yPSIjMzJkNGY1IiBvZmZzZXQ9IjAuNzgiLz48L2xpbmVhckdyYWRpZW50PjxsaW5lYXJHcmFkaWVudCBncmFkaWVudFVuaXRzPSJ1c2VyU3BhY2VPblVzZSIgeTI9IjE0LjQ2IiB4Mj0iOC4zNiIgeTE9IjExLjM1IiB4MT0iOC4zNiIgaWQ9ImY5YjFiYjhjLTcyOGUtNGFiZi1iY2U1LTZjMTFhYzE3MGM1YiI+PHN0b3Agc3RvcC1jb2xvcj0iI2M2OWFlYiIgb2Zmc2V0PSIwIi8+PHN0b3Agc3RvcC1jb2xvcj0iIzZmNGJiMiIgb2Zmc2V0PSIxIi8+PC9saW5lYXJHcmFkaWVudD48L2RlZnM+PHRpdGxlPkljb24td2ViLTQyPC90aXRsZT48cGF0aCBmaWxsPSJ1cmwoI2JmOGE5NTgzLWFhZTktNDhmZi04N2Q4LWZiOGY0NGU3ZDZiZCkiIGQ9Ik0xNC4xOCw1Ljg5QTQuODUsNC44NSwwLDAsMCw5LjIzLDEuMTgsNSw1LDAsMCwwLDQuNDgsNC40Nyw0LjYxLDQuNjEsMCwwLDAsLjUsOSw0LjY3LDQuNjcsMCwwLDAsNS4yOSwxMy41YTMsMywwLDAsMCwuNDIsMGgxLjJhMS40NywxLjQ3LDAsMCwxLS4xMS0uNTZ2MEExLjUxLDEuNTEsMCwwLDEsNywxMi4yMUg1LjZsLS4zMSwwQTMuNDEsMy40MSwwLDAsMSwxLjc3LDksMy4zMywzLjMzLDAsMCwxLDQuNjgsNS43M2wuNzYtLjEyLjI1LS43M0EzLjczLDMuNzMsMCwwLDEsOS4yMywyLjQ1LDMuNiwzLjYsMCwwLDEsMTIuOTEsNS45VjdMMTQsNy4xNWEyLjU5LDIuNTksMCwwLDEsMi4yNiwyLjQ5LDIuNjMsMi42MywwLDAsMS0yLjYyLDIuNTRoLS4xNWwtLjA4LDBoLTFBMy45MiwzLjkyLDAsMCwwLDguNTQsOWEuNjQuNjQsMCwxLDAsMCwxLjI3LDIuNjUsMi42NSwwLDAsMSwwLDUuMjkuNjQuNjQsMCwxLDAsMCwxLjI3LDMuOTIsMy45MiwwLDAsMCwzLjg3LTMuMzRoMS4wNWEuNjQuNjQsMCwwLDAsLjIsMEEzLjkxLDMuOTEsMCwwLDAsMTcuNSw5LjY0LDMuODYsMy44NiwwLDAsMCwxNC4xOCw1Ljg5WiIvPjxyZWN0IGZpbGw9InVybCgjZjliMWJiOGMtNzI4ZS00YWJmLWJjZTUtNmMxMWFjMTcwYzViKSIgcng9IjEuNTQiIGhlaWdodD0iMy4xMiIgd2lkdGg9IjMuMTIiIHk9IjExLjM1IiB4PSI2LjgiLz48L3N2Zz4=;fontFamily=Tahoma;fontSize=10;" vertex="1" parent="1">
          <mxGeometry x="130" y="-280" width="40" height="40" as="geometry" />
        </mxCell>
        <mxCell id="IG1KmGdoP6GWx7z7iu9f-22" value="" style="endArrow=open;html=1;rounded=0;fillColor=#ffe6cc;strokeColor=#d79b00;endFill=0;" edge="1" parent="1" source="IG1KmGdoP6GWx7z7iu9f-19" target="IG1KmGdoP6GWx7z7iu9f-15">
          <mxGeometry width="50" height="50" relative="1" as="geometry">
            <mxPoint x="720" y="330" as="sourcePoint" />
            <mxPoint x="770" y="280" as="targetPoint" />
          </mxGeometry>
        </mxCell>
        <mxCell id="IG1KmGdoP6GWx7z7iu9f-16" value="mil-x-law" style="shape=image;verticalLabelPosition=middle;labelBackgroundColor=default;verticalAlign=middle;aspect=fixed;imageAspect=0;image=data:image/svg+xml,PHN2ZyB4bWxucz0iaHR0cDovL3d3dy53My5vcmcvMjAwMC9zdmciIHZpZXdCb3g9IjAgMCAxOCAxOCIgaGVpZ2h0PSIxOCIgd2lkdGg9IjE4IiBpZD0iYjM4OGU5NDQtNTUwOS00OWM5LTg0ZDctZjM4YmZmYTk5NWIyIj48ZGVmcz48bGluZWFyR3JhZGllbnQgZ3JhZGllbnRVbml0cz0idXNlclNwYWNlT25Vc2UiIHkyPSI4LjA5IiB4Mj0iNS4yMyIgeTE9IjE3LjQ1IiB4MT0iNS4yMyIgaWQ9ImE5OTdlMjAzLTFkN2QtNGNiOS1iMTMxLTVkYzQ0ZTAyOWI0NiI+PHN0b3Agc3RvcC1jb2xvcj0iIzE5ODhkOSIgb2Zmc2V0PSIwIi8+PHN0b3Agc3RvcC1jb2xvcj0iIzU0YWVmMCIgb2Zmc2V0PSIwLjkiLz48L2xpbmVhckdyYWRpZW50PjxsaW5lYXJHcmFkaWVudCBncmFkaWVudFVuaXRzPSJ1c2VyU3BhY2VPblVzZSIgeTI9IjAuNTUiIHgyPSIxMS41IiB5MT0iMTIuNDUiIHgxPSIxMS41IiBpZD0iZTEyMmU5ZDgtYWVlNS00ZjFhLWE2MGUtYjFlYWUzNTVkYWE1Ij48c3RvcCBzdG9wLWNvbG9yPSIjMTk4YWIzIiBvZmZzZXQ9IjAiLz48c3RvcCBzdG9wLWNvbG9yPSIjMTk4YmI0IiBvZmZzZXQ9IjAuMDEiLz48c3RvcCBzdG9wLWNvbG9yPSIjMjdiMmQ3IiBvZmZzZXQ9IjAuNDQiLz48c3RvcCBzdG9wLWNvbG9yPSIjMmZjYmVkIiBvZmZzZXQ9IjAuNzkiLz48c3RvcCBzdG9wLWNvbG9yPSIjMzJkNGY1IiBvZmZzZXQ9IjEiLz48L2xpbmVhckdyYWRpZW50PjwvZGVmcz48dGl0bGU+SWNvbi1tYW5hZ2UtMzA3PC90aXRsZT48cGF0aCBmaWxsPSJ1cmwoI2E5OTdlMjAzLTFkN2QtNGNiOS1iMTMxLTVkYzQ0ZTAyOWI0NikiIGQ9Ik01LjU5LDEzLjEzSDkuOTF2NC4zMkg1LjU5Wk0xLjE1LDE3LjQ1SDQuODdWMTMuMTNILjU1djMuNzJBLjYuNiwwLDAsMCwxLjE1LDE3LjQ1Wm0tLjYtNUg0Ljg3VjguMDlILjU1WiIvPjxwYXRoIGZpbGw9InVybCgjZTEyMmU5ZDgtYWVlNS00ZjFhLWE2MGUtYjFlYWUzNTVkYWE1KSIgZmlsbC1ydWxlPSJldmVub2RkIiBkPSJNMTEuNS41NWE1Ljg5LDUuODksMCwwLDEsNS45NSw2LDUuODksNS44OSwwLDAsMS01Ljk1LDUuOTVINS41NVY2LjVBNS44OSw1Ljg5LDAsMCwxLDExLjUuNTVaIi8+PHJlY3QgZmlsbD0iI2ZmZiIgaGVpZ2h0PSI0LjA4IiB3aWR0aD0iMS4zNiIgeT0iNS42NSIgeD0iNy41OSIvPjxyZWN0IGZpbGw9IiNmZmYiIGhlaWdodD0iMi43MiIgd2lkdGg9IjEuMzYiIHk9IjcuMDEiIHg9IjEwLjMxIi8+PHJlY3QgZmlsbD0iI2ZmZiIgaGVpZ2h0PSI1LjQ0IiB3aWR0aD0iMS4zNiIgeT0iNC4yOSIgeD0iMTMuMDMiLz48L3N2Zz4=;fontFamily=Tahoma;fontSize=10;labelPosition=right;align=left;" vertex="1" parent="1">
          <mxGeometry x="500" y="-280" width="40" height="40" as="geometry" />
        </mxCell>
      </root>
    </mxGraphModel>
  </diagram>
</mxfile>
